<svg xmlns="http://www.w3.org/2000/svg" xmlns:xlink="http://www.w3.org/1999/xlink" width="822" zoomAndPan="magnify" viewBox="0 0 616.5 374.999991" height="500" preserveAspectRatio="xMidYMid meet" version="1.2"><defs><clipPath id="2c5ac1cb52"><path d="M 5.246094 1 L 616 1 L 616 365 L 5.246094 365 Z M 5.246094 1 "/></clipPath><clipPath id="9f97bc074c"><path d="M 0 9 L 610.753906 9 L 610.753906 373 L 0 373 Z M 0 9 "/></clipPath><clipPath id="12f09c7acd"><path d="M 446.316406 225.210938 L 453.320312 225.210938 L 453.320312 232.214844 L 446.316406 232.214844 Z M 446.316406 225.210938 "/></clipPath><clipPath id="e69e994e7d"><path d="M 449.816406 225.210938 C 447.882812 225.210938 446.316406 226.777344 446.316406 228.710938 C 446.316406 230.644531 447.882812 232.214844 449.816406 232.214844 C 451.75 232.214844 453.320312 230.644531 453.320312 228.710938 C 453.320312 226.777344 451.75 225.210938 449.816406 225.210938 Z M 449.816406 225.210938 "/></clipPath><clipPath id="3374b96c07"><path d="M 376.128906 135.496094 L 383.132812 135.496094 L 383.132812 142.5 L 376.128906 142.5 Z M 376.128906 135.496094 "/></clipPath><clipPath id="28b982bd18"><path d="M 379.632812 135.496094 C 377.699219 135.496094 376.128906 137.066406 376.128906 139 C 376.128906 140.933594 377.699219 142.5 379.632812 142.5 C 381.566406 142.5 383.132812 140.933594 383.132812 139 C 383.132812 137.066406 381.566406 135.496094 379.632812 135.496094 Z M 379.632812 135.496094 "/></clipPath><clipPath id="15424904b8"><path d="M 235.148438 177.101562 L 242.148438 177.101562 L 242.148438 184.101562 L 235.148438 184.101562 Z M 235.148438 177.101562 "/></clipPath><clipPath id="16b9839317"><path d="M 238.648438 177.101562 C 236.714844 177.101562 235.148438 178.667969 235.148438 180.601562 C 235.148438 182.535156 236.714844 184.101562 238.648438 184.101562 C 240.582031 184.101562 242.148438 182.535156 242.148438 180.601562 C 242.148438 178.667969 240.582031 177.101562 238.648438 177.101562 Z M 238.648438 177.101562 "/></clipPath><clipPath id="709450db56"><path d="M 316.324219 203.488281 L 323.324219 203.488281 L 323.324219 210.488281 L 316.324219 210.488281 Z M 316.324219 203.488281 "/></clipPath><clipPath id="c8a17a41c1"><path d="M 319.824219 203.488281 C 317.890625 203.488281 316.324219 205.054688 316.324219 206.988281 C 316.324219 208.921875 317.890625 210.488281 319.824219 210.488281 C 321.757812 210.488281 323.324219 208.921875 323.324219 206.988281 C 323.324219 205.054688 321.757812 203.488281 319.824219 203.488281 Z M 319.824219 203.488281 "/></clipPath><clipPath id="8ae4366648"><path d="M 388.050781 186.351562 L 395.054688 186.351562 L 395.054688 193.351562 L 388.050781 193.351562 Z M 388.050781 186.351562 "/></clipPath><clipPath id="c6f293a672"><path d="M 391.554688 186.351562 C 389.621094 186.351562 388.050781 187.917969 388.050781 189.851562 C 388.050781 191.785156 389.621094 193.351562 391.554688 193.351562 C 393.484375 193.351562 395.054688 191.785156 395.054688 189.851562 C 395.054688 187.917969 393.484375 186.351562 391.554688 186.351562 Z M 391.554688 186.351562 "/></clipPath></defs><g id="ea8853b144"><g clip-rule="nonzero" clip-path="url(#2c5ac1cb52)"><path style=" stroke:none;fill-rule:nonzero;fill:#382b41;fill-opacity:1;" d="M 501.742188 136.234375 L 491.007812 136.234375 C 490.816406 136.234375 490.671875 136.136719 490.625 135.996094 C 477.125 95.347656 438.863281 65.960938 393.636719 65.960938 C 379.703125 65.960938 366.441406 68.773438 354.324219 73.832031 C 354.132812 73.878906 353.941406 73.832031 353.847656 73.640625 C 331.375 31.035156 286.675781 1.984375 235.148438 1.984375 C 161.011719 1.984375 100.898438 62.09375 100.898438 136.234375 C 100.898438 136.664062 100.898438 137.089844 100.949219 137.519531 C 100.949219 137.710938 100.804688 137.902344 100.660156 137.902344 C 46.5625 146.871094 5.246094 193.769531 5.246094 250.398438 C 5.246094 313.46875 56.386719 364.609375 119.410156 364.609375 L 501.742188 364.609375 C 564.8125 364.609375 615.90625 313.46875 615.90625 250.398438 C 615.90625 187.375 564.8125 136.234375 501.742188 136.234375 "/></g><g clip-rule="nonzero" clip-path="url(#9f97bc074c)"><path style=" stroke:none;fill-rule:nonzero;fill:#5e90bb;fill-opacity:1;" d="M 496.496094 144.242188 L 485.761719 144.242188 C 485.570312 144.242188 485.429688 144.144531 485.378906 144.003906 C 471.878906 103.355469 433.617188 73.96875 388.390625 73.96875 C 374.460938 73.96875 361.195312 76.78125 349.078125 81.839844 C 348.886719 81.886719 348.695312 81.839844 348.601562 81.648438 C 326.132812 39.046875 281.429688 9.992188 229.90625 9.992188 C 155.765625 9.992188 95.65625 70.101562 95.65625 144.242188 C 95.65625 144.671875 95.65625 145.101562 95.703125 145.527344 C 95.703125 145.71875 95.558594 145.910156 95.414062 145.910156 C 41.316406 154.878906 0 201.777344 0 258.40625 C 0 321.476562 51.144531 372.617188 114.164062 372.617188 L 496.496094 372.617188 C 559.566406 372.617188 610.660156 321.476562 610.660156 258.40625 C 610.660156 195.382812 559.566406 144.242188 496.496094 144.242188 "/></g><g clip-rule="nonzero" clip-path="url(#12f09c7acd)"><g clip-rule="nonzero" clip-path="url(#e69e994e7d)"><path style=" stroke:none;fill-rule:nonzero;fill:#89bac9;fill-opacity:1;" d="M 446.316406 225.210938 L 453.320312 225.210938 L 453.320312 232.214844 L 446.316406 232.214844 Z M 446.316406 225.210938 "/></g></g><g clip-rule="nonzero" clip-path="url(#3374b96c07)"><g clip-rule="nonzero" clip-path="url(#28b982bd18)"><path style=" stroke:none;fill-rule:nonzero;fill:#89bac9;fill-opacity:1;" d="M 376.128906 135.496094 L 383.132812 135.496094 L 383.132812 142.5 L 376.128906 142.5 Z M 376.128906 135.496094 "/></g></g><g clip-rule="nonzero" clip-path="url(#15424904b8)"><g clip-rule="nonzero" clip-path="url(#16b9839317)"><path style=" stroke:none;fill-rule:nonzero;fill:#89bac9;fill-opacity:1;" d="M 235.148438 177.101562 L 242.148438 177.101562 L 242.148438 184.101562 L 235.148438 184.101562 Z M 235.148438 177.101562 "/></g></g><g clip-rule="nonzero" clip-path="url(#709450db56)"><g clip-rule="nonzero" clip-path="url(#c8a17a41c1)"><path style=" stroke:none;fill-rule:nonzero;fill:#89bac9;fill-opacity:1;" d="M 316.324219 203.488281 L 323.324219 203.488281 L 323.324219 210.488281 L 316.324219 210.488281 Z M 316.324219 203.488281 "/></g></g><g clip-rule="nonzero" clip-path="url(#8ae4366648)"><g clip-rule="nonzero" clip-path="url(#c6f293a672)"><path style=" stroke:none;fill-rule:nonzero;fill:#89bac9;fill-opacity:1;" d="M 388.050781 186.351562 L 395.054688 186.351562 L 395.054688 193.351562 L 388.050781 193.351562 Z M 388.050781 186.351562 "/></g></g></g></svg>