<svg xmlns="http://www.w3.org/2000/svg" xmlns:xlink="http://www.w3.org/1999/xlink" width="206" zoomAndPan="magnify" viewBox="0 0 154.5 63.749997" height="85" preserveAspectRatio="xMidYMid meet" version="1.2"><defs><clipPath id="f950f0b50d"><path d="M 0.0546875 0 L 153.859375 0 L 153.859375 62.796875 L 0.0546875 62.796875 Z M 0.0546875 0 "/></clipPath><clipPath id="dfe2ae3a4d"><path d="M 31.453125 0 L 122.363281 0 C 130.691406 0 138.675781 3.308594 144.5625 9.195312 C 150.453125 15.085938 153.761719 23.070312 153.761719 31.398438 C 153.761719 39.726562 150.453125 47.710938 144.5625 53.601562 C 138.675781 59.488281 130.691406 62.796875 122.363281 62.796875 L 31.453125 62.796875 C 23.125 62.796875 15.136719 59.488281 9.25 53.601562 C 3.359375 47.710938 0.0546875 39.726562 0.0546875 31.398438 C 0.0546875 23.070312 3.359375 15.085938 9.25 9.195312 C 15.136719 3.308594 23.125 0 31.453125 0 Z M 31.453125 0 "/></clipPath><clipPath id="80e2a31be4"><path d="M 0.0585938 0 L 153.949219 0 L 153.949219 62.753906 L 0.0585938 62.753906 Z M 0.0585938 0 "/></clipPath><clipPath id="f022263291"><path d="M 31.433594 0 L 122.28125 0 C 130.605469 0 138.585938 3.304688 144.46875 9.191406 C 150.355469 15.074219 153.660156 23.054688 153.660156 31.375 C 153.660156 39.699219 150.355469 47.679688 144.46875 53.5625 C 138.585938 59.449219 130.605469 62.753906 122.28125 62.753906 L 31.433594 62.753906 C 23.113281 62.753906 15.132812 59.449219 9.25 53.5625 C 3.363281 47.679688 0.0585938 39.699219 0.0585938 31.375 C 0.0585938 23.054688 3.363281 15.074219 9.25 9.191406 C 15.132812 3.304688 23.113281 0 31.433594 0 Z M 31.433594 0 "/></clipPath></defs><g id="8a327a3756"><g clip-rule="nonzero" clip-path="url(#f950f0b50d)"><g clip-rule="nonzero" clip-path="url(#dfe2ae3a4d)"><path style=" stroke:none;fill-rule:nonzero;fill:#81aefe;fill-opacity:1;" d="M 0.0546875 0 L 153.859375 0 L 153.859375 62.796875 L 0.0546875 62.796875 Z M 0.0546875 0 "/></g></g><g clip-rule="nonzero" clip-path="url(#80e2a31be4)"><g clip-rule="nonzero" clip-path="url(#f022263291)"><path style="fill:none;stroke-width:10;stroke-linecap:butt;stroke-linejoin:miter;stroke:#453850;stroke-opacity:1;stroke-miterlimit:4;" d="M 42.021404 0.00000133408 L 163.694492 0.00000133408 C 174.843194 0.00000133408 185.531508 4.425999 193.410412 12.310135 C 201.294547 20.189039 205.720545 30.877353 205.720545 42.020823 C 205.720545 53.169524 201.294547 63.857838 193.410412 71.736742 C 185.531508 79.620878 174.843194 84.046876 163.694492 84.046876 L 42.021404 84.046876 C 30.877934 84.046876 20.18962 79.620878 12.310716 71.736742 C 4.42658 63.857838 0.000582299 53.169524 0.000582299 42.020823 C 0.000582299 30.877353 4.42658 20.189039 12.310716 12.310135 C 20.18962 4.425999 30.877934 0.00000133408 42.021404 0.00000133408 Z M 42.021404 0.00000133408 " transform="matrix(0.746654,0,0,0.746654,0.058159,-0.000000996094)"/></g></g></g></svg>