<svg xmlns="http://www.w3.org/2000/svg" xmlns:xlink="http://www.w3.org/1999/xlink" width="427" zoomAndPan="magnify" viewBox="0 0 320.25 96.749999" height="129" preserveAspectRatio="xMidYMid meet" version="1.2"><defs><clipPath id="b9707ab37a"><path d="M 0.0390625 0 L 318.949219 0 L 318.949219 95.824219 L 0.0390625 95.824219 Z M 0.0390625 0 "/></clipPath><clipPath id="0220c4939f"><path d="M 47.949219 0 L 271 0 C 283.707031 0 295.894531 5.046875 304.878906 14.03125 C 313.863281 23.019531 318.914062 35.203125 318.914062 47.910156 C 318.914062 60.617188 313.863281 72.804688 304.878906 81.789062 C 295.894531 90.777344 283.707031 95.824219 271 95.824219 L 47.949219 95.824219 C 35.242188 95.824219 23.058594 90.777344 14.070312 81.789062 C 5.085938 72.804688 0.0390625 60.617188 0.0390625 47.910156 C 0.0390625 35.203125 5.085938 23.019531 14.070312 14.03125 C 23.058594 5.046875 35.242188 0 47.949219 0 Z M 47.949219 0 "/></clipPath><clipPath id="4f57d40a8a"><path d="M 0.0390625 0 L 318.714844 0 L 318.714844 95.753906 L 0.0390625 95.753906 Z M 0.0390625 0 "/></clipPath><clipPath id="498154a1ae"><path d="M 47.914062 0 L 270.792969 0 C 283.492188 0 295.667969 5.046875 304.648438 14.023438 C 313.625 23 318.667969 35.179688 318.667969 47.875 C 318.667969 60.574219 313.625 72.75 304.648438 81.730469 C 295.667969 90.707031 283.492188 95.75 270.792969 95.75 L 47.914062 95.75 C 35.214844 95.75 23.039062 90.707031 14.0625 81.730469 C 5.082031 72.75 0.0390625 60.574219 0.0390625 47.875 C 0.0390625 35.179688 5.082031 23 14.0625 14.023438 C 23.039062 5.046875 35.214844 0 47.914062 0 Z M 47.914062 0 "/></clipPath></defs><g id="d13b7d4b95"><g clip-rule="nonzero" clip-path="url(#b9707ab37a)"><g clip-rule="nonzero" clip-path="url(#0220c4939f)"><path style=" stroke:none;fill-rule:nonzero;fill:#f2827c;fill-opacity:1;" d="M 0.0390625 0 L 318.949219 0 L 318.949219 95.824219 L 0.0390625 95.824219 Z M 0.0390625 0 "/></g></g><g clip-rule="nonzero" clip-path="url(#4f57d40a8a)"><g clip-rule="nonzero" clip-path="url(#498154a1ae)"><path style="fill:none;stroke-width:14;stroke-linecap:butt;stroke-linejoin:miter;stroke:#453850;stroke-opacity:1;stroke-miterlimit:4;" d="M 64.04569 -0.00172611 L 362.20368 -0.00172611 C 379.192159 -0.00172611 395.480405 6.74977 407.494097 18.758236 C 419.502563 30.766703 426.248834 47.060174 426.248834 64.043427 C 426.248834 81.031906 419.502563 97.320152 407.494097 109.333844 C 395.480405 121.34231 379.192159 128.088581 362.20368 128.088581 L 64.04569 128.088581 C 47.057211 128.088581 30.768965 121.34231 18.760499 109.333844 C 6.746807 97.320152 0.00053651 81.031906 0.00053651 64.043427 C 0.00053651 47.060174 6.746807 30.766703 18.760499 18.758236 C 30.768965 6.74977 47.057211 -0.00172611 64.04569 -0.00172611 Z M 64.04569 -0.00172611 " transform="matrix(0.747519,0,0,0.747519,0.0386614,0.0012903)"/></g></g></g></svg>