<svg xmlns="http://www.w3.org/2000/svg" xmlns:xlink="http://www.w3.org/1999/xlink" width="927" zoomAndPan="magnify" viewBox="0 0 695.25 438.749982" height="585" preserveAspectRatio="xMidYMid meet" version="1.2"><defs><clipPath id="9374f6677c"><path d="M 438.921875 0.113281 L 694.5 0.113281 L 694.5 232.574219 L 438.921875 232.574219 Z M 438.921875 0.113281 "/></clipPath><clipPath id="f48a34ce3a"><path d="M 566.699219 0.113281 C 496.132812 0.113281 438.921875 52.148438 438.921875 116.34375 C 438.921875 180.535156 496.132812 232.574219 566.699219 232.574219 C 637.269531 232.574219 694.476562 180.535156 694.476562 116.34375 C 694.476562 52.148438 637.269531 0.113281 566.699219 0.113281 Z M 566.699219 0.113281 "/></clipPath><clipPath id="b9b26574d4"><path d="M 235.402344 83.042969 L 491 83.042969 L 491 315.503906 L 235.402344 315.503906 Z M 235.402344 83.042969 "/></clipPath><clipPath id="655fb4db64"><path d="M 363.179688 83.042969 C 292.609375 83.042969 235.402344 135.082031 235.402344 199.273438 C 235.402344 263.464844 292.609375 315.503906 363.179688 315.503906 C 433.75 315.503906 490.957031 263.464844 490.957031 199.273438 C 490.957031 135.082031 433.75 83.042969 363.179688 83.042969 Z M 363.179688 83.042969 "/></clipPath><clipPath id="c9584fe82c"><path d="M 109.988281 157.257812 L 310.808594 157.257812 L 310.808594 372 L 109.988281 372 Z M 109.988281 157.257812 "/></clipPath><clipPath id="a8313bd0ff"><path d="M 210.398438 157.257812 C 154.945312 157.257812 109.988281 205.226562 109.988281 264.398438 C 109.988281 323.574219 154.945312 371.542969 210.398438 371.542969 C 265.851562 371.542969 310.808594 323.574219 310.808594 264.398438 C 310.808594 205.226562 265.851562 157.257812 210.398438 157.257812 Z M 210.398438 157.257812 "/></clipPath><clipPath id="f488df16b5"><path d="M 0 205.785156 L 219.980469 205.785156 L 219.980469 438.390625 L 0 438.390625 Z M 0 205.785156 "/></clipPath><clipPath id="34c32ff8d2"><path d="M 109.988281 205.785156 C 49.246094 205.785156 0 257.824219 0 322.015625 C 0 386.210938 49.246094 438.246094 109.988281 438.246094 C 170.734375 438.246094 219.980469 386.210938 219.980469 322.015625 C 219.980469 257.824219 170.734375 205.785156 109.988281 205.785156 Z M 109.988281 205.785156 "/></clipPath><clipPath id="ba2b337050"><path d="M 162.488281 221.828125 L 169.484375 221.828125 L 169.484375 228.828125 L 162.488281 228.828125 Z M 162.488281 221.828125 "/></clipPath><clipPath id="268cdbaa0c"><path d="M 165.988281 221.828125 C 164.054688 221.828125 162.488281 223.394531 162.488281 225.328125 C 162.488281 227.257812 164.054688 228.828125 165.988281 228.828125 C 167.917969 228.828125 169.484375 227.257812 169.484375 225.328125 C 169.484375 223.394531 167.917969 221.828125 165.988281 221.828125 Z M 165.988281 221.828125 "/></clipPath><clipPath id="0180ccca8d"><path d="M 183.292969 184.964844 L 190.292969 184.964844 L 190.292969 191.964844 L 183.292969 191.964844 Z M 183.292969 184.964844 "/></clipPath><clipPath id="d0c51c3e88"><path d="M 186.792969 184.964844 C 184.859375 184.964844 183.292969 186.53125 183.292969 188.464844 C 183.292969 190.398438 184.859375 191.964844 186.792969 191.964844 C 188.726562 191.964844 190.292969 190.398438 190.292969 188.464844 C 190.292969 186.53125 188.726562 184.964844 186.792969 184.964844 Z M 186.792969 184.964844 "/></clipPath><clipPath id="ef15bd35ca"><path d="M 274.753906 149.507812 L 281.753906 149.507812 L 281.753906 156.507812 L 274.753906 156.507812 Z M 274.753906 149.507812 "/></clipPath><clipPath id="26d929cea6"><path d="M 278.253906 149.507812 C 276.320312 149.507812 274.753906 151.074219 274.753906 153.007812 C 274.753906 154.941406 276.320312 156.507812 278.253906 156.507812 C 280.1875 156.507812 281.753906 154.941406 281.753906 153.007812 C 281.753906 151.074219 280.1875 149.507812 278.253906 149.507812 Z M 278.253906 149.507812 "/></clipPath><clipPath id="098bbce7fe"><path d="M 260.1875 184.964844 L 267.1875 184.964844 L 267.1875 191.964844 L 260.1875 191.964844 Z M 260.1875 184.964844 "/></clipPath><clipPath id="6c3b7cba4e"><path d="M 263.6875 184.964844 C 261.753906 184.964844 260.1875 186.53125 260.1875 188.464844 C 260.1875 190.398438 261.753906 191.964844 263.6875 191.964844 C 265.621094 191.964844 267.1875 190.398438 267.1875 188.464844 C 267.1875 186.53125 265.621094 184.964844 263.6875 184.964844 Z M 263.6875 184.964844 "/></clipPath><clipPath id="c53b541e85"><path d="M 511.425781 34.085938 L 518.425781 34.085938 L 518.425781 41.085938 L 511.425781 41.085938 Z M 511.425781 34.085938 "/></clipPath><clipPath id="394af97e8e"><path d="M 514.925781 34.085938 C 512.992188 34.085938 511.425781 35.652344 511.425781 37.585938 C 511.425781 39.519531 512.992188 41.085938 514.925781 41.085938 C 516.859375 41.085938 518.425781 39.519531 518.425781 37.585938 C 518.425781 35.652344 516.859375 34.085938 514.925781 34.085938 Z M 514.925781 34.085938 "/></clipPath><clipPath id="2b708cfd17"><path d="M 544.597656 75.292969 L 551.597656 75.292969 L 551.597656 82.292969 L 544.597656 82.292969 Z M 544.597656 75.292969 "/></clipPath><clipPath id="282c1b1ac5"><path d="M 548.097656 75.292969 C 546.164062 75.292969 544.597656 76.863281 544.597656 78.792969 C 544.597656 80.726562 546.164062 82.292969 548.097656 82.292969 C 550.03125 82.292969 551.597656 80.726562 551.597656 78.792969 C 551.597656 76.863281 550.03125 75.292969 548.097656 75.292969 Z M 548.097656 75.292969 "/></clipPath><clipPath id="ed9c9c269e"><path d="M 604.160156 45.582031 L 611.160156 45.582031 L 611.160156 52.582031 L 604.160156 52.582031 Z M 604.160156 45.582031 "/></clipPath><clipPath id="5498507c84"><path d="M 607.660156 45.582031 C 605.726562 45.582031 604.160156 47.148438 604.160156 49.082031 C 604.160156 51.015625 605.726562 52.582031 607.660156 52.582031 C 609.59375 52.582031 611.160156 51.015625 611.160156 49.082031 C 611.160156 47.148438 609.59375 45.582031 607.660156 45.582031 Z M 607.660156 45.582031 "/></clipPath><clipPath id="b5b7a9f02b"><path d="M 205.171875 174.546875 L 244 174.546875 L 244 213.507812 L 205.171875 213.507812 Z M 205.171875 174.546875 "/></clipPath><clipPath id="999451bba3"><path d="M 545 22 L 584 22 L 584 62 L 545 62 Z M 545 22 "/></clipPath><clipPath id="eb496eaac3"><path d="M 561.945312 13.957031 L 593.800781 36.382812 L 571.378906 68.238281 L 539.523438 45.816406 Z M 561.945312 13.957031 "/></clipPath><clipPath id="7c230fd4e8"><path d="M 561.945312 13.957031 L 593.800781 36.382812 L 571.378906 68.238281 L 539.523438 45.816406 Z M 561.945312 13.957031 "/></clipPath><clipPath id="a5e65df404"><path d="M 546 24 L 583 24 L 583 60 L 546 60 Z M 546 24 "/></clipPath><clipPath id="22f5d4d356"><path d="M 561.945312 13.957031 L 593.800781 36.382812 L 571.378906 68.238281 L 539.523438 45.816406 Z M 561.945312 13.957031 "/></clipPath><clipPath id="17a867a93f"><path d="M 561.945312 13.957031 L 593.800781 36.382812 L 571.378906 68.238281 L 539.523438 45.816406 Z M 561.945312 13.957031 "/></clipPath></defs><g id="98687d7da2"><g clip-rule="nonzero" clip-path="url(#9374f6677c)"><g clip-rule="nonzero" clip-path="url(#f48a34ce3a)"><path style=" stroke:none;fill-rule:nonzero;fill:#b182a6;fill-opacity:1;" d="M 438.921875 0.113281 L 694.085938 0.113281 L 694.085938 232.574219 L 438.921875 232.574219 Z M 438.921875 0.113281 "/></g></g><g clip-rule="nonzero" clip-path="url(#b9b26574d4)"><g clip-rule="nonzero" clip-path="url(#655fb4db64)"><path style=" stroke:none;fill-rule:nonzero;fill:#b182a6;fill-opacity:1;" d="M 235.402344 83.042969 L 490.566406 83.042969 L 490.566406 315.503906 L 235.402344 315.503906 Z M 235.402344 83.042969 "/></g></g><g clip-rule="nonzero" clip-path="url(#c9584fe82c)"><g clip-rule="nonzero" clip-path="url(#a8313bd0ff)"><path style=" stroke:none;fill-rule:nonzero;fill:#b182a6;fill-opacity:1;" d="M 109.988281 157.257812 L 310.808594 157.257812 L 310.808594 371.410156 L 109.988281 371.410156 Z M 109.988281 157.257812 "/></g></g><g clip-rule="nonzero" clip-path="url(#f488df16b5)"><g clip-rule="nonzero" clip-path="url(#34c32ff8d2)"><path style=" stroke:none;fill-rule:nonzero;fill:#b182a6;fill-opacity:1;" d="M 0 205.785156 L 219.980469 205.785156 L 219.980469 438.65625 L 0 438.65625 Z M 0 205.785156 "/></g></g><g clip-rule="nonzero" clip-path="url(#ba2b337050)"><g clip-rule="nonzero" clip-path="url(#268cdbaa0c)"><path style=" stroke:none;fill-rule:nonzero;fill:#d39fb9;fill-opacity:1;" d="M 162.488281 221.828125 L 169.484375 221.828125 L 169.484375 228.828125 L 162.488281 228.828125 Z M 162.488281 221.828125 "/></g></g><g clip-rule="nonzero" clip-path="url(#0180ccca8d)"><g clip-rule="nonzero" clip-path="url(#d0c51c3e88)"><path style=" stroke:none;fill-rule:nonzero;fill:#d39fb9;fill-opacity:1;" d="M 183.292969 184.964844 L 190.292969 184.964844 L 190.292969 191.964844 L 183.292969 191.964844 Z M 183.292969 184.964844 "/></g></g><g clip-rule="nonzero" clip-path="url(#ef15bd35ca)"><g clip-rule="nonzero" clip-path="url(#26d929cea6)"><path style=" stroke:none;fill-rule:nonzero;fill:#d39fb9;fill-opacity:1;" d="M 274.753906 149.507812 L 281.753906 149.507812 L 281.753906 156.507812 L 274.753906 156.507812 Z M 274.753906 149.507812 "/></g></g><g clip-rule="nonzero" clip-path="url(#098bbce7fe)"><g clip-rule="nonzero" clip-path="url(#6c3b7cba4e)"><path style=" stroke:none;fill-rule:nonzero;fill:#d39fb9;fill-opacity:1;" d="M 260.1875 184.964844 L 267.1875 184.964844 L 267.1875 191.964844 L 260.1875 191.964844 Z M 260.1875 184.964844 "/></g></g><g clip-rule="nonzero" clip-path="url(#c53b541e85)"><g clip-rule="nonzero" clip-path="url(#394af97e8e)"><path style=" stroke:none;fill-rule:nonzero;fill:#d39fb9;fill-opacity:1;" d="M 511.425781 34.085938 L 518.425781 34.085938 L 518.425781 41.085938 L 511.425781 41.085938 Z M 511.425781 34.085938 "/></g></g><g clip-rule="nonzero" clip-path="url(#2b708cfd17)"><g clip-rule="nonzero" clip-path="url(#282c1b1ac5)"><path style=" stroke:none;fill-rule:nonzero;fill:#d39fb9;fill-opacity:1;" d="M 544.597656 75.292969 L 551.597656 75.292969 L 551.597656 82.292969 L 544.597656 82.292969 Z M 544.597656 75.292969 "/></g></g><g clip-rule="nonzero" clip-path="url(#ed9c9c269e)"><g clip-rule="nonzero" clip-path="url(#5498507c84)"><path style=" stroke:none;fill-rule:nonzero;fill:#d39fb9;fill-opacity:1;" d="M 604.160156 45.582031 L 611.160156 45.582031 L 611.160156 52.582031 L 604.160156 52.582031 Z M 604.160156 45.582031 "/></g></g><g clip-rule="nonzero" clip-path="url(#b5b7a9f02b)"><path style=" stroke:none;fill-rule:nonzero;fill:#f7d886;fill-opacity:1;" d="M 230.953125 213.367188 C 230.019531 213.367188 229.148438 212.988281 228.5 212.292969 L 221.902344 205.289062 C 221.820312 205.203125 221.71875 205.1875 221.667969 205.1875 C 221.617188 205.1875 221.574219 205.199219 221.527344 205.21875 L 212.832031 209.328125 C 212.367188 209.546875 211.875 209.660156 211.375 209.660156 C 210.191406 209.660156 209.070312 209.015625 208.457031 207.976562 C 207.84375 206.945312 207.828125 205.695312 208.410156 204.628906 L 213.035156 196.195312 C 213.101562 196.074219 213.078125 195.925781 212.988281 195.820312 L 206.390625 188.820312 C 205.449219 187.816406 205.199219 186.414062 205.738281 185.15625 C 206.277344 183.90625 207.496094 183.097656 208.835938 183.097656 C 210.175781 183.097656 209.273438 183.121094 209.492188 183.160156 L 218.9375 184.945312 C 218.960938 184.945312 218.980469 184.953125 219 184.953125 C 219.117188 184.953125 219.226562 184.886719 219.28125 184.78125 L 223.902344 176.347656 C 224.507812 175.246094 225.613281 174.585938 226.867188 174.585938 C 228.121094 174.585938 230.023438 175.835938 230.246094 177.550781 L 231.464844 187.089844 C 231.476562 187.230469 231.585938 187.339844 231.722656 187.367188 L 241.175781 189.152344 C 242.644531 189.429688 243.71875 190.570312 243.910156 192.054688 C 244.097656 193.539062 243.347656 194.917969 241.996094 195.550781 L 233.300781 199.660156 C 233.171875 199.722656 233.101562 199.855469 233.117188 199.992188 L 234.335938 209.53125 C 234.460938 210.519531 234.175781 211.460938 233.53125 212.195312 C 232.875 212.9375 231.9375 213.363281 230.953125 213.363281 Z M 233.550781 212.214844 C 234.203125 211.476562 234.488281 210.527344 234.359375 209.53125 L 233.140625 199.992188 C 233.125 199.867188 233.191406 199.742188 233.3125 199.6875 L 242.007812 195.578125 C 243.371094 194.929688 244.128906 193.550781 243.9375 192.050781 C 243.742188 190.550781 242.660156 189.402344 241.183594 189.121094 L 231.730469 187.335938 C 231.601562 187.3125 231.507812 187.207031 231.488281 187.082031 L 230.269531 177.539062 C 230.050781 175.816406 228.617188 174.5625 226.867188 174.5625 C 225.117188 174.5625 224.492188 175.226562 223.882812 176.339844 L 219.261719 184.773438 C 219.199219 184.886719 219.078125 184.945312 218.945312 184.921875 L 209.496094 183.132812 C 209.277344 183.09375 209.054688 183.074219 208.835938 183.074219 C 207.484375 183.074219 206.261719 183.886719 205.71875 185.144531 C 205.171875 186.414062 205.421875 187.828125 206.375 188.835938 L 212.972656 195.835938 C 213.058594 195.929688 213.078125 196.066406 213.019531 196.183594 L 208.394531 204.621094 C 207.808594 205.691406 207.828125 206.953125 208.441406 207.992188 C 209.0625 209.042969 210.1875 209.691406 211.378906 209.691406 C 212.574219 209.691406 212.378906 209.578125 212.855469 209.355469 L 221.550781 205.246094 C 221.589844 205.222656 221.632812 205.214844 221.675781 205.214844 C 221.722656 205.214844 221.816406 205.222656 221.890625 205.304688 L 228.488281 212.308594 C 229.144531 213.003906 230.023438 213.386719 230.960938 213.386719 C 231.898438 213.386719 232.902344 212.957031 233.5625 212.210938 Z M 221.523438 205.199219 L 212.828125 209.308594 C 212.363281 209.527344 211.875 209.640625 211.378906 209.640625 C 210.203125 209.640625 209.097656 209 208.484375 207.96875 C 207.875 206.945312 207.859375 205.699219 208.4375 204.644531 L 213.058594 196.210938 C 213.128906 196.078125 213.109375 195.914062 213.007812 195.808594 L 206.410156 188.804688 C 205.472656 187.8125 205.226562 186.414062 205.765625 185.167969 C 206.304688 183.929688 207.507812 183.125 208.835938 183.125 C 210.167969 183.125 209.273438 183.144531 209.488281 183.1875 L 218.933594 184.972656 C 219.085938 185.003906 219.230469 184.925781 219.304688 184.796875 L 223.925781 176.363281 C 224.523438 175.269531 225.625 174.613281 226.863281 174.613281 C 228.101562 174.613281 230 175.851562 230.214844 177.554688 L 231.433594 187.097656 C 231.453125 187.246094 231.566406 187.367188 231.714844 187.394531 L 241.167969 189.179688 C 242.625 189.457031 243.691406 190.585938 243.878906 192.058594 C 244.070312 193.535156 243.320312 194.894531 241.976562 195.53125 L 233.28125 199.640625 C 233.140625 199.707031 233.066406 199.851562 233.085938 200 L 234.304688 209.539062 C 234.425781 210.515625 234.144531 211.453125 233.511719 212.179688 C 232.859375 212.917969 231.929688 213.335938 230.945312 213.335938 C 229.964844 213.335938 229.160156 212.957031 228.515625 212.269531 L 221.917969 205.269531 C 221.824219 205.171875 221.71875 205.164062 221.664062 205.164062 C 221.605469 205.164062 221.558594 205.171875 221.515625 205.199219 Z M 221.523438 205.199219 "/></g><path style=" stroke:none;fill-rule:nonzero;fill:#f7d886;fill-opacity:1;" d="M 241.371094 194.300781 L 232.675781 198.410156 C 231.949219 198.753906 231.523438 199.527344 231.625 200.324219 L 232.84375 209.867188 C 233.074219 211.652344 230.886719 212.6875 229.652344 211.375 L 223.054688 204.375 C 222.5 203.789062 221.636719 203.628906 220.910156 203.96875 L 212.214844 208.078125 C 210.585938 208.847656 208.929688 207.085938 209.792969 205.511719 L 209.886719 205.347656 L 214.414062 197.074219 C 214.804688 196.371094 214.691406 195.496094 214.140625 194.910156 L 207.542969 187.90625 C 206.308594 186.59375 207.46875 184.46875 209.242188 184.808594 L 218.695312 186.59375 C 219.480469 186.742188 220.28125 186.371094 220.667969 185.664062 L 225.289062 177.230469 C 226.15625 175.652344 228.535156 176.101562 228.761719 177.882812 L 229.980469 187.421875 C 230.082031 188.222656 230.683594 188.863281 231.472656 189.015625 L 236.96875 190.054688 L 240.921875 190.800781 C 242.6875 191.132812 242.992188 193.539062 241.371094 194.308594 Z M 241.371094 194.300781 "/><g clip-rule="nonzero" clip-path="url(#999451bba3)"><g clip-rule="nonzero" clip-path="url(#eb496eaac3)"><g clip-rule="nonzero" clip-path="url(#7c230fd4e8)"><path style=" stroke:none;fill-rule:nonzero;fill:#f7d886;fill-opacity:1;" d="M 560.683594 60.539062 C 559.921875 60.003906 559.429688 59.195312 559.296875 58.25 L 557.933594 48.726562 C 557.914062 48.609375 557.839844 48.539062 557.796875 48.507812 C 557.757812 48.480469 557.71875 48.464844 557.667969 48.453125 L 548.191406 46.808594 C 547.683594 46.722656 547.21875 46.53125 546.808594 46.242188 C 545.839844 45.5625 545.296875 44.390625 545.390625 43.1875 C 545.484375 41.988281 546.191406 40.957031 547.28125 40.421875 L 555.914062 36.1875 C 556.039062 36.125 556.105469 35.992188 556.089844 35.855469 L 554.726562 26.332031 C 554.53125 24.96875 555.136719 23.679688 556.304688 22.960938 C 557.460938 22.25 558.921875 22.289062 560.019531 23.058594 C 561.117188 23.832031 560.363281 23.328125 560.519531 23.488281 L 567.21875 30.386719 C 567.234375 30.398438 567.25 30.414062 567.265625 30.425781 C 567.363281 30.492188 567.488281 30.5 567.59375 30.449219 L 576.226562 26.210938 C 577.355469 25.660156 578.636719 25.757812 579.664062 26.476562 C 580.6875 27.199219 581.527344 29.316406 580.71875 30.84375 L 576.226562 39.347656 C 576.15625 39.46875 576.179688 39.625 576.28125 39.722656 L 582.980469 46.625 C 584.023438 47.695312 584.246094 49.25 583.546875 50.570312 C 582.847656 51.894531 581.4375 52.585938 579.96875 52.328125 L 570.492188 50.683594 C 570.351562 50.660156 570.21875 50.726562 570.152344 50.851562 L 565.65625 59.351562 C 565.191406 60.234375 564.414062 60.839844 563.46875 61.066406 C 562.503906 61.296875 561.492188 61.105469 560.6875 60.535156 Z M 563.472656 61.09375 C 564.429688 60.867188 565.210938 60.253906 565.675781 59.367188 L 570.171875 50.863281 C 570.234375 50.75 570.359375 50.6875 570.488281 50.710938 L 579.960938 52.355469 C 581.453125 52.613281 582.867188 51.921875 583.570312 50.582031 C 584.273438 49.242188 584.050781 47.683594 583.003906 46.601562 L 576.300781 39.703125 C 576.210938 39.605469 576.195312 39.46875 576.25 39.355469 L 580.746094 30.851562 C 581.558594 29.316406 581.109375 27.464844 579.675781 26.457031 C 578.246094 25.449219 577.351562 25.632812 576.214844 26.191406 L 567.582031 30.429688 C 567.464844 30.484375 567.332031 30.464844 567.238281 30.367188 L 560.539062 23.46875 C 560.382812 23.308594 560.214844 23.167969 560.035156 23.039062 C 558.929688 22.261719 557.460938 22.222656 556.292969 22.941406 C 555.113281 23.664062 554.507812 24.960938 554.703125 26.335938 L 556.070312 35.859375 C 556.085938 35.984375 556.023438 36.109375 555.90625 36.167969 L 547.273438 40.40625 C 546.175781 40.941406 545.464844 41.988281 545.371094 43.191406 C 545.273438 44.40625 545.820312 45.585938 546.792969 46.269531 C 547.769531 46.957031 547.675781 46.753906 548.195312 46.84375 L 557.667969 48.488281 C 557.714844 48.492188 557.753906 48.507812 557.792969 48.535156 C 557.828125 48.5625 557.898438 48.625 557.914062 48.734375 L 559.28125 58.257812 C 559.414062 59.203125 559.914062 60.023438 560.679688 60.5625 C 561.445312 61.101562 562.511719 61.328125 563.484375 61.097656 Z M 557.675781 48.433594 L 548.199219 46.789062 C 547.691406 46.703125 547.230469 46.515625 546.824219 46.230469 C 545.859375 45.550781 545.324219 44.390625 545.417969 43.195312 C 545.507812 42.003906 546.210938 40.980469 547.292969 40.449219 L 555.925781 36.214844 C 556.0625 36.144531 556.136719 36 556.117188 35.851562 L 554.75 26.332031 C 554.558594 24.980469 555.160156 23.695312 556.316406 22.984375 C 557.46875 22.28125 558.917969 22.316406 560.003906 23.082031 C 561.09375 23.847656 560.347656 23.347656 560.5 23.503906 L 567.199219 30.402344 C 567.308594 30.515625 567.46875 30.539062 567.601562 30.472656 L 576.234375 26.238281 C 577.355469 25.683594 578.632812 25.78125 579.644531 26.496094 C 580.65625 27.207031 581.496094 29.316406 580.691406 30.832031 L 576.195312 39.335938 C 576.128906 39.46875 576.148438 39.632812 576.257812 39.738281 L 582.957031 46.640625 C 583.992188 47.707031 584.210938 49.242188 583.519531 50.558594 C 582.824219 51.871094 581.429688 52.554688 579.964844 52.300781 L 570.488281 50.65625 C 570.335938 50.628906 570.191406 50.703125 570.121094 50.835938 L 565.628906 59.339844 C 565.164062 60.210938 564.398438 60.8125 563.460938 61.042969 C 562.503906 61.269531 561.5 61.078125 560.695312 60.511719 C 559.894531 59.945312 559.453125 59.175781 559.320312 58.242188 L 557.957031 48.71875 C 557.9375 48.585938 557.855469 48.515625 557.808594 48.484375 C 557.761719 48.453125 557.71875 48.433594 557.667969 48.429688 Z M 557.675781 48.433594 "/></g></g></g><g clip-rule="nonzero" clip-path="url(#a5e65df404)"><g clip-rule="nonzero" clip-path="url(#22f5d4d356)"><g clip-rule="nonzero" clip-path="url(#17a867a93f)"><path style=" stroke:none;fill-rule:nonzero;fill:#f7d886;fill-opacity:1;" d="M 580.175781 50.949219 L 570.699219 49.304688 C 569.910156 49.164062 569.117188 49.554688 568.742188 50.265625 L 564.246094 58.769531 C 563.40625 60.359375 561.019531 59.945312 560.765625 58.164062 L 559.402344 48.640625 C 559.285156 47.847656 558.671875 47.214844 557.878906 47.078125 L 548.402344 45.433594 C 546.632812 45.125 546.289062 42.730469 547.902344 41.9375 L 548.074219 41.859375 L 556.535156 37.699219 C 557.261719 37.347656 557.671875 36.566406 557.558594 35.773438 L 556.195312 26.246094 C 555.941406 24.464844 558.113281 23.394531 559.367188 24.691406 L 566.070312 31.59375 C 566.628906 32.167969 567.496094 32.320312 568.21875 31.96875 L 576.855469 27.730469 C 578.46875 26.9375 580.15625 28.675781 579.316406 30.261719 L 574.820312 38.765625 C 574.445312 39.476562 574.570312 40.347656 575.125 40.925781 L 579.023438 44.941406 L 581.824219 47.824219 C 583.078125 49.113281 581.941406 51.257812 580.175781 50.953125 Z M 580.175781 50.949219 "/></g></g></g></g></svg>