<svg xmlns="http://www.w3.org/2000/svg" xmlns:xlink="http://www.w3.org/1999/xlink" width="483" zoomAndPan="magnify" viewBox="0 0 362.25 371.249986" height="495" preserveAspectRatio="xMidYMid meet" version="1.2"><defs><clipPath id="de7c5806fb"><path d="M 49 47 L 312 47 L 312 323 L 49 323 Z M 49 47 "/></clipPath><clipPath id="735657a607"><path d="M 137.835938 0.0078125 L 360.933594 126.242188 L 222.867188 370.253906 L -0.230469 244.023438 Z M 137.835938 0.0078125 "/></clipPath><clipPath id="372a20bc54"><path d="M 249.382812 63.125 C 187.777344 28.265625 106.980469 54.542969 68.917969 121.8125 C 30.855469 189.082031 49.941406 271.875 111.546875 306.730469 C 173.15625 341.589844 253.953125 315.3125 292.015625 248.042969 C 330.078125 180.773438 310.992188 97.984375 249.382812 63.125 Z M 249.382812 63.125 "/></clipPath><clipPath id="399e62070d"><path d="M 123.433594 116.699219 L 130.425781 116.699219 L 130.425781 123.691406 L 123.433594 123.691406 Z M 123.433594 116.699219 "/></clipPath><clipPath id="d11ce74ab9"><path d="M 126.929688 116.699219 C 125 116.699219 123.433594 118.261719 123.433594 120.195312 C 123.433594 122.125 125 123.691406 126.929688 123.691406 C 128.859375 123.691406 130.425781 122.125 130.425781 120.195312 C 130.425781 118.261719 128.859375 116.699219 126.929688 116.699219 Z M 126.929688 116.699219 "/></clipPath><clipPath id="506f94b8b5"><path d="M 187.203125 103.71875 L 194.195312 103.71875 L 194.195312 110.710938 L 187.203125 110.710938 Z M 187.203125 103.71875 "/></clipPath><clipPath id="1e25923863"><path d="M 190.699219 103.71875 C 188.769531 103.71875 187.203125 105.285156 187.203125 107.214844 C 187.203125 109.144531 188.769531 110.710938 190.699219 110.710938 C 192.628906 110.710938 194.195312 109.144531 194.195312 107.214844 C 194.195312 105.285156 192.628906 103.71875 190.699219 103.71875 Z M 190.699219 103.71875 "/></clipPath><clipPath id="2a4ede200c"><path d="M 154.375 128.679688 L 161.367188 128.679688 L 161.367188 135.671875 L 154.375 135.671875 Z M 154.375 128.679688 "/></clipPath><clipPath id="062982137e"><path d="M 157.871094 128.679688 C 155.941406 128.679688 154.375 130.246094 154.375 132.175781 C 154.375 134.109375 155.941406 135.671875 157.871094 135.671875 C 159.804688 135.671875 161.367188 134.109375 161.367188 132.175781 C 161.367188 130.246094 159.804688 128.679688 157.871094 128.679688 Z M 157.871094 128.679688 "/></clipPath></defs><g id="5a3d922a86"><g clip-rule="nonzero" clip-path="url(#de7c5806fb)"><g clip-rule="nonzero" clip-path="url(#735657a607)"><g clip-rule="nonzero" clip-path="url(#372a20bc54)"><path style=" stroke:none;fill-rule:nonzero;fill:#7572a9;fill-opacity:1;" d="M 137.835938 0.0078125 L 360.933594 126.242188 L 222.867188 370.253906 L -0.230469 244.023438 Z M 137.835938 0.0078125 "/></g></g></g><g clip-rule="nonzero" clip-path="url(#399e62070d)"><g clip-rule="nonzero" clip-path="url(#d11ce74ab9)"><path style=" stroke:none;fill-rule:nonzero;fill:#a897c2;fill-opacity:1;" d="M 123.433594 116.699219 L 130.425781 116.699219 L 130.425781 123.691406 L 123.433594 123.691406 Z M 123.433594 116.699219 "/></g></g><g clip-rule="nonzero" clip-path="url(#506f94b8b5)"><g clip-rule="nonzero" clip-path="url(#1e25923863)"><path style=" stroke:none;fill-rule:nonzero;fill:#a897c2;fill-opacity:1;" d="M 187.203125 103.71875 L 194.195312 103.71875 L 194.195312 110.710938 L 187.203125 110.710938 Z M 187.203125 103.71875 "/></g></g><g clip-rule="nonzero" clip-path="url(#2a4ede200c)"><g clip-rule="nonzero" clip-path="url(#062982137e)"><path style=" stroke:none;fill-rule:nonzero;fill:#a897c2;fill-opacity:1;" d="M 154.375 128.679688 L 161.367188 128.679688 L 161.367188 135.671875 L 154.375 135.671875 Z M 154.375 128.679688 "/></g></g></g></svg>