<svg xmlns="http://www.w3.org/2000/svg" xmlns:xlink="http://www.w3.org/1999/xlink" width="1105" zoomAndPan="magnify" viewBox="0 0 828.75 741.75" height="989" preserveAspectRatio="xMidYMid meet" version="1.2"><defs><clipPath id="f346467a51"><path d="M 0.015625 0 L 828 0 L 828 740.957031 L 0.015625 740.957031 Z M 0.015625 0 "/></clipPath><clipPath id="d4d265b150"><path d="M 414.109375 0 C 185.410156 0 0.015625 165.867188 0.015625 370.476562 C 0.015625 575.085938 185.410156 740.957031 414.109375 740.957031 C 642.808594 740.957031 828.203125 575.085938 828.203125 370.476562 C 828.203125 165.867188 642.808594 0 414.109375 0 Z M 414.109375 0 "/></clipPath><clipPath id="1b91c92504"><path d="M 0.015625 0 L 828 0 L 828 740.75 L 0.015625 740.75 Z M 0.015625 0 "/></clipPath><clipPath id="e5a07aabb7"><path d="M 413.992188 0 C 185.359375 0 0.015625 165.824219 0.015625 370.375 C 0.015625 574.925781 185.359375 740.75 413.992188 740.75 C 642.625 740.75 827.96875 574.925781 827.96875 370.375 C 827.96875 165.824219 642.625 0 413.992188 0 Z M 413.992188 0 "/></clipPath><clipPath id="274171b7f0"><path d="M 220 55 L 315 55 L 315 121 L 220 121 Z M 220 55 "/></clipPath><clipPath id="8f71b67624"><path d="M 303.839844 44.136719 L 323.25 100.753906 L 230.804688 132.445312 L 211.394531 75.832031 Z M 303.839844 44.136719 "/></clipPath><clipPath id="56dd39c291"><path d="M 313.542969 72.445312 C 308.183594 56.8125 283.179688 51.222656 257.691406 59.957031 C 232.207031 68.695312 215.890625 88.453125 221.25 104.085938 C 226.609375 119.722656 251.617188 125.3125 277.101562 116.574219 C 302.589844 107.835938 318.902344 88.082031 313.542969 72.445312 Z M 313.542969 72.445312 "/></clipPath><clipPath id="4f0d2e649e"><path d="M 220 55 L 315 55 L 315 121 L 220 121 Z M 220 55 "/></clipPath><clipPath id="bf067818fb"><path d="M 303.839844 44.136719 L 323.289062 100.875 L 231.089844 132.484375 L 211.640625 75.746094 Z M 303.839844 44.136719 "/></clipPath><clipPath id="78552b52c9"><path d="M 303.839844 44.140625 L 323.25 100.761719 L 228.878906 133.113281 L 209.46875 76.492188 Z M 303.839844 44.140625 "/></clipPath><clipPath id="d0cbbe569d"><path d="M 313.535156 72.417969 C 308.179688 56.800781 283.199219 51.214844 257.738281 59.945312 C 232.28125 68.671875 215.980469 88.410156 221.335938 104.027344 C 226.691406 119.644531 251.671875 125.230469 277.128906 116.503906 C 302.589844 107.773438 318.890625 88.035156 313.535156 72.417969 Z M 313.535156 72.417969 "/></clipPath><clipPath id="4051529756"><path d="M 539 63 L 606 63 L 606 122 L 539 122 Z M 539 63 "/></clipPath><clipPath id="411b7179a7"><path d="M 615.660156 83.96875 L 590.957031 132.390625 L 528.917969 100.738281 L 553.621094 52.316406 Z M 615.660156 83.96875 "/></clipPath><clipPath id="ea329831f3"><path d="M 603.308594 108.179688 C 610.132812 94.808594 601.804688 76.898438 584.710938 68.179688 C 567.617188 59.457031 548.230469 63.226562 541.410156 76.597656 C 534.585938 89.96875 542.914062 107.878906 560.007812 116.597656 C 577.101562 125.320312 596.488281 121.550781 603.308594 108.179688 Z M 603.308594 108.179688 "/></clipPath><clipPath id="c993e7f187"><path d="M 539 63 L 606 63 L 606 122 L 539 122 Z M 539 63 "/></clipPath><clipPath id="87250bbd0b"><path d="M 615.660156 83.96875 L 590.785156 132.722656 L 528.679688 101.03125 L 553.550781 52.28125 Z M 615.660156 83.96875 "/></clipPath><clipPath id="67fccb9d03"><path d="M 615.660156 83.972656 L 590.609375 133.066406 L 527.261719 100.746094 L 552.3125 51.652344 Z M 615.660156 83.972656 "/></clipPath><clipPath id="b8e67cde4e"><path d="M 603.308594 108.179688 C 610.128906 94.808594 601.804688 76.902344 584.714844 68.183594 C 567.625 59.464844 548.242188 63.230469 541.417969 76.601562 C 534.597656 89.96875 542.921875 107.875 560.015625 116.597656 C 577.105469 125.316406 596.488281 121.546875 603.308594 108.179688 Z M 603.308594 108.179688 "/></clipPath><clipPath id="42b7c20b04"><path d="M 400 89 L 497 89 L 497 151 L 400 151 Z M 400 89 "/></clipPath><clipPath id="11569915ee"><path d="M 491.992188 83.226562 L 501.320312 142.347656 L 404.789062 157.578125 L 395.457031 98.460938 Z M 491.992188 83.226562 "/></clipPath><clipPath id="87746506b0"><path d="M 496.65625 112.789062 C 494.078125 96.460938 470.417969 86.632812 443.804688 90.832031 C 417.191406 95.03125 397.703125 111.667969 400.28125 127.996094 C 402.855469 144.320312 426.519531 154.152344 453.132812 149.953125 C 479.746094 145.753906 499.230469 129.113281 496.65625 112.789062 Z M 496.65625 112.789062 "/></clipPath><clipPath id="078f1273c9"><path d="M 400 89 L 497 89 L 497 151 L 400 151 Z M 400 89 "/></clipPath><clipPath id="a2aadeb2cc"><path d="M 491.992188 83.226562 L 501.339844 142.476562 L 405.0625 157.667969 L 395.714844 98.417969 Z M 491.992188 83.226562 "/></clipPath><clipPath id="c93c6dc72a"><path d="M 491.992188 83.230469 L 501.320312 142.355469 L 402.777344 157.90625 L 393.449219 98.777344 Z M 491.992188 83.230469 "/></clipPath><clipPath id="75a82dac3f"><path d="M 496.652344 112.757812 C 494.078125 96.449219 470.4375 86.628906 443.851562 90.824219 C 417.265625 95.019531 397.800781 111.640625 400.375 127.949219 C 402.949219 144.261719 426.585938 154.078125 453.171875 149.886719 C 479.757812 145.691406 499.222656 129.066406 496.652344 112.757812 Z M 496.652344 112.757812 "/></clipPath><clipPath id="b963baac27"><path d="M 335 85 L 375 85 L 375 125 L 335 125 Z M 335 85 "/></clipPath><clipPath id="40d4bd996d"><path d="M 352.402344 76.742188 L 384.28125 99.179688 L 361.84375 131.0625 L 329.960938 108.621094 Z M 352.402344 76.742188 "/></clipPath><clipPath id="e9cc46fa78"><path d="M 352.402344 76.742188 L 384.28125 99.179688 L 361.84375 131.0625 L 329.960938 108.621094 Z M 352.402344 76.742188 "/></clipPath><clipPath id="cc7c9c53cc"><path d="M 337 86 L 373 86 L 373 123 L 337 123 Z M 337 86 "/></clipPath><clipPath id="c921d299a0"><path d="M 352.402344 76.742188 L 384.28125 99.179688 L 361.84375 131.0625 L 329.960938 108.621094 Z M 352.402344 76.742188 "/></clipPath><clipPath id="ccacde4dea"><path d="M 352.402344 76.742188 L 384.28125 99.179688 L 361.84375 131.0625 L 329.960938 108.621094 Z M 352.402344 76.742188 "/></clipPath></defs><g id="37ff4d5983"><g clip-rule="nonzero" clip-path="url(#f346467a51)"><g clip-rule="nonzero" clip-path="url(#d4d265b150)"><path style=" stroke:none;fill-rule:nonzero;fill:#608fbc;fill-opacity:1;" d="M 0.015625 0 L 827.800781 0 L 827.800781 740.957031 L 0.015625 740.957031 Z M 0.015625 0 "/></g></g><g clip-rule="nonzero" clip-path="url(#1b91c92504)"><g clip-rule="nonzero" clip-path="url(#e5a07aabb7)"><path style="fill:none;stroke-width:22;stroke-linecap:butt;stroke-linejoin:miter;stroke:#382b41;stroke-opacity:1;stroke-miterlimit:4;" d="M 552.304543 -0.0024299 C 247.276053 -0.0024299 0.00129234 221.230517 0.00129234 494.130173 C 0.00129234 767.029829 247.276053 988.262776 552.304543 988.262776 C 857.333032 988.262776 1104.607793 767.029829 1104.607793 494.130173 C 1104.607793 221.230517 857.333032 -0.0024299 552.304543 -0.0024299 Z M 552.304543 -0.0024299 " transform="matrix(0.749546,0,0,0.749546,0.0146563,0.00182132)"/></g></g><g clip-rule="nonzero" clip-path="url(#274171b7f0)"><g clip-rule="nonzero" clip-path="url(#8f71b67624)"><g clip-rule="nonzero" clip-path="url(#56dd39c291)"><path style=" stroke:none;fill-rule:nonzero;fill:#5584b4;fill-opacity:1;" d="M 303.839844 44.136719 L 323.25 100.753906 L 231.027344 132.371094 L 211.617188 75.753906 Z M 303.839844 44.136719 "/></g></g></g><g clip-rule="nonzero" clip-path="url(#4f0d2e649e)"><g clip-rule="nonzero" clip-path="url(#bf067818fb)"><g clip-rule="nonzero" clip-path="url(#78552b52c9)"><g clip-rule="nonzero" clip-path="url(#d0cbbe569d)"><path style="fill:none;stroke-width:14;stroke-linecap:butt;stroke-linejoin:miter;stroke:#4576a6;stroke-opacity:1;stroke-miterlimit:4;" d="M 39.911176 -0.000585309 C 17.869352 0.00128765 -0.000722 29.13092 0.00153194 65.065765 C 0.000543872 100.993985 17.870665 130.126302 39.912489 130.124429 C 61.954312 130.122556 79.824386 100.992924 79.825374 65.064703 C 79.82312 29.129858 61.952999 -0.00245827 39.911176 -0.000585309 Z M 39.911176 -0.000585309 " transform="matrix(0.242908,0.708546,-0.708546,0.242908,303.839986,44.139213)"/></g></g></g></g><g clip-rule="nonzero" clip-path="url(#4051529756)"><g clip-rule="nonzero" clip-path="url(#411b7179a7)"><g clip-rule="nonzero" clip-path="url(#ea329831f3)"><path style=" stroke:none;fill-rule:nonzero;fill:#5584b4;fill-opacity:1;" d="M 615.660156 83.96875 L 590.957031 132.390625 L 529.105469 100.832031 L 553.8125 52.414062 Z M 615.660156 83.96875 "/></g></g></g><g clip-rule="nonzero" clip-path="url(#c993e7f187)"><g clip-rule="nonzero" clip-path="url(#87250bbd0b)"><g clip-rule="nonzero" clip-path="url(#67fccb9d03)"><g clip-rule="nonzero" clip-path="url(#b8e67cde4e)"><path style="fill:none;stroke-width:14;stroke-linecap:butt;stroke-linejoin:miter;stroke:#4576a6;stroke-opacity:1;stroke-miterlimit:4;" d="M 36.247189 0.000601918 C 16.226991 0.00288315 -0.000966051 20.747117 0.000070493 46.336264 C 0.00110704 71.925411 16.22446 92.670971 36.247027 92.67333 C 56.262584 92.673417 72.490541 71.929183 72.491777 46.333027 C 72.490741 20.74388 56.262747 0.000688583 36.247189 0.000601918 Z M 36.247189 0.000601918 " transform="matrix(-0.340748,0.667841,-0.667841,-0.340748,615.660141,83.972521)"/></g></g></g></g><g clip-rule="nonzero" clip-path="url(#42b7c20b04)"><g clip-rule="nonzero" clip-path="url(#11569915ee)"><g clip-rule="nonzero" clip-path="url(#87746506b0)"><path style=" stroke:none;fill-rule:nonzero;fill:#5584b4;fill-opacity:1;" d="M 491.992188 83.226562 L 501.320312 142.347656 L 405.019531 157.542969 L 395.691406 98.421875 Z M 491.992188 83.226562 "/></g></g></g><g clip-rule="nonzero" clip-path="url(#078f1273c9)"><g clip-rule="nonzero" clip-path="url(#a2aadeb2cc)"><g clip-rule="nonzero" clip-path="url(#c93c6dc72a)"><g clip-rule="nonzero" clip-path="url(#75a82dac3f)"><path style="fill:none;stroke-width:14;stroke-linecap:butt;stroke-linejoin:miter;stroke:#4576a6;stroke-opacity:1;stroke-miterlimit:4;" d="M 39.91058 -0.00275366 C 17.867978 -0.00166791 -0.00192914 29.130856 -0.00164474 65.064022 C -0.00136033 100.997188 17.867234 130.125109 39.909836 130.124023 C 61.957589 130.12375 79.821532 100.995565 79.826399 65.063212 C 79.826115 29.130045 61.952369 0.00131194 39.91058 -0.00275366 Z M 39.91058 -0.00275366 " transform="matrix(0.116747,0.739873,-0.739873,0.116747,491.990852,83.229383)"/></g></g></g></g><g clip-rule="nonzero" clip-path="url(#b963baac27)"><g clip-rule="nonzero" clip-path="url(#40d4bd996d)"><g clip-rule="nonzero" clip-path="url(#e9cc46fa78)"><path style=" stroke:none;fill-rule:nonzero;fill:#9ccfd3;fill-opacity:1;" d="M 351.140625 123.355469 C 350.375 122.820312 349.882812 122.007812 349.75 121.066406 L 348.386719 111.535156 C 348.367188 111.417969 348.292969 111.347656 348.253906 111.316406 C 348.210938 111.285156 348.171875 111.273438 348.121094 111.261719 L 338.636719 109.617188 C 338.128906 109.527344 337.664062 109.335938 337.253906 109.050781 C 336.285156 108.367188 335.738281 107.195312 335.835938 105.992188 C 335.929688 104.789062 336.636719 103.761719 337.726562 103.226562 L 346.367188 98.984375 C 346.492188 98.921875 346.558594 98.789062 346.542969 98.652344 L 345.175781 89.121094 C 344.984375 87.757812 345.585938 86.46875 346.753906 85.75 C 347.914062 85.035156 349.378906 85.078125 350.476562 85.847656 C 351.570312 86.621094 350.820312 86.117188 350.976562 86.277344 L 357.679688 93.179688 C 357.695312 93.191406 357.710938 93.207031 357.726562 93.21875 C 357.820312 93.289062 357.949219 93.296875 358.054688 93.242188 L 366.695312 89.003906 C 367.820312 88.449219 369.105469 88.546875 370.132812 89.269531 C 371.160156 89.992188 371.996094 92.109375 371.191406 93.640625 L 366.691406 102.148438 C 366.625 102.269531 366.648438 102.425781 366.746094 102.523438 L 373.453125 109.429688 C 374.496094 110.503906 374.71875 112.058594 374.019531 113.378906 C 373.320312 114.703125 371.910156 115.398438 370.4375 115.136719 L 360.957031 113.492188 C 360.816406 113.46875 360.679688 113.539062 360.613281 113.660156 L 356.117188 122.167969 C 355.652344 123.050781 354.875 123.65625 353.925781 123.882812 C 352.960938 124.113281 351.949219 123.921875 351.140625 123.351562 Z M 353.929688 123.910156 C 354.886719 123.683594 355.667969 123.070312 356.136719 122.183594 L 360.632812 113.675781 C 360.695312 113.5625 360.820312 113.5 360.949219 113.519531 L 370.433594 115.164062 C 371.921875 115.425781 373.339844 114.730469 374.042969 113.390625 C 374.746094 112.050781 374.523438 110.492188 373.476562 109.410156 L 366.769531 102.503906 C 366.679688 102.410156 366.664062 102.269531 366.71875 102.15625 L 371.21875 93.644531 C 372.03125 92.109375 371.578125 90.257812 370.148438 89.25 C 368.714844 88.238281 367.820312 88.425781 366.683594 88.984375 L 358.042969 93.222656 C 357.925781 93.28125 357.792969 93.257812 357.699219 93.164062 L 350.996094 86.257812 C 350.839844 86.097656 350.667969 85.953125 350.488281 85.828125 C 349.382812 85.050781 347.914062 85.011719 346.746094 85.730469 C 345.566406 86.453125 344.957031 87.753906 345.15625 89.125 L 346.523438 98.65625 C 346.539062 98.78125 346.476562 98.90625 346.359375 98.96875 L 337.71875 103.207031 C 336.621094 103.742188 335.910156 104.789062 335.8125 105.996094 C 335.714844 107.210938 336.261719 108.390625 337.238281 109.078125 C 338.214844 109.765625 338.121094 109.558594 338.640625 109.648438 L 348.125 111.292969 C 348.167969 111.300781 348.207031 111.316406 348.246094 111.34375 C 348.285156 111.371094 348.351562 111.429688 348.367188 111.542969 L 349.734375 121.070312 C 349.871094 122.019531 350.371094 122.839844 351.136719 123.378906 C 351.902344 123.917969 352.96875 124.144531 353.941406 123.914062 Z M 348.128906 111.242188 L 338.644531 109.597656 C 338.136719 109.507812 337.675781 109.320312 337.269531 109.035156 C 336.304688 108.355469 335.769531 107.195312 335.863281 105.996094 C 335.953125 104.808594 336.65625 103.78125 337.738281 103.253906 L 346.378906 99.011719 C 346.511719 98.945312 346.589844 98.796875 346.570312 98.652344 L 345.203125 89.121094 C 345.007812 87.769531 345.613281 86.484375 346.769531 85.773438 C 347.925781 85.070312 349.371094 85.105469 350.460938 85.871094 C 351.550781 86.636719 350.804688 86.136719 350.957031 86.292969 L 357.660156 93.199219 C 357.765625 93.3125 357.929688 93.332031 358.0625 93.269531 L 366.703125 89.027344 C 367.824219 88.476562 369.101562 88.574219 370.113281 89.289062 C 371.128906 90 371.96875 92.109375 371.164062 93.625 L 366.664062 102.136719 C 366.59375 102.269531 366.617188 102.433594 366.722656 102.539062 L 373.429688 109.445312 C 374.464844 110.511719 374.683594 112.050781 373.992188 113.367188 C 373.296875 114.683594 371.902344 115.367188 370.433594 115.109375 L 360.949219 113.464844 C 360.800781 113.441406 360.652344 113.511719 360.585938 113.644531 L 356.085938 122.15625 C 355.625 123.027344 354.855469 123.628906 353.917969 123.859375 C 352.960938 124.085938 351.957031 123.894531 351.152344 123.328125 C 350.347656 122.761719 349.910156 121.988281 349.777344 121.058594 L 348.410156 111.527344 C 348.390625 111.394531 348.308594 111.324219 348.261719 111.292969 C 348.214844 111.261719 348.171875 111.242188 348.121094 111.238281 Z M 348.128906 111.242188 "/></g></g></g><g clip-rule="nonzero" clip-path="url(#cc7c9c53cc)"><g clip-rule="nonzero" clip-path="url(#c921d299a0)"><g clip-rule="nonzero" clip-path="url(#ccacde4dea)"><path style=" stroke:none;fill-rule:nonzero;fill:#9ccfd3;fill-opacity:1;" d="M 370.648438 113.757812 L 361.164062 112.113281 C 360.371094 111.972656 359.578125 112.363281 359.203125 113.074219 L 354.707031 121.582031 C 353.863281 123.175781 351.476562 122.761719 351.222656 120.980469 L 349.855469 111.449219 C 349.738281 110.652344 349.125 110.019531 348.332031 109.882812 L 338.851562 108.238281 C 337.078125 107.929688 336.734375 105.53125 338.347656 104.742188 L 338.519531 104.660156 L 346.988281 100.5 C 347.714844 100.148438 348.125 99.367188 348.011719 98.570312 L 346.648438 89.035156 C 346.390625 87.253906 348.566406 86.183594 349.820312 87.480469 L 356.527344 94.386719 C 357.085938 94.960938 357.957031 95.117188 358.679688 94.761719 L 367.320312 90.523438 C 368.9375 89.730469 370.625 91.46875 369.785156 93.058594 L 365.285156 101.566406 C 364.910156 102.277344 365.035156 103.148438 365.59375 103.730469 L 369.492188 107.746094 L 372.296875 110.632812 C 373.546875 111.921875 372.414062 114.066406 370.644531 113.761719 Z M 370.648438 113.757812 "/></g></g></g></g></svg>