<svg xmlns="http://www.w3.org/2000/svg" xmlns:xlink="http://www.w3.org/1999/xlink" width="73" zoomAndPan="magnify" viewBox="0 0 54.75 54.75" height="73" preserveAspectRatio="xMidYMid meet" version="1.2"><defs><clipPath id="5794504934"><path d="M 7 5 L 46 5 L 46 45 L 7 45 Z M 7 5 "/></clipPath><clipPath id="b9b31ed35c"><path d="M 54.277344 23.085938 L 31.148438 54.269531 L -0.03125 31.140625 L 23.09375 -0.0390625 Z M 54.277344 23.085938 "/></clipPath><clipPath id="2d93031024"><path d="M 54.277344 23.085938 L 31.148438 54.269531 L -0.03125 31.140625 L 23.09375 -0.0390625 Z M 54.277344 23.085938 "/></clipPath><clipPath id="0ebf885ca0"><path d="M 8 7 L 45 7 L 45 43 L 8 43 Z M 8 7 "/></clipPath><clipPath id="b31298b044"><path d="M 54.277344 23.085938 L 31.148438 54.269531 L -0.03125 31.140625 L 23.09375 -0.0390625 Z M 54.277344 23.085938 "/></clipPath><clipPath id="1aa0370fdd"><path d="M 54.277344 23.085938 L 31.148438 54.269531 L -0.03125 31.140625 L 23.09375 -0.0390625 Z M 54.277344 23.085938 "/></clipPath></defs><g id="ef3753fd0f"><g clip-rule="nonzero" clip-path="url(#5794504934)"><g clip-rule="nonzero" clip-path="url(#b9b31ed35c)"><g clip-rule="nonzero" clip-path="url(#2d93031024)"><path style=" stroke:none;fill-rule:nonzero;fill:#f7d886;fill-opacity:1;" d="M 7.902344 20.675781 C 8.457031 19.929688 9.273438 19.460938 10.21875 19.351562 L 19.738281 18.226562 C 19.855469 18.214844 19.929688 18.140625 19.960938 18.101562 C 19.992188 18.058594 20.007812 18.019531 20.019531 17.972656 L 21.890625 8.570312 C 21.992188 8.070312 22.191406 7.609375 22.488281 7.207031 C 23.191406 6.261719 24.371094 5.746094 25.570312 5.871094 C 26.761719 5.992188 27.769531 6.722656 28.277344 7.820312 L 32.28125 16.527344 C 32.34375 16.652344 32.472656 16.726562 32.609375 16.710938 L 42.128906 15.589844 C 43.492188 15.429688 44.761719 16.0625 45.449219 17.242188 C 46.128906 18.414062 46.054688 19.871094 45.257812 20.945312 C 44.460938 22.015625 44.984375 21.28125 44.820312 21.429688 L 37.78125 27.933594 C 37.769531 27.949219 37.753906 27.960938 37.742188 27.980469 C 37.671875 28.074219 37.660156 28.199219 37.707031 28.304688 L 41.714844 37.011719 C 42.238281 38.148438 42.109375 39.425781 41.367188 40.429688 C 40.621094 41.429688 38.492188 42.214844 36.988281 41.371094 L 28.628906 36.683594 C 28.511719 36.613281 28.355469 36.632812 28.253906 36.730469 L 21.210938 43.234375 C 20.121094 44.246094 18.566406 44.429688 17.269531 43.699219 C 15.96875 42.96875 15.3125 41.550781 15.605469 40.09375 L 17.476562 30.691406 C 17.503906 30.554688 17.441406 30.417969 17.320312 30.347656 L 8.960938 25.660156 C 8.097656 25.175781 7.511719 24.386719 7.308594 23.4375 C 7.105469 22.472656 7.320312 21.46875 7.90625 20.679688 Z M 7.28125 23.441406 C 7.484375 24.398438 8.078125 25.191406 8.949219 25.679688 L 17.304688 30.367188 C 17.417969 30.433594 17.476562 30.558594 17.453125 30.6875 L 15.578125 40.085938 C 15.285156 41.5625 15.941406 42.988281 17.257812 43.722656 C 18.570312 44.457031 20.132812 44.273438 21.234375 43.257812 L 28.277344 36.75 C 28.371094 36.664062 28.507812 36.652344 28.625 36.710938 L 36.980469 41.398438 C 38.492188 42.246094 40.347656 41.84375 41.386719 40.441406 C 42.425781 39.042969 42.265625 38.148438 41.738281 37 L 37.730469 28.292969 C 37.675781 28.179688 37.699219 28.042969 37.796875 27.953125 L 44.835938 21.449219 C 45 21.296875 45.148438 21.132812 45.277344 20.957031 C 46.078125 19.878906 46.15625 18.414062 45.46875 17.234375 C 44.777344 16.042969 43.5 15.402344 42.125 15.566406 L 32.605469 16.691406 C 32.480469 16.707031 32.359375 16.640625 32.300781 16.523438 L 28.292969 7.816406 C 27.785156 6.710938 26.761719 5.976562 25.566406 5.851562 C 24.359375 5.722656 23.171875 6.238281 22.460938 7.191406 C 21.753906 8.148438 21.960938 8.058594 21.855469 8.574219 L 19.984375 17.972656 C 19.976562 18.019531 19.960938 18.054688 19.933594 18.09375 C 19.90625 18.128906 19.84375 18.199219 19.730469 18.210938 L 10.210938 19.335938 C 9.265625 19.445312 8.4375 19.921875 7.878906 20.671875 C 7.324219 21.421875 7.074219 22.480469 7.277344 23.453125 Z M 20.035156 17.980469 L 21.910156 8.578125 C 22.011719 8.078125 22.207031 7.621094 22.503906 7.222656 C 23.203125 6.28125 24.371094 5.777344 25.5625 5.898438 C 26.742188 6.019531 27.746094 6.746094 28.25 7.832031 L 32.253906 16.539062 C 32.320312 16.675781 32.460938 16.757812 32.609375 16.738281 L 42.128906 15.613281 C 43.480469 15.453125 44.746094 16.085938 45.425781 17.257812 C 46.097656 18.421875 46.027344 19.863281 45.238281 20.929688 C 44.445312 21.992188 44.960938 21.265625 44.800781 21.410156 L 37.765625 27.914062 C 37.648438 28.019531 37.625 28.179688 37.683594 28.3125 L 41.691406 37.019531 C 42.214844 38.148438 42.085938 39.417969 41.347656 40.410156 C 40.613281 41.398438 38.496094 42.183594 37.003906 41.34375 L 28.644531 36.65625 C 28.511719 36.585938 28.347656 36.601562 28.238281 36.707031 L 21.199219 43.210938 C 20.109375 44.214844 18.574219 44.394531 17.28125 43.671875 C 15.988281 42.949219 15.34375 41.542969 15.632812 40.089844 L 17.507812 30.6875 C 17.535156 30.539062 17.464844 30.390625 17.335938 30.320312 L 8.976562 25.632812 C 8.121094 25.148438 7.539062 24.367188 7.332031 23.429688 C 7.128906 22.472656 7.347656 21.476562 7.929688 20.691406 C 8.511719 19.902344 9.292969 19.484375 10.226562 19.375 L 19.746094 18.253906 C 19.878906 18.238281 19.949219 18.15625 19.984375 18.113281 C 20.015625 18.066406 20.035156 18.023438 20.042969 17.972656 Z M 20.035156 17.980469 "/></g></g></g><g clip-rule="nonzero" clip-path="url(#0ebf885ca0)"><g clip-rule="nonzero" clip-path="url(#b31298b044)"><g clip-rule="nonzero" clip-path="url(#1aa0370fdd)"><path style=" stroke:none;fill-rule:nonzero;fill:#f7d886;fill-opacity:1;" d="M 16.976562 40.335938 L 18.847656 30.933594 C 19.003906 30.148438 18.640625 29.351562 17.9375 28.957031 L 9.582031 24.269531 C 8.015625 23.394531 8.488281 21.027344 10.269531 20.816406 L 19.789062 19.695312 C 20.582031 19.597656 21.226562 19.003906 21.382812 18.21875 L 23.257812 8.816406 C 23.609375 7.058594 26.003906 6.777344 26.75 8.40625 L 26.828125 8.574219 L 30.757812 17.109375 C 31.09375 17.84375 31.859375 18.269531 32.65625 18.175781 L 42.179688 17.054688 C 43.960938 16.84375 44.972656 19.035156 43.648438 20.253906 L 36.609375 26.757812 C 36.019531 27.300781 35.847656 28.160156 36.179688 28.890625 L 40.1875 37.597656 C 40.9375 39.226562 39.164062 40.863281 37.605469 39.988281 L 29.246094 35.296875 C 28.546875 34.90625 27.675781 35.011719 27.082031 35.550781 L 22.988281 39.332031 L 20.046875 42.050781 C 18.730469 43.269531 16.625 42.085938 16.972656 40.332031 Z M 16.976562 40.335938 "/></g></g></g></g></svg>