<svg xmlns="http://www.w3.org/2000/svg" xmlns:xlink="http://www.w3.org/1999/xlink" width="348" zoomAndPan="magnify" viewBox="0 0 261 73.499998" height="98" preserveAspectRatio="xMidYMid meet" version="1.2"><defs><clipPath id="9eec1c8a58"><path d="M 0.882812 0 L 259.695312 0 L 259.695312 72.96875 L 0.882812 72.96875 Z M 0.882812 0 "/></clipPath><clipPath id="b54657d9ed"><path d="M 37.367188 0 L 222.941406 0 C 232.621094 0 241.898438 3.84375 248.742188 10.6875 C 255.582031 17.527344 259.425781 26.808594 259.425781 36.484375 C 259.425781 46.160156 255.582031 55.441406 248.742188 62.28125 C 241.898438 69.125 232.621094 72.96875 222.941406 72.96875 L 37.367188 72.96875 C 27.691406 72.96875 18.410156 69.125 11.566406 62.28125 C 4.726562 55.441406 0.882812 46.160156 0.882812 36.484375 C 0.882812 26.808594 4.726562 17.527344 11.566406 10.6875 C 18.410156 3.84375 27.691406 0 37.367188 0 Z M 37.367188 0 "/></clipPath><clipPath id="1ab3360967"><path d="M 0.882812 0 L 259.375 0 L 259.375 73 L 0.882812 73 Z M 0.882812 0 "/></clipPath><clipPath id="a40f8e6ee4"><path d="M 37.359375 0 L 222.894531 0 C 232.570312 0 241.847656 3.84375 248.691406 10.683594 C 255.53125 17.523438 259.375 26.804688 259.375 36.476562 C 259.375 46.152344 255.53125 55.429688 248.691406 62.269531 C 241.847656 69.113281 232.570312 72.953125 222.894531 72.953125 L 37.359375 72.953125 C 27.683594 72.953125 18.40625 69.113281 11.566406 62.269531 C 4.726562 55.429688 0.882812 46.152344 0.882812 36.476562 C 0.882812 26.804688 4.726562 17.523438 11.566406 10.683594 C 18.40625 3.84375 27.683594 0 37.359375 0 Z M 37.359375 0 "/></clipPath><clipPath id="2f2e84290f"><path d="M 62.667969 29.164062 L 69.988281 29.164062 L 69.988281 36.484375 L 62.667969 36.484375 Z M 62.667969 29.164062 "/></clipPath><clipPath id="7a7bf3bb68"><path d="M 66.328125 29.164062 C 64.308594 29.164062 62.667969 30.804688 62.667969 32.824219 C 62.667969 34.847656 64.308594 36.484375 66.328125 36.484375 C 68.351562 36.484375 69.988281 34.847656 69.988281 32.824219 C 69.988281 30.804688 68.351562 29.164062 66.328125 29.164062 Z M 66.328125 29.164062 "/></clipPath></defs><g id="92cb773992"><g clip-rule="nonzero" clip-path="url(#9eec1c8a58)"><g clip-rule="nonzero" clip-path="url(#b54657d9ed)"><path style=" stroke:none;fill-rule:nonzero;fill:#0b1d3c;fill-opacity:1;" d="M 0.882812 0 L 259.410156 0 L 259.410156 72.96875 L 0.882812 72.96875 Z M 0.882812 0 "/></g></g><g clip-rule="nonzero" clip-path="url(#1ab3360967)"><g clip-rule="nonzero" clip-path="url(#a40f8e6ee4)"><path style="fill:none;stroke-width:8;stroke-linecap:butt;stroke-linejoin:miter;stroke:#ffd483;stroke-opacity:1;stroke-miterlimit:4;" d="M 48.976504 -0.00108967 L 298.084445 -0.00108967 C 311.075589 -0.00108967 323.531773 5.159704 332.720503 14.343189 C 341.903988 23.526675 347.064782 35.988103 347.064782 48.974003 C 347.064782 61.965147 341.903988 74.42133 332.720503 83.604816 C 323.531773 92.793546 311.075589 97.949095 298.084445 97.949095 L 48.976504 97.949095 C 35.98536 97.949095 23.529176 92.793546 14.345691 83.604816 C 5.162205 74.42133 0.00141157 61.965147 0.00141157 48.974003 C 0.00141157 35.988103 5.162205 23.526675 14.345691 14.343189 C 23.529176 5.159704 35.98536 -0.00108967 48.976504 -0.00108967 Z M 48.976504 -0.00108967 " transform="matrix(0.744798,0,0,0.744798,0.881761,0.000811586)"/></g></g><g clip-rule="nonzero" clip-path="url(#2f2e84290f)"><g clip-rule="nonzero" clip-path="url(#7a7bf3bb68)"><path style=" stroke:none;fill-rule:nonzero;fill:#0b1d3c;fill-opacity:1;" d="M 62.667969 29.164062 L 69.988281 29.164062 L 69.988281 36.484375 L 62.667969 36.484375 Z M 62.667969 29.164062 "/></g></g></g></svg>