<svg xmlns="http://www.w3.org/2000/svg" xmlns:xlink="http://www.w3.org/1999/xlink" width="319" zoomAndPan="magnify" viewBox="0 0 239.25 289.500005" height="386" preserveAspectRatio="xMidYMid meet" version="1.2"><defs><clipPath id="538fa8c21c"><path d="M 49 1 L 234 1 L 234 237 L 49 237 Z M 49 1 "/></clipPath><clipPath id="eed9059a63"><path d="M 0 5.863281 L 231.703125 0.199219 L 238.609375 282.730469 L 6.90625 288.390625 Z M 0 5.863281 "/></clipPath><clipPath id="a14c01f0cb"><path d="M 0 5.863281 L 231.703125 0.199219 L 238.609375 282.730469 L 6.90625 288.390625 Z M 0 5.863281 "/></clipPath><clipPath id="d1b241b627"><path d="M 43.363281 4.800781 L 231.210938 0.210938 L 236.875 231.839844 L 49.023438 236.429688 Z M 43.363281 4.800781 "/></clipPath><clipPath id="4d3181690d"><path d="M 6 21 L 130 21 L 130 288.796875 L 6 288.796875 Z M 6 21 "/></clipPath><clipPath id="dc96de59a7"><path d="M 0 5.863281 L 231.703125 0.199219 L 238.609375 282.730469 L 6.90625 288.390625 Z M 0 5.863281 "/></clipPath><clipPath id="09072ce617"><path d="M 0 5.863281 L 231.703125 0.199219 L 238.609375 282.730469 L 6.90625 288.390625 Z M 0 5.863281 "/></clipPath><clipPath id="03b546ce36"><path d="M 0.484375 23.066406 L 127.925781 19.953125 L 134.410156 285.28125 L 6.96875 288.398438 Z M 0.484375 23.066406 "/></clipPath><clipPath id="e550353c9b"><path d="M 54 12 L 225 12 L 225 230 L 54 230 Z M 54 12 "/></clipPath><clipPath id="693eb25495"><path d="M 9.25 16.613281 L 223.015625 11.386719 L 229.390625 272.242188 L 15.625 277.464844 Z M 9.25 16.613281 "/></clipPath><clipPath id="f0177900e9"><path d="M 9.25 16.613281 L 223.015625 11.386719 L 229.390625 272.242188 L 15.625 277.464844 Z M 9.25 16.613281 "/></clipPath><clipPath id="8bdd4eace2"><path d="M 49.285156 15.632812 L 222.722656 11.394531 L 227.949219 225.253906 L 54.511719 229.492188 Z M 49.285156 15.632812 "/></clipPath><clipPath id="ab9782343e"><path d="M 15 31 L 129 31 L 129 278 L 15 278 Z M 15 31 "/></clipPath><clipPath id="ddf3100d12"><path d="M 9.25 16.613281 L 223.015625 11.386719 L 229.390625 272.242188 L 15.625 277.464844 Z M 9.25 16.613281 "/></clipPath><clipPath id="cfb75eac9e"><path d="M 9.25 16.613281 L 223.015625 11.386719 L 229.390625 272.242188 L 15.625 277.464844 Z M 9.25 16.613281 "/></clipPath><clipPath id="e02ee1b3fb"><path d="M 9.695312 32.496094 L 127.359375 29.621094 L 133.347656 274.597656 L 15.683594 277.472656 Z M 9.695312 32.496094 "/></clipPath></defs><g id="2f1d9ea29e"><g clip-rule="nonzero" clip-path="url(#538fa8c21c)"><g clip-rule="nonzero" clip-path="url(#eed9059a63)"><g clip-rule="nonzero" clip-path="url(#a14c01f0cb)"><g clip-rule="nonzero" clip-path="url(#d1b241b627)"><path style=" stroke:none;fill-rule:nonzero;fill:#ffd483;fill-opacity:1;" d="M 187.292969 60.371094 C 187.222656 60.542969 187.164062 60.710938 187.089844 60.878906 C 187.164062 60.710938 187.222656 60.539062 187.292969 60.371094 Z M 186.078125 63.582031 L 185.949219 63.371094 C 186.179688 62.800781 186.449219 62.234375 186.71875 61.667969 C 186.449219 62.234375 186.175781 62.804688 185.949219 63.378906 L 185.917969 63.457031 C 185.917969 63.457031 185.949219 63.378906 185.949219 63.375 C 185.992188 63.441406 186.035156 63.511719 186.078125 63.582031 Z M 181.96875 3.320312 C 181.976562 3.34375 181.988281 3.398438 181.988281 3.398438 C 181.988281 3.398438 181.972656 3.328125 181.96875 3.320312 Z M 175.765625 100.191406 C 175.765625 100.191406 175.765625 100.203125 175.761719 100.210938 L 175.765625 100.207031 Z M 137.070312 124.675781 C 136.546875 120.648438 136.1875 116.714844 135.910156 112.773438 C 135.679688 108.839844 135.855469 104.972656 136.433594 101.066406 C 139.269531 101.253906 141.195312 103.636719 142.496094 105.785156 C 150.183594 118.726562 153.59375 133.699219 152.105469 148.171875 C 154.351562 146.980469 156.171875 145.390625 157.476562 143.503906 C 158.78125 141.613281 159.675781 139.449219 160.246094 137.148438 C 160.53125 135.996094 160.734375 134.808594 160.863281 133.605469 C 160.964844 132.394531 160.984375 131.164062 160.953125 129.933594 C 160.878906 127.472656 160.566406 125.003906 160.097656 122.65625 C 159.613281 120.214844 158.894531 117.757812 158.175781 115.335938 C 157.429688 112.90625 156.664062 110.503906 155.796875 108.105469 C 154.023438 103.363281 152.253906 98.617188 150.496094 93.921875 C 148.761719 89.25 147.417969 84.671875 146.4375 80.089844 C 145.980469 77.800781 145.6875 75.519531 145.605469 73.238281 C 145.460938 70.949219 145.503906 68.65625 145.816406 66.347656 C 147.449219 67.824219 149.027344 69.359375 150.550781 70.941406 C 152.078125 72.523438 153.550781 74.160156 154.890625 75.832031 C 157.613281 79.183594 160.105469 82.722656 162.347656 86.417969 C 164.488281 90.101562 166.367188 93.9375 167.984375 97.898438 C 169.566406 101.847656 170.75 105.898438 171.722656 110.039062 C 171.574219 107.027344 171.226562 104.039062 170.761719 101.074219 C 170.546875 99.597656 170.21875 98.109375 169.894531 96.636719 C 169.566406 95.15625 169.21875 93.6875 168.863281 92.222656 L 167.765625 87.851562 C 167.390625 86.394531 166.953125 84.9375 166.554688 83.488281 C 165.746094 80.589844 164.980469 77.707031 164.3125 74.832031 C 161.449219 63.265625 160.058594 51.289062 164.933594 40.441406 C 174.140625 54.101562 179.894531 69.878906 181.65625 86.144531 C 182.457031 82.820312 183.027344 79.457031 183.289062 76.058594 C 183.507812 72.660156 183.515625 69.238281 183.390625 65.8125 C 182.984375 58.949219 182.046875 52.085938 180.878906 45.28125 C 180.617188 43.582031 180.351562 41.886719 180.089844 40.191406 C 179.792969 38.5 179.5 36.808594 179.242188 35.125 C 178.980469 33.4375 178.746094 31.757812 178.546875 30.082031 C 178.359375 28.402344 178.171875 26.726562 177.984375 25.058594 C 177.640625 21.710938 177.507812 18.378906 177.582031 15.042969 C 177.585938 11.707031 177.851562 8.367188 178.457031 5.007812 C 178.5625 4.40625 178.710938 3.773438 178.976562 3.203125 C 179.234375 2.636719 179.601562 2.132812 180.191406 1.800781 C 181.429688 1.09375 182.734375 1.453125 183.859375 2.308594 C 184.988281 3.160156 185.863281 4.5 186.34375 5.726562 C 187.457031 8.617188 188.410156 11.554688 189.222656 14.53125 C 189.988281 17.507812 190.53125 20.523438 190.996094 23.558594 C 191.222656 25.082031 191.429688 26.605469 191.585938 28.136719 C 191.710938 29.664062 191.804688 31.199219 191.875 32.738281 C 191.945312 34.277344 191.992188 35.816406 192.015625 37.359375 C 192.035156 38.902344 192.058594 40.453125 191.972656 41.996094 C 191.839844 45.085938 191.628906 48.179688 191.359375 51.273438 C 191.242188 52.820312 191.027344 54.359375 190.820312 55.902344 L 190.164062 60.515625 L 189.453125 65.113281 L 188.566406 69.679688 C 188.257812 71.195312 187.957031 72.714844 187.652344 74.226562 C 187.335938 75.734375 187.0625 77.25 186.6875 78.742188 L 190.71875 75.0625 C 192.070312 73.839844 193.441406 72.621094 194.832031 71.410156 C 196.222656 70.199219 197.636719 68.996094 199.066406 67.796875 L 203.351562 64.21875 C 206.210938 61.84375 209.144531 59.492188 212.152344 57.175781 C 213.667969 56.023438 215.183594 54.871094 216.699219 53.71875 C 218.199219 52.574219 219.71875 51.4375 221.257812 50.308594 C 221.824219 51.957031 222.070312 53.652344 221.957031 55.335938 C 221.835938 57.019531 221.421875 58.695312 220.785156 60.3125 C 220.148438 61.933594 219.285156 63.492188 218.261719 64.949219 C 217.246094 66.40625 216.066406 67.757812 214.742188 68.953125 C 212.121094 71.355469 209.164062 73.339844 206.148438 75.222656 C 203.128906 77.105469 200.085938 78.894531 197.148438 80.882812 C 191.242188 84.914062 186.398438 89.863281 182.472656 95.320312 C 178.691406 100.800781 175.8125 106.789062 174.472656 113.101562 C 178.535156 110.070312 182.851562 107.253906 187.46875 104.699219 C 188.621094 104.058594 189.792969 103.4375 190.976562 102.828125 C 192.140625 102.21875 193.3125 101.625 194.507812 101.046875 C 196.890625 99.894531 199.332031 98.804688 201.824219 97.789062 C 206.792969 95.757812 212.023438 94.019531 217.273438 92.605469 C 222.527344 91.191406 227.925781 90.113281 233.394531 89.433594 C 231.867188 91.070312 230.296875 92.652344 228.691406 94.179688 C 227.089844 95.710938 225.355469 97.167969 223.632812 98.578125 C 220.164062 101.394531 216.558594 103.980469 212.8125 106.320312 C 208.992188 108.648438 205.050781 110.730469 201.007812 112.558594 C 196.964844 114.390625 192.839844 115.96875 188.53125 117.269531 C 184.964844 118.359375 181.242188 119.328125 177.8125 120.625 C 174.375 121.917969 171.292969 123.550781 168.785156 125.925781 C 166.789062 127.84375 165.441406 130.109375 164.40625 132.542969 C 164.144531 133.148438 163.914062 133.769531 163.675781 134.394531 C 163.433594 135.015625 163.203125 135.644531 162.984375 136.28125 C 162.542969 137.550781 162.136719 138.835938 161.730469 140.121094 C 160.167969 145.265625 158.226562 150.277344 153.773438 153.492188 C 162.3125 146.921875 171.917969 141.074219 182.300781 136.09375 C 187.453125 133.597656 192.851562 131.332031 198.425781 129.332031 C 203.917969 127.316406 209.601562 125.566406 215.417969 124.128906 C 214.414062 126.007812 213.265625 127.777344 212.003906 129.4375 C 211.371094 130.269531 210.710938 131.074219 210.023438 131.855469 C 209.308594 132.628906 208.570312 133.378906 207.804688 134.105469 C 204.753906 137.011719 201.316406 139.539062 197.660156 141.785156 C 193.9375 144.011719 189.96875 145.953125 185.964844 147.71875 C 183.957031 148.597656 181.9375 149.4375 179.925781 150.242188 C 177.886719 151.046875 175.832031 151.808594 173.816406 152.5625 C 169.777344 154.0625 165.695312 155.621094 161.757812 157.308594 C 157.773438 158.980469 153.867188 160.769531 150.316406 162.785156 C 148.523438 163.785156 146.867188 164.859375 145.210938 165.972656 C 143.570312 167.085938 142.027344 168.269531 140.609375 169.53125 C 139.191406 170.796875 137.894531 172.140625 136.742188 173.582031 C 135.566406 175.015625 134.488281 176.527344 133.597656 178.164062 C 135.757812 177.324219 137.945312 176.496094 140.15625 175.6875 C 142.351562 174.871094 144.53125 174.054688 146.757812 173.265625 C 151.1875 171.679688 155.773438 170.171875 160.351562 168.707031 C 169.441406 165.757812 179.011719 163.121094 188.554688 160.730469 C 190.46875 160.261719 193.15625 160.125 193.9375 161.882812 C 194.539062 163.234375 193.429688 164.617188 192.363281 165.601562 C 185.558594 171.695312 177.496094 175.898438 168.808594 179.113281 C 160.25 182.375 151.015625 184.636719 142.328125 187.066406 C 137.957031 188.273438 133.484375 189.550781 129.242188 191.023438 C 127.109375 191.757812 125.050781 192.546875 122.996094 193.367188 C 120.933594 194.179688 118.933594 195.050781 117.023438 195.988281 C 115.109375 196.921875 113.277344 197.921875 111.558594 199 C 109.828125 200.074219 108.128906 201.191406 106.597656 202.417969 C 105.054688 203.640625 103.636719 204.953125 102.363281 206.371094 C 101.09375 207.792969 99.863281 209.273438 98.855469 210.902344 C 101.175781 210.074219 103.582031 209.316406 105.984375 208.578125 C 108.367188 207.832031 110.800781 207.140625 113.28125 206.492188 C 115.757812 205.847656 118.285156 205.25 120.847656 204.703125 C 123.417969 204.160156 125.941406 203.632812 128.550781 203.175781 C 133.742188 202.25 139.089844 201.535156 144.511719 201.035156 C 149.875 200.511719 155.34375 200.214844 160.867188 200.164062 C 155.796875 206.207031 148.335938 209.53125 140.359375 211.660156 C 136.308594 212.703125 132.066406 213.425781 127.84375 214.035156 C 123.605469 214.636719 119.421875 215.144531 115.269531 215.65625 C 112.105469 216.054688 108.980469 216.523438 105.910156 217.046875 C 102.832031 217.574219 99.835938 218.175781 96.796875 218.789062 C 93.777344 219.414062 90.820312 220.101562 87.929688 220.851562 C 86.484375 221.222656 85.0625 221.621094 83.644531 222.023438 C 82.203125 222.414062 80.78125 222.824219 79.378906 223.25 C 76.574219 224.101562 73.84375 225.015625 71.199219 226 C 68.535156 226.976562 65.878906 227.976562 63.355469 229.078125 C 58.347656 231.292969 53.425781 233.648438 49.023438 236.394531 C 50.664062 233.691406 53.261719 231.804688 56.355469 230.269531 C 59.375 228.695312 62.871094 227.46875 66.382812 226.1875 C 68.15625 225.558594 69.867188 224.882812 71.515625 224.144531 C 73.167969 223.40625 74.757812 222.605469 76.21875 221.699219 C 79.183594 219.910156 81.480469 217.601562 82.765625 214.550781 C 83.242188 213.417969 83.546875 212.226562 83.730469 211.007812 C 83.917969 209.785156 83.914062 208.5 83.882812 207.21875 C 83.800781 204.648438 83.441406 202.027344 83.230469 199.484375 C 81.867188 184.800781 84.976562 171.183594 92.453125 159.503906 C 97.648438 176.238281 97.78125 194 92.964844 210.300781 C 96.828125 209.132812 99.691406 206.691406 101.53125 203.558594 C 103.410156 200.4375 104.5625 196.761719 105.023438 193.113281 C 105.324219 190.960938 105.519531 188.792969 105.636719 186.617188 C 105.738281 184.433594 105.691406 182.214844 105.644531 180.019531 C 105.574219 177.816406 105.523438 175.636719 105.367188 173.433594 C 105.207031 171.230469 105.039062 169.042969 104.910156 166.875 C 104.796875 164.71875 104.679688 162.566406 104.570312 160.417969 C 104.476562 158.28125 104.449219 156.167969 104.535156 154.085938 C 104.648438 152.015625 104.71875 149.929688 105 147.894531 C 105.269531 145.855469 105.683594 143.847656 106.273438 141.871094 C 110.886719 144.347656 112.769531 148.945312 113.992188 153.207031 C 117.648438 166.347656 117.933594 180.148438 114.820312 193.113281 C 116.296875 192.535156 117.558594 191.722656 118.605469 190.726562 C 119.628906 189.722656 120.457031 188.546875 121.125 187.265625 C 121.796875 185.984375 122.3125 184.601562 122.710938 183.179688 C 122.90625 182.46875 123.078125 181.75 123.21875 181.027344 C 123.34375 180.300781 123.441406 179.570312 123.519531 178.847656 C 123.808594 176.175781 123.9375 173.476562 123.953125 170.773438 C 123.953125 168.0625 123.738281 165.308594 123.53125 162.589844 L 123.160156 158.507812 C 123.019531 157.148438 122.820312 155.78125 122.652344 154.425781 C 122.300781 151.710938 121.953125 149.023438 121.667969 146.371094 C 121.304688 143.691406 121.003906 141.050781 120.824219 138.453125 C 120.726562 137.152344 120.6875 135.867188 120.640625 134.578125 C 120.578125 133.292969 120.554688 132.011719 120.574219 130.746094 C 120.605469 128.207031 120.875 125.726562 121.277344 123.261719 C 121.664062 120.792969 122.292969 118.367188 123.222656 115.976562 C 128.269531 124.339844 131.890625 133.414062 133.789062 142.722656 C 134.265625 145.046875 134.65625 147.394531 134.964844 149.753906 C 135.234375 152.101562 135.371094 154.449219 135.453125 156.8125 C 135.660156 161.550781 135.285156 166.234375 134.632812 170.894531 C 134.695312 170.460938 136.492188 169.492188 136.886719 169.140625 C 137.734375 168.386719 138.515625 167.574219 139.226562 166.710938 C 139.9375 165.847656 140.578125 164.9375 141.144531 163.984375 C 141.695312 163.03125 142.140625 162.027344 142.523438 161 C 143.964844 157.066406 144.394531 152.621094 142.976562 148.40625 C 142.15625 145.890625 142.367188 146.097656 140.503906 140.496094 L 137.070312 124.675781 "/></g></g></g></g><g clip-rule="nonzero" clip-path="url(#4d3181690d)"><g clip-rule="nonzero" clip-path="url(#dc96de59a7)"><g clip-rule="nonzero" clip-path="url(#09072ce617)"><g clip-rule="nonzero" clip-path="url(#03b546ce36)"><path style=" stroke:none;fill-rule:nonzero;fill:#ffd483;fill-opacity:1;" d="M 76.277344 75.5625 C 76.269531 75.746094 76.273438 75.925781 76.261719 76.109375 C 76.273438 75.925781 76.269531 75.742188 76.277344 75.5625 Z M 76.242188 78.996094 L 76.046875 78.839844 C 76.066406 78.226562 76.125 77.601562 76.183594 76.976562 C 76.125 77.601562 76.066406 78.230469 76.046875 78.84375 L 76.046875 78.933594 C 76.046875 78.933594 76.046875 78.84375 76.046875 78.84375 C 76.109375 78.890625 76.175781 78.941406 76.242188 78.996094 Z M 51.660156 23.820312 C 51.675781 23.839844 51.707031 23.886719 51.707031 23.886719 C 51.707031 23.886719 51.664062 23.828125 51.660156 23.820312 Z M 79.144531 116.917969 C 79.144531 116.917969 79.148438 116.929688 79.148438 116.9375 L 79.148438 116.933594 Z M 51.230469 153.214844 C 49.351562 149.613281 47.660156 146.039062 46.046875 142.433594 C 44.480469 138.824219 43.316406 135.128906 42.515625 131.265625 C 45.242188 130.464844 47.867188 132.039062 49.828125 133.609375 C 61.496094 143.117188 69.847656 156.007812 73.429688 170.109375 C 75.128906 168.214844 76.289062 166.097656 76.867188 163.875 C 77.441406 161.652344 77.535156 159.3125 77.28125 156.957031 C 77.152344 155.777344 76.933594 154.59375 76.644531 153.417969 C 76.324219 152.246094 75.917969 151.085938 75.460938 149.941406 C 74.546875 147.652344 73.402344 145.445312 72.15625 143.398438 C 70.863281 141.273438 69.34375 139.214844 67.835938 137.183594 C 66.300781 135.160156 64.753906 133.167969 63.113281 131.214844 C 59.820312 127.371094 56.523438 123.523438 53.261719 119.71875 C 50.027344 115.929688 47.191406 112.09375 44.695312 108.125 C 43.476562 106.132812 42.417969 104.09375 41.554688 101.980469 C 40.632812 99.878906 39.886719 97.710938 39.386719 95.433594 C 41.425781 96.261719 43.433594 97.160156 45.410156 98.121094 C 47.386719 99.082031 49.332031 100.113281 51.167969 101.222656 C 54.878906 103.429688 58.433594 105.898438 61.808594 108.597656 C 65.085938 111.320312 68.167969 114.277344 71.050781 117.4375 C 73.894531 120.605469 76.398438 124.003906 78.734375 127.554688 C 77.558594 124.777344 76.207031 122.089844 74.75 119.46875 C 74.039062 118.152344 73.222656 116.871094 72.410156 115.597656 C 71.59375 114.324219 70.761719 113.0625 69.921875 111.808594 L 67.390625 108.078125 C 66.539062 106.84375 65.625 105.625 64.753906 104.398438 C 62.996094 101.957031 61.289062 99.511719 59.671875 97.039062 C 53.007812 87.164062 47.578125 76.398438 48.429688 64.535156 C 61.769531 74.195312 72.597656 87.035156 79.84375 101.699219 C 79.457031 98.304688 78.835938 94.949219 77.914062 91.667969 C 76.949219 88.402344 75.777344 85.183594 74.484375 82.015625 C 71.742188 75.707031 68.503906 69.582031 65.066406 63.597656 C 64.234375 62.09375 63.402344 60.589844 62.574219 59.089844 C 61.710938 57.601562 60.859375 56.113281 60.035156 54.621094 C 59.210938 53.128906 58.414062 51.632812 57.648438 50.125 C 56.894531 48.613281 56.144531 47.105469 55.394531 45.601562 C 53.917969 42.578125 52.648438 39.496094 51.574219 36.335938 C 50.429688 33.203125 49.527344 29.976562 48.941406 26.613281 C 48.835938 26.011719 48.753906 25.367188 48.808594 24.742188 C 48.855469 24.117188 49.03125 23.519531 49.464844 23.003906 C 50.390625 21.914062 51.738281 21.804688 53.085938 22.21875 C 54.441406 22.628906 55.722656 23.589844 56.597656 24.578125 C 58.636719 26.90625 60.539062 29.335938 62.324219 31.855469 C 64.066406 34.386719 65.613281 37.027344 67.097656 39.722656 C 67.832031 41.070312 68.550781 42.433594 69.222656 43.816406 C 69.867188 45.210938 70.484375 46.617188 71.078125 48.039062 C 71.671875 49.457031 72.246094 50.886719 72.796875 52.332031 C 73.347656 53.773438 73.902344 55.21875 74.351562 56.699219 C 75.292969 59.644531 76.15625 62.625 76.964844 65.621094 C 77.390625 67.113281 77.71875 68.632812 78.054688 70.148438 L 79.023438 74.707031 L 79.933594 79.269531 L 80.671875 83.867188 C 80.90625 85.394531 81.140625 86.921875 81.378906 88.449219 C 81.601562 89.976562 81.863281 91.488281 82.027344 93.019531 L 84.546875 88.175781 C 85.394531 86.5625 86.265625 84.949219 87.15625 83.335938 C 88.042969 81.71875 88.957031 80.101562 89.886719 78.488281 L 92.679688 73.652344 C 94.546875 70.4375 96.496094 67.222656 98.523438 64.011719 C 99.550781 62.410156 100.574219 60.804688 101.601562 59.207031 C 102.617188 57.613281 103.65625 56.023438 104.710938 54.433594 C 105.808594 55.785156 106.625 57.292969 107.097656 58.914062 C 107.5625 60.535156 107.75 62.253906 107.707031 63.992188 C 107.664062 65.730469 107.390625 67.492188 106.933594 69.210938 C 106.476562 70.929688 105.835938 72.601562 105.003906 74.183594 C 103.367188 77.339844 101.273438 80.21875 99.089844 83.023438 C 96.902344 85.832031 94.660156 88.554688 92.585938 91.433594 C 88.425781 97.25 85.578125 103.5625 83.769531 110.035156 C 82.101562 116.484375 81.457031 123.097656 82.371094 129.484375 C 85.144531 125.238281 88.226562 121.113281 91.6875 117.125 C 92.546875 116.128906 93.433594 115.140625 94.335938 114.164062 C 95.21875 113.191406 96.117188 112.230469 97.039062 111.277344 C 98.878906 109.371094 100.796875 107.511719 102.789062 105.699219 C 106.757812 102.082031 111.070312 98.65625 115.515625 95.519531 C 119.964844 92.382812 124.660156 89.519531 129.558594 87 C 128.691406 89.0625 127.761719 91.085938 126.773438 93.074219 C 125.800781 95.0625 124.671875 97.027344 123.539062 98.945312 C 121.25 102.78125 118.753906 106.449219 116.039062 109.933594 C 113.253906 113.429688 110.265625 116.742188 107.101562 119.851562 C 103.933594 122.957031 100.605469 125.859375 97.003906 128.566406 C 94.03125 130.8125 90.871094 133.003906 88.097656 135.402344 C 85.3125 137.796875 82.976562 140.390625 81.441406 143.480469 C 80.226562 145.972656 79.738281 148.558594 79.601562 151.199219 C 79.566406 151.863281 79.566406 152.523438 79.554688 153.191406 C 79.539062 153.859375 79.542969 154.53125 79.550781 155.199219 C 79.574219 156.542969 79.636719 157.894531 79.695312 159.238281 C 79.996094 164.605469 79.898438 169.980469 76.820312 174.527344 C 82.582031 165.425781 89.59375 156.628906 97.625 148.382812 C 101.609375 144.265625 105.898438 140.285156 110.445312 136.488281 C 114.90625 132.707031 119.644531 129.109375 124.613281 125.757812 C 124.3125 127.871094 123.847656 129.925781 123.230469 131.917969 C 122.921875 132.917969 122.578125 133.898438 122.199219 134.871094 C 121.796875 135.84375 121.359375 136.800781 120.894531 137.746094 C 119.027344 141.523438 116.667969 145.078125 114.007812 148.445312 C 111.28125 151.816406 108.21875 155.003906 105.0625 158.039062 C 103.484375 159.554688 101.875 161.035156 100.261719 162.488281 C 98.625 163.941406 96.957031 165.367188 95.324219 166.765625 C 92.046875 169.5625 88.75 172.429688 85.632812 175.367188 C 82.464844 178.308594 79.414062 181.332031 76.773438 184.445312 C 75.433594 186 74.246094 187.582031 73.074219 189.191406 C 71.917969 190.804688 70.875 192.445312 69.976562 194.117188 C 69.078125 195.792969 68.324219 197.503906 67.738281 199.25 C 67.128906 201 66.632812 202.792969 66.359375 204.636719 C 68.097656 203.101562 69.867188 201.574219 71.667969 200.050781 C 73.449219 198.53125 75.214844 197.019531 77.035156 195.511719 C 80.648438 192.496094 84.4375 189.503906 88.234375 186.554688 C 95.75 180.660156 103.832031 174.890625 111.972656 169.367188 C 113.609375 168.269531 116.082031 167.214844 117.421875 168.597656 C 118.449219 169.660156 117.886719 171.339844 117.222656 172.628906 C 112.925781 180.691406 106.804688 187.410156 99.75 193.417969 C 92.835938 199.421875 84.941406 204.722656 77.621094 209.992188 C 73.929688 212.628906 70.171875 215.363281 66.695312 218.207031 C 64.941406 219.628906 63.28125 221.078125 61.632812 222.554688 C 59.976562 224.03125 58.398438 225.535156 56.925781 227.070312 C 55.449219 228.605469 54.074219 230.171875 52.828125 231.777344 C 51.578125 233.378906 50.363281 235.015625 49.347656 236.695312 C 48.320312 238.375 47.4375 240.09375 46.730469 241.867188 C 46.027344 243.636719 45.382812 245.449219 44.992188 247.324219 C 46.890625 245.75 48.886719 244.207031 50.890625 242.691406 C 52.871094 241.171875 54.917969 239.683594 57.023438 238.222656 C 59.128906 236.765625 61.296875 235.335938 63.515625 233.941406 C 65.742188 232.546875 67.929688 231.179688 70.222656 229.855469 C 74.777344 227.203125 79.554688 224.691406 84.472656 222.359375 C 89.332031 220.023438 94.363281 217.863281 99.535156 215.917969 C 96.847656 223.335938 90.988281 229.023438 84.230469 233.761719 C 80.785156 236.132812 77.046875 238.273438 73.292969 240.296875 C 69.519531 242.320312 65.765625 244.234375 62.042969 246.140625 C 59.210938 247.605469 56.4375 249.117188 53.730469 250.671875 C 51.023438 252.21875 48.417969 253.8125 45.773438 255.4375 C 43.15625 257.0625 40.613281 258.722656 38.160156 260.421875 C 36.929688 261.273438 35.730469 262.128906 34.535156 262.996094 C 33.320312 263.859375 32.125 264.734375 30.953125 265.617188 C 28.613281 267.378906 26.363281 269.175781 24.21875 271.011719 C 22.050781 272.84375 19.902344 274.699219 17.910156 276.597656 C 13.96875 280.402344 10.160156 284.304688 6.96875 288.398438 C 7.578125 285.296875 9.367188 282.628906 11.746094 280.125 C 14.039062 277.609375 16.898438 275.253906 19.757812 272.84375 C 21.207031 271.640625 22.582031 270.417969 23.875 269.15625 C 25.171875 267.898438 26.390625 266.601562 27.453125 265.25 C 29.621094 262.546875 30.984375 259.589844 31.144531 256.28125 C 31.199219 255.054688 31.078125 253.832031 30.828125 252.621094 C 30.582031 251.410156 30.140625 250.207031 29.667969 249.015625 C 28.707031 246.628906 27.46875 244.289062 26.398438 241.976562 C 20.070312 228.65625 18.304688 214.796875 21.308594 201.261719 C 31.941406 215.1875 38.175781 231.824219 39.257812 248.78125 C 42.480469 246.359375 44.332031 243.078125 44.984375 239.503906 C 45.675781 235.929688 45.492188 232.082031 44.667969 228.5 C 44.210938 226.375 43.648438 224.269531 43.011719 222.1875 C 42.359375 220.101562 41.550781 218.035156 40.75 215.988281 C 39.925781 213.941406 39.128906 211.914062 38.226562 209.902344 C 37.316406 207.886719 36.410156 205.890625 35.539062 203.898438 C 34.691406 201.914062 33.84375 199.929688 33 197.957031 C 32.175781 195.976562 31.429688 194.003906 30.789062 192.019531 C 30.183594 190.035156 29.535156 188.050781 29.101562 186.042969 C 28.648438 184.035156 28.347656 182.011719 28.222656 179.949219 C 33.40625 180.6875 36.757812 184.359375 39.371094 187.9375 C 47.320312 199.023438 52.332031 211.886719 53.867188 225.128906 C 55.058594 224.078125 55.964844 222.882812 56.605469 221.585938 C 57.21875 220.292969 57.589844 218.902344 57.78125 217.472656 C 57.96875 216.039062 57.976562 214.558594 57.859375 213.089844 C 57.804688 212.355469 57.714844 211.617188 57.601562 210.894531 C 57.464844 210.164062 57.308594 209.445312 57.132812 208.742188 C 56.488281 206.132812 55.679688 203.554688 54.765625 201.011719 C 53.832031 198.464844 52.683594 195.953125 51.550781 193.472656 L 49.804688 189.769531 C 49.199219 188.539062 48.546875 187.324219 47.917969 186.109375 C 46.65625 183.679688 45.40625 181.273438 44.226562 178.882812 C 42.964844 176.492188 41.773438 174.117188 40.710938 171.738281 C 40.171875 170.546875 39.695312 169.355469 39.207031 168.164062 C 38.703125 166.976562 38.242188 165.785156 37.828125 164.585938 C 36.980469 162.191406 36.382812 159.769531 35.914062 157.316406 C 35.425781 154.867188 35.183594 152.371094 35.234375 149.808594 C 42.851562 155.925781 49.371094 163.199219 54.351562 171.289062 C 55.597656 173.308594 56.773438 175.378906 57.875 177.488281 C 58.933594 179.601562 59.875 181.757812 60.761719 183.949219 C 62.585938 188.324219 63.84375 192.851562 64.832031 197.453125 C 64.742188 197.023438 66.097656 195.496094 66.347656 195.03125 C 66.882812 194.03125 67.335938 193 67.707031 191.945312 C 68.078125 190.890625 68.367188 189.8125 68.570312 188.726562 C 68.757812 187.640625 68.832031 186.542969 68.839844 185.449219 C 68.839844 181.261719 67.714844 176.933594 64.9375 173.46875 C 63.300781 171.386719 63.570312 171.507812 59.894531 166.890625 L 51.230469 153.214844 "/></g></g></g></g><g clip-rule="nonzero" clip-path="url(#e550353c9b)"><g clip-rule="nonzero" clip-path="url(#693eb25495)"><g clip-rule="nonzero" clip-path="url(#f0177900e9)"><g clip-rule="nonzero" clip-path="url(#8bdd4eace2)"><path style=" stroke:none;fill-rule:nonzero;fill:#091b3a;fill-opacity:1;" d="M 182.171875 66.9375 C 182.105469 67.097656 182.054688 67.253906 181.984375 67.410156 C 182.054688 67.253906 182.105469 67.09375 182.171875 66.9375 Z M 181.054688 69.90625 L 180.933594 69.707031 C 181.144531 69.183594 181.394531 68.660156 181.644531 68.136719 C 181.394531 68.660156 181.140625 69.1875 180.929688 69.714844 L 180.902344 69.789062 C 180.902344 69.789062 180.929688 69.714844 180.933594 69.710938 C 180.972656 69.777344 181.011719 69.839844 181.054688 69.90625 Z M 177.257812 14.265625 C 177.261719 14.285156 177.277344 14.335938 177.277344 14.335938 C 177.277344 14.335938 177.261719 14.273438 177.257812 14.265625 Z M 171.53125 103.703125 C 171.53125 103.703125 171.527344 103.71875 171.527344 103.722656 L 171.527344 103.71875 Z M 135.804688 126.3125 C 135.320312 122.59375 134.988281 118.960938 134.730469 115.320312 C 134.519531 111.691406 134.683594 108.121094 135.21875 104.511719 C 137.835938 104.6875 139.613281 106.882812 140.8125 108.871094 C 147.910156 120.816406 151.058594 134.644531 149.6875 148.003906 C 151.761719 146.902344 153.441406 145.4375 154.644531 143.691406 C 155.847656 141.949219 156.675781 139.949219 157.199219 137.824219 C 157.464844 136.761719 157.652344 135.667969 157.773438 134.554688 C 157.867188 133.4375 157.882812 132.300781 157.851562 131.164062 C 157.785156 128.890625 157.496094 126.613281 157.0625 124.445312 C 156.617188 122.191406 155.953125 119.925781 155.289062 117.6875 C 154.601562 115.441406 153.894531 113.222656 153.09375 111.011719 C 151.457031 106.632812 149.820312 102.25 148.199219 97.914062 C 146.597656 93.601562 145.355469 89.378906 144.453125 85.144531 C 144.03125 83.03125 143.757812 80.925781 143.683594 78.820312 C 143.550781 76.707031 143.589844 74.589844 143.878906 72.457031 C 145.386719 73.824219 146.84375 75.238281 148.25 76.699219 C 149.660156 78.160156 151.019531 79.667969 152.257812 81.214844 C 154.773438 84.308594 157.070312 87.574219 159.140625 90.988281 C 161.117188 94.386719 162.851562 97.933594 164.347656 101.585938 C 165.808594 105.234375 166.898438 108.976562 167.796875 112.796875 C 167.660156 110.015625 167.339844 107.257812 166.910156 104.519531 C 166.710938 103.15625 166.40625 101.785156 166.109375 100.421875 C 165.808594 99.058594 165.488281 97.703125 165.15625 96.347656 L 164.144531 92.308594 C 163.800781 90.96875 163.390625 89.621094 163.027344 88.28125 C 162.277344 85.605469 161.574219 82.945312 160.957031 80.289062 C 158.3125 69.613281 157.027344 58.554688 161.527344 48.539062 C 170.03125 61.148438 175.339844 75.71875 176.96875 90.734375 C 177.707031 87.664062 178.234375 84.5625 178.476562 81.425781 C 178.679688 78.285156 178.683594 75.125 178.570312 71.964844 C 178.195312 65.625 177.332031 59.289062 176.253906 53.007812 C 176.007812 51.441406 175.765625 49.875 175.523438 48.308594 C 175.246094 46.746094 174.980469 45.1875 174.742188 43.628906 C 174.5 42.074219 174.285156 40.519531 174.101562 38.972656 C 173.925781 37.421875 173.75 35.878906 173.578125 34.335938 C 173.261719 31.246094 173.136719 28.167969 173.207031 25.089844 C 173.210938 22.007812 173.457031 18.925781 174.015625 15.824219 C 174.113281 15.269531 174.246094 14.683594 174.496094 14.15625 C 174.730469 13.636719 175.074219 13.171875 175.613281 12.863281 C 176.761719 12.210938 177.964844 12.542969 179.003906 13.328125 C 180.046875 14.117188 180.855469 15.355469 181.296875 16.488281 C 182.324219 19.15625 183.207031 21.867188 183.953125 24.617188 C 184.660156 27.367188 185.160156 30.148438 185.59375 32.953125 C 185.800781 34.355469 185.992188 35.765625 186.136719 37.179688 C 186.25 38.589844 186.339844 40.007812 186.40625 41.425781 C 186.46875 42.847656 186.511719 44.269531 186.53125 45.695312 C 186.550781 47.121094 186.574219 48.550781 186.492188 49.976562 C 186.371094 52.828125 186.175781 55.683594 185.925781 58.539062 C 185.820312 59.96875 185.621094 61.390625 185.429688 62.8125 L 184.824219 67.070312 L 184.167969 71.320312 L 183.347656 75.535156 C 183.066406 76.933594 182.785156 78.335938 182.503906 79.730469 C 182.210938 81.125 181.960938 82.523438 181.617188 83.902344 L 185.335938 80.503906 C 186.585938 79.375 187.851562 78.25 189.132812 77.132812 C 190.417969 76.015625 191.722656 74.902344 193.042969 73.796875 L 197 70.492188 C 199.640625 68.296875 202.347656 66.128906 205.125 63.988281 C 206.523438 62.925781 207.925781 61.863281 209.320312 60.800781 C 210.710938 59.742188 212.113281 58.691406 213.53125 57.648438 C 214.054688 59.171875 214.28125 60.734375 214.179688 62.292969 C 214.066406 63.84375 213.683594 65.394531 213.09375 66.886719 C 212.507812 68.382812 211.710938 69.824219 210.765625 71.167969 C 209.828125 72.511719 208.738281 73.757812 207.515625 74.863281 C 205.097656 77.078125 202.363281 78.914062 199.582031 80.652344 C 196.792969 82.390625 193.984375 84.042969 191.273438 85.878906 C 185.820312 89.601562 181.347656 94.167969 177.722656 99.207031 C 174.230469 104.269531 171.574219 109.796875 170.335938 115.625 C 174.089844 112.824219 178.070312 110.226562 182.335938 107.867188 C 183.402344 107.277344 184.480469 106.699219 185.574219 106.140625 C 186.648438 105.578125 187.734375 105.027344 188.835938 104.496094 C 191.035156 103.429688 193.289062 102.425781 195.589844 101.488281 C 200.175781 99.609375 205.003906 98.007812 209.851562 96.699219 C 214.707031 95.394531 219.6875 94.402344 224.734375 93.773438 C 223.328125 95.285156 221.878906 96.746094 220.394531 98.15625 C 218.917969 99.566406 217.3125 100.914062 215.726562 102.21875 C 212.523438 104.816406 209.191406 107.203125 205.734375 109.363281 C 202.207031 111.511719 198.566406 113.433594 194.835938 115.125 C 191.105469 116.8125 187.292969 118.273438 183.316406 119.472656 C 180.023438 120.476562 176.585938 121.375 173.421875 122.570312 C 170.246094 123.765625 167.398438 125.273438 165.085938 127.464844 C 163.242188 129.238281 161.996094 131.328125 161.042969 133.574219 C 160.800781 134.132812 160.589844 134.707031 160.371094 135.285156 C 160.144531 135.859375 159.933594 136.4375 159.726562 137.023438 C 159.320312 138.195312 158.949219 139.386719 158.570312 140.570312 C 157.128906 145.320312 155.335938 149.949219 151.226562 152.914062 C 159.109375 146.851562 167.980469 141.449219 177.5625 136.851562 C 182.320312 134.546875 187.304688 132.457031 192.453125 130.609375 C 197.523438 128.75 202.769531 127.132812 208.140625 125.804688 C 207.214844 127.542969 206.15625 129.171875 204.988281 130.707031 C 204.40625 131.472656 203.792969 132.21875 203.15625 132.9375 C 202.5 133.652344 201.816406 134.347656 201.113281 135.015625 C 198.292969 137.699219 195.121094 140.035156 191.746094 142.105469 C 188.308594 144.164062 184.644531 145.953125 180.945312 147.585938 C 179.09375 148.398438 177.226562 149.171875 175.371094 149.917969 C 173.488281 150.65625 171.589844 151.363281 169.730469 152.058594 C 166 153.445312 162.234375 154.882812 158.597656 156.4375 C 154.917969 157.984375 151.3125 159.636719 148.035156 161.496094 C 146.378906 162.421875 144.847656 163.414062 143.320312 164.441406 C 141.804688 165.46875 140.378906 166.5625 139.070312 167.726562 C 137.761719 168.894531 136.5625 170.132812 135.5 171.464844 C 134.417969 172.789062 133.417969 174.1875 132.597656 175.695312 C 134.589844 174.917969 136.609375 174.15625 138.652344 173.40625 C 140.679688 172.652344 142.691406 171.902344 144.746094 171.171875 C 148.839844 169.707031 153.074219 168.316406 157.300781 166.964844 C 165.691406 164.242188 174.527344 161.804688 183.335938 159.601562 C 185.105469 159.164062 187.585938 159.039062 188.308594 160.660156 C 188.863281 161.910156 187.839844 163.1875 186.855469 164.097656 C 180.570312 169.722656 173.128906 173.601562 165.105469 176.570312 C 157.203125 179.582031 148.679688 181.671875 140.65625 183.914062 C 136.621094 185.027344 132.492188 186.207031 128.578125 187.570312 C 126.605469 188.246094 124.707031 188.972656 122.808594 189.730469 C 120.90625 190.484375 119.058594 191.285156 117.292969 192.152344 C 115.527344 193.011719 113.835938 193.9375 112.246094 194.929688 C 110.652344 195.925781 109.082031 196.957031 107.667969 198.089844 C 106.242188 199.21875 104.933594 200.429688 103.757812 201.738281 C 102.585938 203.050781 101.453125 204.417969 100.519531 205.921875 C 102.664062 205.160156 104.882812 204.457031 107.101562 203.777344 C 109.300781 203.089844 111.550781 202.449219 113.839844 201.851562 C 116.128906 201.253906 118.457031 200.703125 120.824219 200.199219 C 123.199219 199.699219 125.53125 199.210938 127.9375 198.789062 C 132.730469 197.933594 137.667969 197.273438 142.671875 196.8125 C 147.625 196.328125 152.675781 196.054688 157.777344 196.007812 C 153.09375 201.585938 146.207031 204.65625 138.839844 206.621094 C 135.101562 207.582031 131.183594 208.25 127.285156 208.8125 C 123.371094 209.371094 119.507812 209.835938 115.675781 210.308594 C 112.753906 210.679688 109.871094 211.109375 107.03125 211.59375 C 104.191406 212.082031 101.425781 212.636719 98.617188 213.203125 C 95.832031 213.78125 93.101562 214.414062 90.433594 215.105469 C 89.097656 215.453125 87.785156 215.816406 86.476562 216.1875 C 85.148438 216.550781 83.835938 216.929688 82.539062 217.320312 C 79.949219 218.109375 77.429688 218.953125 74.988281 219.863281 C 72.527344 220.761719 70.074219 221.6875 67.742188 222.703125 C 63.117188 224.75 58.578125 226.925781 54.511719 229.457031 C 56.023438 226.960938 58.421875 225.21875 61.28125 223.800781 C 64.066406 222.347656 67.296875 221.21875 70.539062 220.035156 C 72.175781 219.453125 73.753906 218.828125 75.277344 218.148438 C 76.800781 217.46875 78.269531 216.730469 79.621094 215.890625 C 82.359375 214.238281 84.480469 212.109375 85.664062 209.292969 C 86.105469 208.246094 86.386719 207.144531 86.558594 206.019531 C 86.726562 204.890625 86.726562 203.707031 86.695312 202.523438 C 86.621094 200.148438 86.289062 197.726562 86.097656 195.382812 C 84.835938 181.824219 87.707031 169.25 94.609375 158.46875 C 99.40625 173.917969 99.527344 190.316406 95.082031 205.363281 C 98.648438 204.289062 101.292969 202.03125 102.992188 199.140625 C 104.726562 196.257812 105.792969 192.867188 106.214844 189.496094 C 106.492188 187.511719 106.671875 185.507812 106.78125 183.5 C 106.875 181.484375 106.832031 179.4375 106.789062 177.410156 C 106.726562 175.375 106.675781 173.363281 106.53125 171.328125 C 106.382812 169.292969 106.230469 167.273438 106.109375 165.273438 C 106.003906 163.28125 105.898438 161.292969 105.796875 159.3125 C 105.707031 157.335938 105.6875 155.386719 105.761719 153.464844 C 105.867188 151.554688 105.933594 149.625 106.195312 147.746094 C 106.441406 145.863281 106.824219 144.011719 107.367188 142.1875 C 111.628906 144.472656 113.367188 148.71875 114.496094 152.652344 C 117.871094 164.785156 118.132812 177.527344 115.257812 189.496094 C 116.625 188.964844 117.789062 188.210938 118.757812 187.296875 C 119.699219 186.367188 120.464844 185.28125 121.082031 184.097656 C 121.703125 182.917969 122.175781 181.636719 122.542969 180.328125 C 122.726562 179.671875 122.882812 179.007812 123.015625 178.339844 C 123.128906 177.667969 123.21875 176.992188 123.292969 176.324219 C 123.5625 173.859375 123.679688 171.367188 123.695312 168.871094 C 123.695312 166.367188 123.496094 163.828125 123.300781 161.316406 L 122.960938 157.546875 C 122.828125 156.292969 122.648438 155.03125 122.492188 153.777344 C 122.167969 151.273438 121.847656 148.789062 121.582031 146.339844 C 121.246094 143.867188 120.96875 141.429688 120.800781 139.03125 C 120.714844 137.828125 120.675781 136.644531 120.632812 135.457031 C 120.574219 134.265625 120.554688 133.085938 120.574219 131.914062 C 120.601562 129.570312 120.851562 127.28125 121.222656 125.003906 C 121.578125 122.726562 122.15625 120.484375 123.015625 118.277344 C 127.679688 126.003906 131.019531 134.378906 132.773438 142.972656 C 133.210938 145.117188 133.574219 147.285156 133.859375 149.464844 C 134.105469 151.632812 134.234375 153.800781 134.308594 155.980469 C 134.503906 160.355469 134.15625 164.679688 133.554688 168.984375 C 133.609375 168.582031 135.269531 167.6875 135.632812 167.363281 C 136.417969 166.667969 137.136719 165.917969 137.792969 165.121094 C 138.449219 164.324219 139.042969 163.484375 139.566406 162.605469 C 140.070312 161.722656 140.484375 160.796875 140.839844 159.847656 C 142.167969 156.21875 142.566406 152.109375 141.257812 148.222656 C 140.5 145.898438 140.695312 146.085938 138.972656 140.917969 L 135.804688 126.3125 "/></g></g></g></g><g clip-rule="nonzero" clip-path="url(#ab9782343e)"><g clip-rule="nonzero" clip-path="url(#ddf3100d12)"><g clip-rule="nonzero" clip-path="url(#cfb75eac9e)"><g clip-rule="nonzero" clip-path="url(#e02ee1b3fb)"><path style=" stroke:none;fill-rule:nonzero;fill:#091b3a;fill-opacity:1;" d="M 79.671875 80.964844 C 79.667969 81.132812 79.671875 81.300781 79.660156 81.46875 C 79.671875 81.300781 79.667969 81.132812 79.671875 80.964844 Z M 79.640625 84.132812 L 79.460938 83.992188 C 79.480469 83.425781 79.535156 82.847656 79.589844 82.269531 C 79.535156 82.847656 79.480469 83.429688 79.460938 83.996094 L 79.464844 84.078125 C 79.464844 84.078125 79.460938 83.996094 79.460938 83.992188 C 79.519531 84.039062 79.582031 84.085938 79.640625 84.132812 Z M 56.945312 33.191406 C 56.957031 33.210938 56.988281 33.253906 56.988281 33.253906 C 56.988281 33.253906 56.949219 33.199219 56.945312 33.191406 Z M 82.320312 119.148438 C 82.320312 119.148438 82.324219 119.160156 82.328125 119.164062 L 82.328125 119.160156 Z M 56.550781 152.660156 C 54.816406 149.335938 53.253906 146.035156 51.761719 142.707031 C 50.316406 139.371094 49.242188 135.964844 48.503906 132.394531 C 51.019531 131.65625 53.445312 133.109375 55.253906 134.558594 C 66.027344 143.339844 73.738281 155.238281 77.046875 168.257812 C 78.613281 166.511719 79.6875 164.554688 80.21875 162.503906 C 80.75 160.449219 80.835938 158.289062 80.601562 156.113281 C 80.480469 155.027344 80.28125 153.933594 80.011719 152.847656 C 79.714844 151.765625 79.34375 150.695312 78.921875 149.636719 C 78.078125 147.527344 77.023438 145.484375 75.871094 143.597656 C 74.675781 141.632812 73.269531 139.734375 71.878906 137.859375 C 70.464844 135.992188 69.035156 134.152344 67.523438 132.347656 C 64.480469 128.800781 61.4375 125.246094 58.425781 121.734375 C 55.4375 118.234375 52.820312 114.695312 50.515625 111.03125 C 49.390625 109.191406 48.414062 107.308594 47.617188 105.355469 C 46.765625 103.417969 46.074219 101.414062 45.613281 99.3125 C 47.496094 100.078125 49.351562 100.90625 51.175781 101.792969 C 53 102.683594 54.796875 103.632812 56.492188 104.65625 C 59.917969 106.695312 63.199219 108.972656 66.316406 111.46875 C 69.339844 113.980469 72.1875 116.710938 74.847656 119.628906 C 77.476562 122.554688 79.785156 125.6875 81.945312 128.96875 C 80.859375 126.40625 79.609375 123.921875 78.265625 121.503906 C 77.609375 120.289062 76.851562 119.105469 76.105469 117.929688 C 75.351562 116.75 74.582031 115.585938 73.808594 114.433594 L 71.46875 110.988281 C 70.683594 109.84375 69.839844 108.722656 69.035156 107.589844 C 67.410156 105.335938 65.835938 103.078125 64.34375 100.796875 C 58.1875 91.679688 53.179688 81.738281 53.960938 70.785156 C 66.28125 79.703125 76.277344 91.554688 82.96875 105.097656 C 82.609375 101.960938 82.035156 98.863281 81.183594 95.835938 C 80.292969 92.820312 79.214844 89.851562 78.019531 86.921875 C 75.488281 81.097656 72.496094 75.445312 69.324219 69.917969 C 68.554688 68.53125 67.789062 67.144531 67.023438 65.757812 C 66.226562 64.382812 65.4375 63.007812 64.679688 61.632812 C 63.917969 60.253906 63.179688 58.871094 62.476562 57.480469 C 61.78125 56.082031 61.085938 54.691406 60.394531 53.304688 C 59.03125 50.511719 57.859375 47.664062 56.867188 44.75 C 55.808594 41.855469 54.976562 38.875 54.4375 35.769531 C 54.339844 35.214844 54.261719 34.621094 54.3125 34.042969 C 54.355469 33.46875 54.515625 32.917969 54.921875 32.441406 C 55.773438 31.433594 57.019531 31.332031 58.261719 31.714844 C 59.511719 32.09375 60.699219 32.980469 61.503906 33.890625 C 63.386719 36.042969 65.144531 38.285156 66.792969 40.609375 C 68.402344 42.949219 69.828125 45.386719 71.199219 47.875 C 71.875 49.121094 72.542969 50.378906 73.160156 51.65625 C 73.753906 52.941406 74.324219 54.242188 74.875 55.550781 C 75.425781 56.863281 75.953125 58.183594 76.460938 59.515625 C 76.96875 60.847656 77.480469 62.183594 77.898438 63.546875 C 78.765625 66.269531 79.5625 69.019531 80.308594 71.785156 C 80.703125 73.164062 81.003906 74.566406 81.3125 75.96875 L 82.210938 80.175781 L 83.050781 84.390625 L 83.730469 88.632812 C 83.949219 90.042969 84.167969 91.453125 84.382812 92.863281 C 84.589844 94.273438 84.832031 95.671875 84.984375 97.082031 L 87.308594 92.613281 C 88.09375 91.121094 88.894531 89.632812 89.71875 88.140625 C 90.539062 86.652344 91.378906 85.15625 92.238281 83.664062 L 94.816406 79.203125 C 96.542969 76.234375 98.34375 73.265625 100.210938 70.300781 C 101.160156 68.820312 102.109375 67.339844 103.054688 65.863281 C 103.996094 64.390625 104.953125 62.925781 105.925781 61.457031 C 106.941406 62.707031 107.691406 64.097656 108.128906 65.59375 C 108.558594 67.09375 108.734375 68.675781 108.695312 70.28125 C 108.65625 71.886719 108.402344 73.515625 107.976562 75.101562 C 107.558594 76.6875 106.964844 78.234375 106.195312 79.691406 C 104.6875 82.605469 102.75 85.265625 100.734375 87.855469 C 98.71875 90.445312 96.648438 92.960938 94.730469 95.621094 C 90.890625 100.988281 88.261719 106.820312 86.589844 112.796875 C 85.054688 118.75 84.457031 124.851562 85.300781 130.75 C 87.863281 126.832031 90.707031 123.019531 93.902344 119.339844 C 94.699219 118.417969 95.511719 117.507812 96.347656 116.605469 C 97.164062 115.707031 97.992188 114.820312 98.84375 113.9375 C 100.542969 112.179688 102.3125 110.464844 104.152344 108.792969 C 107.816406 105.453125 111.796875 102.285156 115.902344 99.390625 C 120.007812 96.496094 124.34375 93.851562 128.867188 91.523438 C 128.066406 93.429688 127.207031 95.300781 126.296875 97.132812 C 125.398438 98.96875 124.355469 100.785156 123.3125 102.554688 C 121.199219 106.09375 118.890625 109.480469 116.386719 112.699219 C 113.8125 115.929688 111.054688 118.988281 108.132812 121.855469 C 105.210938 124.726562 102.136719 127.40625 98.8125 129.902344 C 96.066406 131.976562 93.148438 134 90.585938 136.210938 C 88.015625 138.425781 85.859375 140.820312 84.441406 143.671875 C 83.320312 145.972656 82.867188 148.363281 82.746094 150.800781 C 82.710938 151.410156 82.710938 152.023438 82.703125 152.636719 C 82.6875 153.253906 82.6875 153.875 82.699219 154.492188 C 82.71875 155.734375 82.777344 156.980469 82.832031 158.222656 C 83.109375 163.179688 83.019531 168.140625 80.175781 172.339844 C 85.496094 163.933594 91.96875 155.8125 99.386719 148.199219 C 103.0625 144.398438 107.023438 140.722656 111.222656 137.21875 C 115.339844 133.726562 119.714844 130.402344 124.300781 127.308594 C 124.027344 129.261719 123.59375 131.15625 123.027344 133 C 122.742188 133.917969 122.425781 134.828125 122.074219 135.722656 C 121.703125 136.621094 121.300781 137.503906 120.867188 138.378906 C 119.144531 141.867188 116.964844 145.148438 114.507812 148.253906 C 111.992188 151.371094 109.164062 154.3125 106.253906 157.113281 C 104.792969 158.515625 103.308594 159.882812 101.820312 161.222656 C 100.308594 162.5625 98.769531 163.878906 97.257812 165.171875 C 94.234375 167.753906 91.191406 170.398438 88.3125 173.113281 C 85.386719 175.828125 82.570312 178.617188 80.132812 181.492188 C 78.894531 182.933594 77.796875 184.390625 76.71875 185.878906 C 75.648438 187.367188 74.6875 188.882812 73.855469 190.425781 C 73.027344 191.972656 72.332031 193.550781 71.792969 195.164062 C 71.226562 196.78125 70.773438 198.4375 70.519531 200.136719 C 72.125 198.71875 73.757812 197.308594 75.417969 195.90625 C 77.0625 194.5 78.691406 193.101562 80.371094 191.710938 C 83.710938 188.929688 87.210938 186.167969 90.714844 183.445312 C 97.65625 178 105.117188 172.675781 112.628906 167.574219 C 114.140625 166.558594 116.425781 165.585938 117.664062 166.863281 C 118.613281 167.84375 118.09375 169.394531 117.480469 170.585938 C 113.511719 178.03125 107.859375 184.234375 101.347656 189.777344 C 94.960938 195.324219 87.671875 200.21875 80.914062 205.082031 C 77.507812 207.515625 74.035156 210.042969 70.828125 212.667969 C 69.210938 213.980469 67.675781 215.316406 66.15625 216.679688 C 64.625 218.042969 63.167969 219.433594 61.808594 220.851562 C 60.445312 222.269531 59.175781 223.714844 58.023438 225.195312 C 56.867188 226.675781 55.75 228.1875 54.8125 229.734375 C 53.863281 231.285156 53.046875 232.875 52.394531 234.507812 C 51.746094 236.144531 51.152344 237.816406 50.789062 239.546875 C 52.542969 238.097656 54.386719 236.671875 56.234375 235.269531 C 58.066406 233.871094 59.953125 232.496094 61.898438 231.148438 C 63.84375 229.800781 65.84375 228.480469 67.890625 227.195312 C 69.945312 225.90625 71.96875 224.644531 74.085938 223.421875 C 78.292969 220.972656 82.699219 218.652344 87.242188 216.5 C 91.726562 214.34375 96.371094 212.347656 101.148438 210.550781 C 98.667969 217.402344 93.257812 222.652344 87.015625 227.027344 C 83.835938 229.21875 80.386719 231.191406 76.917969 233.0625 C 73.4375 234.929688 69.96875 236.695312 66.53125 238.457031 C 63.917969 239.8125 61.355469 241.207031 58.859375 242.640625 C 56.355469 244.070312 53.953125 245.542969 51.511719 247.039062 C 49.09375 248.539062 46.746094 250.074219 44.480469 251.644531 C 43.34375 252.425781 42.238281 253.21875 41.136719 254.019531 C 40.011719 254.816406 38.910156 255.621094 37.828125 256.4375 C 35.667969 258.066406 33.589844 259.726562 31.609375 261.417969 C 29.609375 263.109375 27.625 264.824219 25.785156 266.578125 C 22.144531 270.089844 18.628906 273.695312 15.683594 277.472656 C 16.246094 274.609375 17.898438 272.144531 20.09375 269.832031 C 22.210938 267.507812 24.851562 265.335938 27.492188 263.113281 C 28.828125 262.003906 30.097656 260.871094 31.292969 259.707031 C 32.492188 258.542969 33.617188 257.347656 34.597656 256.097656 C 36.597656 253.605469 37.855469 250.875 38.003906 247.820312 C 38.054688 246.6875 37.941406 245.558594 37.714844 244.441406 C 37.488281 243.324219 37.078125 242.210938 36.640625 241.109375 C 35.753906 238.90625 34.609375 236.746094 33.621094 234.613281 C 27.777344 222.316406 26.148438 209.519531 28.921875 197.019531 C 38.738281 209.878906 44.496094 225.238281 45.496094 240.894531 C 48.472656 238.65625 50.179688 235.632812 50.78125 232.332031 C 51.417969 229.03125 51.253906 225.476562 50.492188 222.167969 C 50.070312 220.207031 49.546875 218.265625 48.960938 216.339844 C 48.359375 214.417969 47.609375 212.507812 46.875 210.617188 C 46.113281 208.730469 45.378906 206.855469 44.542969 205 C 43.703125 203.140625 42.863281 201.292969 42.0625 199.457031 C 41.277344 197.625 40.496094 195.792969 39.71875 193.96875 C 38.957031 192.144531 38.265625 190.320312 37.675781 188.488281 C 37.117188 186.65625 36.519531 184.824219 36.117188 182.96875 C 35.699219 181.117188 35.421875 179.246094 35.308594 177.34375 C 40.089844 178.027344 43.1875 181.417969 45.597656 184.722656 C 52.9375 194.957031 57.566406 206.832031 58.984375 219.058594 C 60.082031 218.085938 60.917969 216.980469 61.511719 215.785156 C 62.078125 214.59375 62.421875 213.308594 62.597656 211.988281 C 62.773438 210.664062 62.777344 209.300781 62.671875 207.941406 C 62.617188 207.261719 62.535156 206.582031 62.433594 205.914062 C 62.304688 205.242188 62.160156 204.578125 62 203.925781 C 61.402344 201.519531 60.65625 199.140625 59.8125 196.789062 C 58.953125 194.441406 57.890625 192.121094 56.84375 189.828125 L 55.230469 186.410156 C 54.675781 185.277344 54.070312 184.152344 53.492188 183.03125 C 52.328125 180.789062 51.171875 178.566406 50.082031 176.359375 C 48.917969 174.152344 47.816406 171.957031 46.835938 169.761719 C 46.339844 168.664062 45.898438 167.5625 45.445312 166.464844 C 44.984375 165.367188 44.558594 164.265625 44.175781 163.160156 C 43.394531 160.949219 42.839844 158.710938 42.410156 156.445312 C 41.957031 154.183594 41.730469 151.882812 41.78125 149.515625 C 48.8125 155.164062 54.832031 161.878906 59.433594 169.347656 C 60.582031 171.210938 61.667969 173.121094 62.683594 175.070312 C 63.664062 177.019531 64.527344 179.011719 65.347656 181.035156 C 67.03125 185.078125 68.195312 189.257812 69.109375 193.503906 C 69.023438 193.109375 70.277344 191.695312 70.503906 191.269531 C 71 190.347656 71.417969 189.390625 71.761719 188.417969 C 72.105469 187.445312 72.371094 186.453125 72.558594 185.449219 C 72.734375 184.445312 72.800781 183.433594 72.808594 182.421875 C 72.808594 178.554688 71.769531 174.5625 69.203125 171.359375 C 67.691406 169.4375 67.941406 169.550781 64.546875 165.285156 L 56.550781 152.660156 "/></g></g></g></g></g></svg>