<svg xmlns="http://www.w3.org/2000/svg" xmlns:xlink="http://www.w3.org/1999/xlink" width="427" zoomAndPan="magnify" viewBox="0 0 320.25 96.749999" height="129" preserveAspectRatio="xMidYMid meet" version="1.2"><defs><clipPath id="74ddcfc231"><path d="M 0.0390625 0 L 318.949219 0 L 318.949219 95.824219 L 0.0390625 95.824219 Z M 0.0390625 0 "/></clipPath><clipPath id="e94dd4d1d2"><path d="M 47.949219 0 L 271 0 C 283.707031 0 295.894531 5.046875 304.878906 14.03125 C 313.863281 23.019531 318.914062 35.203125 318.914062 47.910156 C 318.914062 60.617188 313.863281 72.804688 304.878906 81.789062 C 295.894531 90.777344 283.707031 95.824219 271 95.824219 L 47.949219 95.824219 C 35.242188 95.824219 23.058594 90.777344 14.070312 81.789062 C 5.085938 72.804688 0.0390625 60.617188 0.0390625 47.910156 C 0.0390625 35.203125 5.085938 23.019531 14.070312 14.03125 C 23.058594 5.046875 35.242188 0 47.949219 0 Z M 47.949219 0 "/></clipPath><clipPath id="1f057ac258"><path d="M 0.0390625 0 L 318.714844 0 L 318.714844 95.753906 L 0.0390625 95.753906 Z M 0.0390625 0 "/></clipPath><clipPath id="79b1849e21"><path d="M 47.914062 0 L 270.792969 0 C 283.492188 0 295.667969 5.046875 304.648438 14.023438 C 313.625 23 318.667969 35.179688 318.667969 47.875 C 318.667969 60.574219 313.625 72.75 304.648438 81.730469 C 295.667969 90.707031 283.492188 95.75 270.792969 95.75 L 47.914062 95.75 C 35.214844 95.75 23.039062 90.707031 14.0625 81.730469 C 5.082031 72.75 0.0390625 60.574219 0.0390625 47.875 C 0.0390625 35.179688 5.082031 23 14.0625 14.023438 C 23.039062 5.046875 35.214844 0 47.914062 0 Z M 47.914062 0 "/></clipPath><clipPath id="312d861c4b"><path d="M 217.199219 19.933594 L 225.488281 19.933594 L 225.488281 28.226562 L 217.199219 28.226562 Z M 217.199219 19.933594 "/></clipPath><clipPath id="ac5f261f73"><path d="M 221.34375 19.933594 C 219.054688 19.933594 217.199219 21.792969 217.199219 24.082031 C 217.199219 26.371094 219.054688 28.226562 221.34375 28.226562 C 223.632812 28.226562 225.488281 26.371094 225.488281 24.082031 C 225.488281 21.792969 223.632812 19.933594 221.34375 19.933594 Z M 221.34375 19.933594 "/></clipPath></defs><g id="12b30bddd3"><g clip-rule="nonzero" clip-path="url(#74ddcfc231)"><g clip-rule="nonzero" clip-path="url(#e94dd4d1d2)"><path style=" stroke:none;fill-rule:nonzero;fill:#ea5f04;fill-opacity:1;" d="M 0.0390625 0 L 318.949219 0 L 318.949219 95.824219 L 0.0390625 95.824219 Z M 0.0390625 0 "/></g></g><g clip-rule="nonzero" clip-path="url(#1f057ac258)"><g clip-rule="nonzero" clip-path="url(#79b1849e21)"><path style="fill:none;stroke-width:14;stroke-linecap:butt;stroke-linejoin:miter;stroke:#201b0d;stroke-opacity:1;stroke-miterlimit:4;" d="M 64.04569 -0.00172611 L 362.20368 -0.00172611 C 379.192159 -0.00172611 395.480405 6.74977 407.494097 18.758236 C 419.502563 30.766703 426.248834 47.060174 426.248834 64.043427 C 426.248834 81.031906 419.502563 97.320152 407.494097 109.333844 C 395.480405 121.34231 379.192159 128.088581 362.20368 128.088581 L 64.04569 128.088581 C 47.057211 128.088581 30.768965 121.34231 18.760499 109.333844 C 6.746807 97.320152 0.00053651 81.031906 0.00053651 64.043427 C 0.00053651 47.060174 6.746807 30.766703 18.760499 18.758236 C 30.768965 6.74977 47.057211 -0.00172611 64.04569 -0.00172611 Z M 64.04569 -0.00172611 " transform="matrix(0.747519,0,0,0.747519,0.0386614,0.0012903)"/></g></g><g clip-rule="nonzero" clip-path="url(#312d861c4b)"><g clip-rule="nonzero" clip-path="url(#ac5f261f73)"><path style=" stroke:none;fill-rule:nonzero;fill:#ea5f04;fill-opacity:1;" d="M 217.199219 19.933594 L 225.488281 19.933594 L 225.488281 28.226562 L 217.199219 28.226562 Z M 217.199219 19.933594 "/></g></g></g></svg>