<svg xmlns="http://www.w3.org/2000/svg" xmlns:xlink="http://www.w3.org/1999/xlink" width="495" zoomAndPan="magnify" viewBox="0 0 371.25 118.499997" height="158" preserveAspectRatio="xMidYMid meet" version="1.2"><defs><clipPath id="9294dcc7c0"><path d="M 293 16 L 369.351562 16 L 369.351562 93 L 293 93 Z M 293 16 "/></clipPath><clipPath id="0355ddfbf0"><path d="M 0.617188 112 L 6 112 L 6 117.710938 L 0.617188 117.710938 Z M 0.617188 112 "/></clipPath><clipPath id="96ee065a73"><path d="M 159.847656 103.960938 L 162.621094 103.960938 L 162.621094 106.738281 L 159.847656 106.738281 Z M 159.847656 103.960938 "/></clipPath><clipPath id="60553eb9cd"><path d="M 161.234375 103.960938 C 160.46875 103.960938 159.847656 104.582031 159.847656 105.351562 C 159.847656 106.117188 160.46875 106.738281 161.234375 106.738281 C 162 106.738281 162.621094 106.117188 162.621094 105.351562 C 162.621094 104.582031 162 103.960938 161.234375 103.960938 Z M 161.234375 103.960938 "/></clipPath></defs><g id="ffda1adda8"><g clip-rule="nonzero" clip-path="url(#9294dcc7c0)"><path style=" stroke:none;fill-rule:nonzero;fill:#7b1a3c;fill-opacity:1;" d="M 331.214844 16.726562 C 352.234375 16.726562 369.335938 33.828125 369.335938 54.847656 C 369.335938 75.863281 352.234375 92.964844 331.214844 92.964844 C 310.199219 92.964844 293.097656 75.863281 293.097656 54.847656 C 293.097656 33.828125 310.199219 16.726562 331.214844 16.726562 Z M 331.214844 88.867188 C 349.976562 88.867188 365.238281 73.605469 365.238281 54.847656 C 365.238281 36.085938 349.976562 20.824219 331.214844 20.824219 C 312.457031 20.824219 297.195312 36.085938 297.195312 54.847656 C 297.195312 73.605469 312.457031 88.867188 331.214844 88.867188 Z M 331.214844 88.867188 "/></g><path style=" stroke:none;fill-rule:nonzero;fill:#7b1a3c;fill-opacity:1;" d="M 297.84375 73.265625 L 200.050781 73.265625 L 200.050781 70.808594 L 297.84375 70.808594 Z M 297.84375 73.265625 "/><path style=" stroke:none;fill-rule:nonzero;fill:#7b1a3c;fill-opacity:1;" d="M 200.300781 66.953125 C 197.496094 66.953125 195.21875 69.230469 195.21875 72.039062 C 195.21875 74.84375 197.496094 77.121094 200.300781 77.121094 C 203.109375 77.121094 205.386719 74.84375 205.386719 72.039062 C 205.386719 69.230469 203.109375 66.953125 200.300781 66.953125 Z M 200.300781 66.953125 "/><path style=" stroke:none;fill-rule:nonzero;fill:#7b1a3c;fill-opacity:1;" d="M 296.027344 48.320312 L 198.542969 48.320312 L 198.542969 45.863281 L 296.027344 45.863281 Z M 296.027344 48.320312 "/><path style=" stroke:none;fill-rule:nonzero;fill:#7b1a3c;fill-opacity:1;" d="M 198.800781 42.007812 C 195.996094 42.007812 193.71875 44.285156 193.71875 47.089844 C 193.71875 49.898438 195.996094 52.175781 198.800781 52.175781 C 201.609375 52.175781 203.886719 49.898438 203.886719 47.089844 C 203.886719 44.285156 201.609375 42.007812 198.800781 42.007812 Z M 198.800781 42.007812 "/><path style=" stroke:none;fill-rule:nonzero;fill:#7b1a3c;fill-opacity:1;" d="M 295.878906 57.757812 L 191.6875 57.757812 L 191.6875 55.300781 L 295.878906 55.300781 Z M 295.878906 57.757812 "/><path style=" stroke:none;fill-rule:nonzero;fill:#7b1a3c;fill-opacity:1;" d="M 191.941406 51.449219 C 189.136719 51.449219 186.859375 53.726562 186.859375 56.535156 C 186.859375 59.339844 189.136719 61.617188 191.941406 61.617188 C 194.746094 61.617188 197.023438 59.339844 197.023438 56.535156 C 197.023438 53.726562 194.746094 51.449219 191.941406 51.449219 Z M 191.941406 51.449219 "/><path style=" stroke:none;fill-rule:nonzero;fill:#7b1a3c;fill-opacity:1;" d="M 305.46875 31.464844 L 178.757812 31.464844 L 178.757812 29.007812 L 305.46875 29.007812 Z M 305.46875 31.464844 "/><path style=" stroke:none;fill-rule:nonzero;fill:#7b1a3c;fill-opacity:1;" d="M 179.011719 25.152344 C 176.207031 25.152344 173.929688 27.429688 173.929688 30.234375 C 173.929688 33.042969 176.207031 35.320312 179.011719 35.320312 C 181.820312 35.320312 184.097656 33.042969 184.097656 30.234375 C 184.097656 27.429688 181.820312 25.152344 179.011719 25.152344 Z M 179.011719 25.152344 "/><path style=" stroke:none;fill-rule:nonzero;fill:#7b1a3c;fill-opacity:1;" d="M 308.628906 82.03125 L 95.675781 82.03125 L 95.675781 79.574219 L 308.628906 79.574219 Z M 308.628906 82.03125 "/><path style=" stroke:none;fill-rule:nonzero;fill:#7b1a3c;fill-opacity:1;" d="M 95.929688 75.71875 C 93.125 75.71875 90.847656 77.996094 90.847656 80.804688 C 90.847656 83.609375 93.125 85.886719 95.929688 85.886719 C 98.734375 85.886719 101.011719 83.609375 101.011719 80.804688 C 101.011719 77.996094 98.734375 75.71875 95.929688 75.71875 Z M 95.929688 75.71875 "/><path style=" stroke:none;fill-rule:nonzero;fill:#7b1a3c;fill-opacity:1;" d="M 93.785156 80.386719 L 60.558594 113.613281 L 59.109375 112.164062 L 92.335938 78.9375 Z M 93.785156 80.386719 "/><path style=" stroke:none;fill-rule:nonzero;fill:#7b1a3c;fill-opacity:1;" d="M 56.988281 109.742188 C 55.332031 111.398438 55.332031 114.078125 56.988281 115.730469 C 58.640625 117.386719 61.320312 117.386719 62.976562 115.730469 C 64.628906 114.078125 64.628906 111.398438 62.976562 109.742188 C 61.320312 108.089844 58.640625 108.089844 56.988281 109.742188 Z M 56.988281 109.742188 "/><path style=" stroke:none;fill-rule:nonzero;fill:#7b1a3c;fill-opacity:1;" d="M 58.703125 115.773438 L 3.242188 115.773438 L 3.242188 114.542969 L 58.703125 114.542969 Z M 58.703125 115.773438 "/><g clip-rule="nonzero" clip-path="url(#0355ddfbf0)"><path style=" stroke:none;fill-rule:nonzero;fill:#7b1a3c;fill-opacity:1;" d="M 3.367188 112.617188 C 1.960938 112.617188 0.828125 113.757812 0.828125 115.160156 C 0.828125 116.558594 1.964844 117.699219 3.367188 117.699219 C 4.769531 117.699219 5.90625 116.558594 5.90625 115.160156 C 5.90625 113.757812 4.769531 112.617188 3.367188 112.617188 Z M 3.367188 112.617188 "/></g><path style=" stroke:none;fill-rule:nonzero;fill:#7b1a3c;fill-opacity:1;" d="M 69.695312 103.667969 L 14.800781 103.667969 L 14.800781 102.441406 L 69.695312 102.441406 Z M 69.695312 103.667969 "/><path style=" stroke:none;fill-rule:nonzero;fill:#7b1a3c;fill-opacity:1;" d="M 14.925781 100.511719 C 13.523438 100.511719 12.386719 101.648438 12.386719 103.050781 C 12.386719 104.449219 13.527344 105.589844 14.925781 105.589844 C 16.328125 105.589844 17.46875 104.449219 17.46875 103.050781 C 17.46875 101.648438 16.328125 100.511719 14.925781 100.511719 Z M 14.925781 100.511719 "/><path style=" stroke:none;fill-rule:nonzero;fill:#7b1a3c;fill-opacity:1;" d="M 79.136719 92.203125 L 6.699219 92.203125 L 6.699219 90.972656 L 79.136719 90.972656 Z M 79.136719 92.203125 "/><path style=" stroke:none;fill-rule:nonzero;fill:#7b1a3c;fill-opacity:1;" d="M 6.824219 89.050781 C 5.417969 89.050781 4.285156 90.1875 4.285156 91.589844 C 4.285156 92.988281 5.425781 94.128906 6.824219 94.128906 C 8.226562 94.128906 9.363281 92.988281 9.363281 91.589844 C 9.363281 90.1875 8.226562 89.050781 6.824219 89.050781 Z M 6.824219 89.050781 "/><path style=" stroke:none;fill-rule:nonzero;fill:#7b1a3c;fill-opacity:1;" d="M 176.300781 30.257812 L 140.757812 65.804688 L 139.308594 64.355469 L 174.855469 28.8125 Z M 176.300781 30.257812 "/><path style=" stroke:none;fill-rule:nonzero;fill:#7b1a3c;fill-opacity:1;" d="M 137.183594 61.9375 C 135.527344 63.589844 135.527344 66.269531 137.183594 67.925781 C 138.835938 69.578125 141.515625 69.578125 143.171875 67.925781 C 144.828125 66.269531 144.828125 63.589844 143.171875 61.9375 C 141.515625 60.28125 138.835938 60.28125 137.183594 61.9375 Z M 137.183594 61.9375 "/><path style=" stroke:none;fill-rule:nonzero;fill:#7b1a3c;fill-opacity:1;" d="M 195.824219 46.574219 L 194.378906 48.023438 L 152.542969 6.1875 L 153.988281 4.738281 Z M 195.824219 46.574219 "/><path style=" stroke:none;fill-rule:nonzero;fill:#7b1a3c;fill-opacity:1;" d="M 156.40625 2.613281 C 154.75 0.960938 152.074219 0.960938 150.417969 2.613281 C 148.761719 4.269531 148.761719 6.949219 150.417969 8.601562 C 152.074219 10.257812 154.75 10.257812 156.40625 8.601562 C 158.0625 6.949219 158.0625 4.269531 156.40625 2.613281 Z M 156.40625 2.613281 "/><path style=" stroke:none;fill-rule:nonzero;fill:#7b1a3c;fill-opacity:1;" d="M 197.171875 72.089844 L 161.878906 107.382812 L 160.429688 105.933594 L 195.726562 70.640625 Z M 197.171875 72.089844 "/><path style=" stroke:none;fill-rule:nonzero;fill:#7b1a3c;fill-opacity:1;" d="M 158.308594 103.511719 C 156.652344 105.167969 156.652344 107.847656 158.308594 109.5 C 159.960938 111.15625 162.640625 111.15625 164.296875 109.5 C 165.949219 107.847656 165.949219 105.167969 164.296875 103.511719 C 162.640625 101.859375 159.960938 101.859375 158.308594 103.511719 Z M 158.308594 103.511719 "/><path style=" stroke:none;fill-rule:nonzero;fill:#7b1a3c;fill-opacity:1;" d="M 189.136719 56.785156 L 149.484375 96.4375 L 148.039062 94.988281 L 187.691406 55.335938 Z M 189.136719 56.785156 "/><path style=" stroke:none;fill-rule:nonzero;fill:#7b1a3c;fill-opacity:1;" d="M 145.917969 92.570312 C 144.261719 94.226562 144.261719 96.90625 145.917969 98.558594 C 147.570312 100.214844 150.25 100.214844 151.90625 98.558594 C 153.558594 96.90625 153.558594 94.226562 151.90625 92.570312 C 150.25 90.917969 147.570312 90.917969 145.917969 92.570312 Z M 145.917969 92.570312 "/><path style=" stroke:none;fill-rule:nonzero;fill:#7b1a3c;fill-opacity:1;" d="M 137.789062 66.585938 L 84.714844 66.585938 L 84.714844 65.355469 L 137.789062 65.355469 Z M 137.789062 66.585938 "/><path style=" stroke:none;fill-rule:nonzero;fill:#7b1a3c;fill-opacity:1;" d="M 84.84375 63.425781 C 83.441406 63.425781 82.304688 64.566406 82.304688 65.96875 C 82.304688 67.367188 83.445312 68.507812 84.84375 68.507812 C 86.246094 68.507812 87.386719 67.367188 87.386719 65.96875 C 87.386719 64.566406 86.246094 63.425781 84.84375 63.425781 Z M 84.84375 63.425781 "/><path style=" stroke:none;fill-rule:nonzero;fill:#7b1a3c;fill-opacity:1;" d="M 149.253906 57.144531 L 123.0625 57.144531 L 123.0625 55.914062 L 149.253906 55.914062 Z M 149.253906 57.144531 "/><path style=" stroke:none;fill-rule:nonzero;fill:#7b1a3c;fill-opacity:1;" d="M 123.191406 53.988281 C 121.785156 53.988281 120.652344 55.128906 120.652344 56.527344 C 120.652344 57.929688 121.789062 59.070312 123.191406 59.070312 C 124.589844 59.070312 125.730469 57.929688 125.730469 56.527344 C 125.730469 55.128906 124.589844 53.988281 123.191406 53.988281 Z M 123.191406 53.988281 "/><path style=" stroke:none;fill-rule:nonzero;fill:#7b1a3c;fill-opacity:1;" d="M 159.367188 46.359375 L 117.628906 46.359375 L 117.628906 45.128906 L 159.367188 45.128906 Z M 159.367188 46.359375 "/><path style=" stroke:none;fill-rule:nonzero;fill:#7b1a3c;fill-opacity:1;" d="M 117.753906 43.203125 C 116.347656 43.203125 115.214844 44.34375 115.214844 45.742188 C 115.214844 47.144531 116.355469 48.285156 117.753906 48.285156 C 119.15625 48.285156 120.292969 47.144531 120.292969 45.742188 C 120.292969 44.34375 119.15625 43.203125 117.753906 43.203125 Z M 117.753906 43.203125 "/><path style=" stroke:none;fill-rule:nonzero;fill:#7b1a3c;fill-opacity:1;" d="M 160.714844 108.386719 L 121.554688 108.386719 L 121.554688 107.160156 L 160.714844 107.160156 Z M 160.714844 108.386719 "/><path style=" stroke:none;fill-rule:nonzero;fill:#7b1a3c;fill-opacity:1;" d="M 121.683594 105.230469 C 120.277344 105.230469 119.144531 106.367188 119.144531 107.769531 C 119.144531 109.167969 120.28125 110.308594 121.683594 110.308594 C 123.082031 110.308594 124.222656 109.167969 124.222656 107.769531 C 124.222656 106.367188 123.082031 105.230469 121.683594 105.230469 Z M 121.683594 105.230469 "/><path style=" stroke:none;fill-rule:nonzero;fill:#7b1a3c;fill-opacity:1;" d="M 147.3125 97.539062 L 106.53125 97.539062 L 106.53125 96.3125 L 147.3125 96.3125 Z M 147.3125 97.539062 "/><path style=" stroke:none;fill-rule:nonzero;fill:#7b1a3c;fill-opacity:1;" d="M 106.65625 94.386719 C 105.253906 94.386719 104.117188 95.523438 104.117188 96.925781 C 104.117188 98.328125 105.257812 99.464844 106.65625 99.464844 C 108.058594 99.464844 109.199219 98.328125 109.199219 96.925781 C 109.199219 95.523438 108.058594 94.386719 106.65625 94.386719 Z M 106.65625 94.386719 "/><path style=" stroke:none;fill-rule:nonzero;fill:#7b1a3c;fill-opacity:1;" d="M 151.949219 3.207031 L 102.054688 3.207031 L 102.054688 1.980469 L 151.949219 1.980469 Z M 151.949219 3.207031 "/><path style=" stroke:none;fill-rule:nonzero;fill:#7b1a3c;fill-opacity:1;" d="M 127.777344 0.0507812 C 126.371094 0.0507812 125.238281 1.1875 125.238281 2.589844 C 125.238281 3.992188 126.378906 5.128906 127.777344 5.128906 C 129.179688 5.128906 130.316406 3.992188 130.316406 2.589844 C 130.316406 1.1875 129.179688 0.0507812 127.777344 0.0507812 Z M 127.777344 0.0507812 "/><path style=" stroke:none;fill-rule:nonzero;fill:#7b1a3c;fill-opacity:1;" d="M 155.640625 9.273438 L 118.941406 9.273438 L 118.941406 8.046875 L 155.640625 8.046875 Z M 155.640625 9.273438 "/><path style=" stroke:none;fill-rule:nonzero;fill:#7b1a3c;fill-opacity:1;" d="M 119.070312 6.121094 C 117.664062 6.121094 116.53125 7.261719 116.53125 8.660156 C 116.53125 10.0625 117.667969 11.199219 119.070312 11.199219 C 120.46875 11.199219 121.609375 10.0625 121.609375 8.660156 C 121.609375 7.261719 120.46875 6.121094 119.070312 6.121094 Z M 119.070312 6.121094 "/><g clip-rule="nonzero" clip-path="url(#96ee065a73)"><g clip-rule="nonzero" clip-path="url(#60553eb9cd)"><path style=" stroke:none;fill-rule:nonzero;fill:#7b1a3c;fill-opacity:1;" d="M 159.847656 103.960938 L 162.621094 103.960938 L 162.621094 106.738281 L 159.847656 106.738281 Z M 159.847656 103.960938 "/></g></g></g></svg>