<svg xmlns="http://www.w3.org/2000/svg" xmlns:xlink="http://www.w3.org/1999/xlink" width="66" zoomAndPan="magnify" viewBox="0 0 49.5 49.499998" height="66" preserveAspectRatio="xMidYMid meet" version="1.2"><defs><clipPath id="c5c0704717"><path d="M 0 0 L 48.261719 0 L 48.261719 48.261719 L 0 48.261719 Z M 0 0 "/></clipPath><clipPath id="65e19f529f"><path d="M 20.390625 20.390625 L 27.941406 20.390625 L 27.941406 27.941406 L 20.390625 27.941406 Z M 20.390625 20.390625 "/></clipPath><clipPath id="de4be80c07"><path d="M 24.164062 20.390625 C 22.078125 20.390625 20.390625 22.078125 20.390625 24.164062 C 20.390625 26.25 22.078125 27.941406 24.164062 27.941406 C 26.25 27.941406 27.941406 26.25 27.941406 24.164062 C 27.941406 22.078125 26.25 20.390625 24.164062 20.390625 Z M 24.164062 20.390625 "/></clipPath></defs><g id="43e1ccf1ec"><path style=" stroke:none;fill-rule:nonzero;fill:#ffffff;fill-opacity:1;" d="M 18.695312 35.324219 C 15.667969 36.035156 15.089844 36.613281 14.375 39.640625 C 13.664062 36.613281 13.085938 36.035156 10.058594 35.324219 C 13.085938 34.613281 13.664062 34.035156 14.375 31.007812 C 15.089844 34.035156 15.664062 34.613281 18.695312 35.324219 Z M 18.695312 35.324219 "/><g clip-rule="nonzero" clip-path="url(#c5c0704717)"><path style=" stroke:none;fill-rule:nonzero;fill:#ffffff;fill-opacity:1;" d="M 48.257812 24.128906 C 25.945312 25.132812 25.132812 25.945312 24.128906 48.257812 C 23.125 25.945312 22.3125 25.132812 0 24.128906 C 22.3125 23.125 23.125 22.3125 24.128906 0 C 25.132812 22.3125 25.945312 23.125 48.257812 24.128906 Z M 48.257812 24.128906 "/></g><path style=" stroke:none;fill-rule:nonzero;fill:#ffffff;fill-opacity:1;" d="M 18.679688 11.386719 C 13.699219 11.609375 13.515625 11.789062 13.292969 16.773438 C 13.066406 11.789062 12.886719 11.609375 7.902344 11.386719 C 12.886719 11.160156 13.066406 10.980469 13.292969 5.996094 C 13.515625 10.980469 13.699219 11.160156 18.679688 11.386719 Z M 18.679688 11.386719 "/><path style=" stroke:none;fill-rule:nonzero;fill:#ffffff;fill-opacity:1;" d="M 45.738281 10.929688 C 38.421875 11.257812 38.152344 11.523438 37.824219 18.839844 C 37.496094 11.523438 37.230469 11.257812 29.910156 10.929688 C 37.230469 10.597656 37.496094 10.332031 37.824219 3.015625 C 38.152344 10.332031 38.421875 10.597656 45.738281 10.929688 Z M 45.738281 10.929688 "/><path style=" stroke:none;fill-rule:nonzero;fill:#ffffff;fill-opacity:1;" d="M 45.738281 5.539062 C 43.746094 5.628906 43.671875 5.703125 43.582031 7.695312 C 43.492188 5.703125 43.417969 5.628906 41.425781 5.539062 C 43.417969 5.449219 43.492188 5.378906 43.582031 3.382812 C 43.671875 5.378906 43.746094 5.449219 45.738281 5.539062 Z M 45.738281 5.539062 "/><path style=" stroke:none;fill-rule:nonzero;fill:#ffffff;fill-opacity:1;" d="M 33.304688 3.015625 C 31.3125 3.105469 31.242188 3.175781 31.152344 5.171875 C 31.0625 3.175781 30.988281 3.105469 28.996094 3.015625 C 30.988281 2.925781 31.0625 2.851562 31.152344 0.859375 C 31.242188 2.851562 31.3125 2.925781 33.304688 3.015625 Z M 33.304688 3.015625 "/><g clip-rule="nonzero" clip-path="url(#65e19f529f)"><g clip-rule="nonzero" clip-path="url(#de4be80c07)"><path style=" stroke:none;fill-rule:nonzero;fill:#ffffff;fill-opacity:1;" d="M 20.390625 20.390625 L 27.941406 20.390625 L 27.941406 27.941406 L 20.390625 27.941406 Z M 20.390625 20.390625 "/></g></g></g></svg>