<svg xmlns="http://www.w3.org/2000/svg" xmlns:xlink="http://www.w3.org/1999/xlink" width="1131" zoomAndPan="magnify" viewBox="0 0 848.25 739.499982" height="986" preserveAspectRatio="xMidYMid meet" version="1.2"><defs><clipPath id="90fa60e631"><path d="M 193.597656 98.121094 L 757.101562 98.121094 L 757.101562 661.621094 L 193.597656 661.621094 Z M 193.597656 98.121094 "/></clipPath><clipPath id="5bb8c55864"><path d="M 475.351562 98.121094 C 319.742188 98.121094 193.597656 224.265625 193.597656 379.871094 C 193.597656 535.476562 319.742188 661.621094 475.351562 661.621094 C 630.957031 661.621094 757.101562 535.476562 757.101562 379.871094 C 757.101562 224.265625 630.957031 98.121094 475.351562 98.121094 Z M 475.351562 98.121094 "/></clipPath><clipPath id="3d21a63478"><path d="M 261 241 L 829 241 L 829 468 L 261 468 Z M 261 241 "/></clipPath><clipPath id="e0e5ada038"><path d="M 242.5625 311.859375 L 808.722656 200.605469 L 847.300781 396.925781 L 281.140625 508.179688 Z M 242.5625 311.859375 "/></clipPath><clipPath id="23a05e7154"><path d="M 242.570312 311.859375 L 810.765625 200.207031 L 849.601562 397.839844 L 281.40625 509.492188 Z M 242.570312 311.859375 "/></clipPath><clipPath id="91abed45f1"><path d="M 525.527344 256.257812 C 369.253906 286.964844 251.207031 355.800781 261.855469 410.007812 C 272.507812 464.210938 407.828125 483.261719 564.101562 452.550781 C 720.375 421.84375 838.421875 353.007812 827.769531 298.800781 C 817.121094 244.597656 681.800781 225.546875 525.527344 256.257812 Z M 525.527344 256.257812 "/></clipPath><clipPath id="e3d326d6ba"><path d="M 124.71875 18.402344 L 844.832031 18.402344 L 844.832031 738.515625 L 124.71875 738.515625 Z M 124.71875 18.402344 "/></clipPath><clipPath id="9de3f44a31"><path d="M 484.777344 18.402344 C 285.921875 18.402344 124.71875 179.605469 124.71875 378.457031 C 124.71875 577.3125 285.921875 738.515625 484.777344 738.515625 C 683.628906 738.515625 844.832031 577.3125 844.832031 378.457031 C 844.832031 179.605469 683.628906 18.402344 484.777344 18.402344 Z M 484.777344 18.402344 "/></clipPath><clipPath id="ef0be965ac"><path d="M 121.878906 375.460938 L 127.5625 375.460938 L 127.5625 384.648438 L 121.878906 384.648438 Z M 121.878906 375.460938 "/></clipPath><clipPath id="c2b567809d"><path d="M 124.71875 375.460938 C 123.152344 375.460938 121.878906 377.515625 121.878906 380.046875 C 121.878906 382.578125 123.152344 384.628906 124.71875 384.628906 C 126.289062 384.628906 127.5625 382.578125 127.5625 380.046875 C 127.5625 377.515625 126.289062 375.460938 124.71875 375.460938 Z M 124.71875 375.460938 "/></clipPath><clipPath id="a513a9feef"><path d="M 204.863281 290.046875 L 210.546875 290.046875 L 210.546875 299.234375 L 204.863281 299.234375 Z M 204.863281 290.046875 "/></clipPath><clipPath id="fcbbe37617"><path d="M 207.707031 290.046875 C 206.136719 290.046875 204.863281 292.097656 204.863281 294.628906 C 204.863281 297.160156 206.136719 299.214844 207.707031 299.214844 C 209.273438 299.214844 210.546875 297.160156 210.546875 294.628906 C 210.546875 292.097656 209.273438 290.046875 207.707031 290.046875 Z M 207.707031 290.046875 "/></clipPath><clipPath id="aafd489cfa"><path d="M 158.105469 529.148438 L 163.785156 529.148438 L 163.785156 538.335938 L 158.105469 538.335938 Z M 158.105469 529.148438 "/></clipPath><clipPath id="28f3165ad5"><path d="M 160.945312 529.148438 C 159.375 529.148438 158.105469 531.199219 158.105469 533.730469 C 158.105469 536.261719 159.375 538.316406 160.945312 538.316406 C 162.515625 538.316406 163.785156 536.261719 163.785156 533.730469 C 163.785156 531.199219 162.515625 529.148438 160.945312 529.148438 Z M 160.945312 529.148438 "/></clipPath><clipPath id="27b21bcebf"><path d="M 309.996094 56.9375 L 315.675781 56.9375 L 315.675781 66.128906 L 309.996094 66.128906 Z M 309.996094 56.9375 "/></clipPath><clipPath id="d341ca7222"><path d="M 312.835938 56.9375 C 311.265625 56.9375 309.996094 58.992188 309.996094 61.523438 C 309.996094 64.054688 311.265625 66.105469 312.835938 66.105469 C 314.40625 66.105469 315.675781 64.054688 315.675781 61.523438 C 315.675781 58.992188 314.40625 56.9375 312.835938 56.9375 Z M 312.835938 56.9375 "/></clipPath><filter x="0%" y="0%" width="100%" filterUnits="objectBoundingBox" id="97c9b5c5b5" height="100%"><feColorMatrix values="0 0 0 0 1 0 0 0 0 1 0 0 0 0 1 0 0 0 1 0" type="matrix" in="SourceGraphic"/></filter><clipPath id="eaec6f5ff8"><path d="M 0.292969 1.113281 L 61.675781 1.113281 L 61.675781 80.542969 L 0.292969 80.542969 Z M 0.292969 1.113281 "/></clipPath><clipPath id="49eb56328e"><rect x="0" width="62" y="0" height="81"/></clipPath><clipPath id="94fc65e8e6"><path d="M 9 19 L 78 19 L 78 94 L 9 94 Z M 9 19 "/></clipPath><clipPath id="6033629b0a"><path d="M 53.703125 0.585938 L 99.082031 42.015625 L 45.523438 100.675781 L 0.148438 59.246094 Z M 53.703125 0.585938 "/></clipPath><clipPath id="807d8bfce9"><path d="M 53.703125 0.585938 L 99.082031 42.015625 L 45.523438 100.675781 L 0.148438 59.246094 Z M 53.703125 0.585938 "/></clipPath><clipPath id="d313dcf7bc"><rect x="0" width="100" y="0" height="101"/></clipPath><clipPath id="43d057c704"><path d="M 14 5 L 90 5 L 90 80 L 14 80 Z M 14 5 "/></clipPath><clipPath id="f65505210e"><path d="M 28.335938 91.957031 L -0.0507812 37.460938 L 70.394531 0.765625 L 98.78125 55.261719 Z M 28.335938 91.957031 "/></clipPath><clipPath id="355583389c"><path d="M 28.335938 91.957031 L -0.0507812 37.460938 L 70.394531 0.765625 L 98.78125 55.261719 Z M 28.335938 91.957031 "/></clipPath><clipPath id="e065fd2aa5"><rect x="0" width="100" y="0" height="93"/></clipPath><clipPath id="205c8295db"><path d="M 9 11 L 82 11 L 82 87 L 9 87 Z M 9 11 "/></clipPath><clipPath id="e4247324ca"><path d="M 0.832031 20.789062 L 59.019531 1.039062 L 84.546875 76.257812 L 26.359375 96.003906 Z M 0.832031 20.789062 "/></clipPath><clipPath id="643ac539cf"><path d="M 0.832031 20.789062 L 59.019531 1.039062 L 84.546875 76.257812 L 26.359375 96.003906 Z M 0.832031 20.789062 "/></clipPath><clipPath id="f123b22364"><rect x="0" width="85" y="0" height="97"/></clipPath><clipPath id="66718e1526"><path d="M 9 18 L 81 18 L 81 93 L 9 93 Z M 9 18 "/></clipPath><clipPath id="09ecac122a"><path d="M 60.398438 0.738281 L 100.980469 46.878906 L 41.335938 99.335938 L 0.753906 53.199219 Z M 60.398438 0.738281 "/></clipPath><clipPath id="9bc9e44364"><path d="M 60.398438 0.738281 L 100.980469 46.878906 L 41.335938 99.335938 L 0.753906 53.199219 Z M 60.398438 0.738281 "/></clipPath><clipPath id="edd8a9415c"><rect x="0" width="102" y="0" height="100"/></clipPath><clipPath id="e186284748"><path d="M 4 9 L 76 9 L 76 86 L 4 86 Z M 4 9 "/></clipPath><clipPath id="eb85ca197f"><path d="M 84.308594 76 L 25.996094 95.367188 L 0.957031 19.988281 L 59.269531 0.621094 Z M 84.308594 76 "/></clipPath><clipPath id="44dfcb009e"><path d="M 84.308594 76 L 25.996094 95.367188 L 0.957031 19.988281 L 59.269531 0.621094 Z M 84.308594 76 "/></clipPath><clipPath id="8f7e4faf63"><rect x="0" width="85" y="0" height="96"/></clipPath><clipPath id="f637272124"><path d="M 10 18 L 81 18 L 81 93 L 10 93 Z M 10 18 "/></clipPath><clipPath id="b2aa259a7d"><path d="M 60.757812 0.734375 L 101.339844 46.875 L 41.695312 99.332031 L 1.113281 53.191406 Z M 60.757812 0.734375 "/></clipPath><clipPath id="194fda4733"><path d="M 60.757812 0.734375 L 101.339844 46.875 L 41.695312 99.332031 L 1.113281 53.191406 Z M 60.757812 0.734375 "/></clipPath><clipPath id="03df1cf35c"><rect x="0" width="102" y="0" height="100"/></clipPath><clipPath id="cc42d21aea"><path d="M 718 0.078125 L 819 0.078125 L 819 100 L 718 100 Z M 718 0.078125 "/></clipPath><clipPath id="84b17f4341"><path d="M 19 22 L 94 22 L 94 91 L 19 91 Z M 19 22 "/></clipPath><clipPath id="eb0970aea9"><path d="M 0.273438 44.890625 L 42.230469 0.00390625 L 100.257812 54.242188 L 58.296875 99.132812 Z M 0.273438 44.890625 "/></clipPath><clipPath id="783f50200b"><path d="M 0.273438 44.890625 L 42.230469 0.00390625 L 100.257812 54.242188 L 58.296875 99.132812 Z M 0.273438 44.890625 "/></clipPath><clipPath id="101d4d4077"><rect x="0" width="101" y="0" height="100"/></clipPath></defs><g id="9534cfbddc"><g clip-rule="nonzero" clip-path="url(#90fa60e631)"><g clip-rule="nonzero" clip-path="url(#5bb8c55864)"><path style="fill:none;stroke-width:2;stroke-linecap:butt;stroke-linejoin:miter;stroke:#382980;stroke-opacity:1;stroke-miterlimit:4;" d="M 376.228881 0.0010105 C 168.441133 0.0010105 -0.0017261 168.44387 -0.0017261 376.226401 C -0.0017261 584.008933 168.441133 752.451792 376.228881 752.451792 C 584.011412 752.451792 752.454271 584.008933 752.454271 376.226401 C 752.454271 168.44387 584.011412 0.0010105 376.228881 0.0010105 Z M 376.228881 0.0010105 " transform="matrix(0.748886,0,0,0.748886,193.598949,98.120337)"/></g></g><g clip-rule="nonzero" clip-path="url(#3d21a63478)"><g clip-rule="nonzero" clip-path="url(#e0e5ada038)"><g clip-rule="nonzero" clip-path="url(#23a05e7154)"><g clip-rule="nonzero" clip-path="url(#91abed45f1)"><path style="fill:none;stroke-width:2;stroke-linecap:butt;stroke-linejoin:miter;stroke:#382980;stroke-opacity:1;stroke-miterlimit:4;" d="M 384.830124 0.00178112 C 172.293366 0.00000686017 0.00194628 59.763199 -0.00259966 133.485683 C -0.00102535 207.204057 172.294753 266.970601 384.832517 266.96726 C 597.369275 266.969034 769.660695 207.205842 769.660126 133.482353 C 769.663666 59.764984 597.367888 -0.00155974 384.830124 0.00178112 Z M 384.830124 0.00178112 " transform="matrix(0.735276,-0.144485,0.144485,0.735276,242.570725,311.858615)"/></g></g></g></g><g clip-rule="nonzero" clip-path="url(#e3d326d6ba)"><g clip-rule="nonzero" clip-path="url(#9de3f44a31)"><path style="fill:none;stroke-width:2;stroke-linecap:butt;stroke-linejoin:miter;stroke:#382980;stroke-opacity:1;stroke-miterlimit:4;" d="M 480.626078 0.000926783 C 215.18197 0.000926783 -0.00154895 215.184446 -0.00154895 480.623339 C -0.00154895 746.067446 215.18197 961.250966 480.626078 961.250966 C 746.064971 961.250966 961.24849 746.067446 961.24849 480.623339 C 961.24849 215.184446 746.064971 0.000926783 480.626078 0.000926783 Z M 480.626078 0.000926783 " transform="matrix(0.749143,0,0,0.749143,124.71991,18.401649)"/></g></g><g clip-rule="nonzero" clip-path="url(#ef0be965ac)"><g clip-rule="nonzero" clip-path="url(#c2b567809d)"><path style=" stroke:none;fill-rule:nonzero;fill:#382980;fill-opacity:1;" d="M 121.878906 375.460938 L 127.5625 375.460938 L 127.5625 384.628906 L 121.878906 384.628906 Z M 121.878906 375.460938 "/></g></g><g clip-rule="nonzero" clip-path="url(#a513a9feef)"><g clip-rule="nonzero" clip-path="url(#fcbbe37617)"><path style=" stroke:none;fill-rule:nonzero;fill:#382980;fill-opacity:1;" d="M 204.863281 290.046875 L 210.546875 290.046875 L 210.546875 299.210938 L 204.863281 299.210938 Z M 204.863281 290.046875 "/></g></g><g clip-rule="nonzero" clip-path="url(#aafd489cfa)"><g clip-rule="nonzero" clip-path="url(#28f3165ad5)"><path style=" stroke:none;fill-rule:nonzero;fill:#382980;fill-opacity:1;" d="M 158.105469 529.148438 L 163.785156 529.148438 L 163.785156 538.3125 L 158.105469 538.3125 Z M 158.105469 529.148438 "/></g></g><g clip-rule="nonzero" clip-path="url(#27b21bcebf)"><g clip-rule="nonzero" clip-path="url(#d341ca7222)"><path style=" stroke:none;fill-rule:nonzero;fill:#382980;fill-opacity:1;" d="M 309.996094 56.9375 L 315.675781 56.9375 L 315.675781 66.105469 L 309.996094 66.105469 Z M 309.996094 56.9375 "/></g></g><g mask="url(#fd7587ac9c)" transform="matrix(1,0,0,1,81,47)"><g clip-path="url(#49eb56328e)"><g clip-rule="nonzero" clip-path="url(#eaec6f5ff8)"><path style=" stroke:none;fill-rule:nonzero;fill:#382980;fill-opacity:1;" d="M 27.410156 3.210938 C 27.410156 2.179688 28.539062 1.113281 29.601562 1.128906 C 30.585938 1.148438 31.746094 2.164062 31.621094 3.210938 C 31.605469 4.308594 30.585938 5.355469 29.507812 5.386719 C 28.492188 5.421875 27.410156 4.308594 27.410156 3.210938 Z M 58.785156 35.539062 C 59.863281 35.507812 60.882812 34.457031 60.898438 33.363281 C 61.023438 32.332031 59.847656 31.296875 58.878906 31.28125 C 57.800781 31.265625 56.671875 32.3125 56.6875 33.363281 C 56.6875 34.457031 57.765625 35.570312 58.785156 35.539062 Z M 2.484375 26.992188 C 1.421875 26.976562 0.292969 28.039062 0.292969 29.074219 C 0.292969 30.167969 1.375 31.28125 2.40625 31.25 C 3.488281 31.21875 4.503906 30.167969 4.519531 29.074219 C 4.628906 28.023438 3.46875 27.007812 2.484375 26.992188 Z M 6.203125 68.613281 C 5.121094 68.597656 3.996094 69.644531 4.011719 70.695312 C 4.011719 71.789062 5.089844 72.902344 6.125 72.871094 C 7.203125 72.839844 8.21875 71.789062 8.234375 70.695312 C 8.347656 69.644531 7.1875 68.628906 6.203125 68.613281 Z M 51.699219 60.910156 C 51.699219 66.324219 47.300781 70.726562 41.882812 70.726562 C 47.300781 70.726562 51.699219 75.125 51.699219 80.542969 C 51.699219 75.125 56.097656 70.726562 61.515625 70.726562 C 56.097656 70.742188 51.699219 66.339844 51.699219 60.910156 Z M 30.601562 25.148438 C 30.601562 45.515625 30.601562 45.515625 13.574219 45.515625 C 30.601562 45.515625 30.601562 45.515625 30.601562 65.878906 C 30.601562 45.515625 30.601562 45.515625 47.617188 45.515625 C 30.601562 45.515625 30.601562 45.515625 30.601562 25.148438 Z M 30.601562 25.148438 "/></g></g><mask id="fd7587ac9c"><g filter="url(#97c9b5c5b5)"><rect x="0" width="848.25" y="0" height="739.499982" style="fill:#000000;fill-opacity:0.3;stroke:none;"/></g></mask></g><g mask="url(#04a92b7f2f)" transform="matrix(1,0,0,1,11,150)"><g clip-path="url(#d313dcf7bc)"><g clip-rule="nonzero" clip-path="url(#94fc65e8e6)"><g clip-rule="nonzero" clip-path="url(#6033629b0a)"><g clip-rule="nonzero" clip-path="url(#807d8bfce9)"><path style=" stroke:none;fill-rule:nonzero;fill:#382980;fill-opacity:1;" d="M 72.3125 20.417969 C 73.011719 19.65625 74.5625 19.632812 75.335938 20.359375 C 76.050781 21.035156 76.222656 22.570312 75.421875 23.257812 C 74.671875 24.054688 73.214844 24.144531 72.394531 23.441406 C 71.621094 22.777344 71.574219 21.230469 72.3125 20.417969 Z M 73.6875 65.445312 C 74.507812 66.152344 75.964844 66.0625 76.714844 65.265625 C 77.503906 64.585938 77.332031 63.03125 76.628906 62.367188 C 75.839844 61.628906 74.300781 61.640625 73.605469 62.425781 C 72.867188 63.234375 72.914062 64.785156 73.6875 65.445312 Z M 37.871094 21.175781 C 37.097656 20.445312 35.546875 20.472656 34.851562 21.234375 C 34.113281 22.042969 34.160156 23.59375 34.945312 24.265625 C 35.761719 24.972656 37.222656 24.882812 37.972656 24.082031 C 38.761719 23.382812 38.589844 21.851562 37.871094 21.175781 Z M 12.554688 54.417969 C 11.769531 53.679688 10.230469 53.691406 9.535156 54.476562 C 8.792969 55.285156 8.84375 56.835938 9.625 57.507812 C 10.445312 58.214844 11.902344 58.125 12.652344 57.328125 C 13.441406 56.628906 13.273438 55.09375 12.554688 54.417969 Z M 51.347656 79.40625 C 47.695312 83.40625 41.480469 83.6875 37.480469 80.035156 C 41.480469 83.6875 41.761719 89.90625 38.109375 93.90625 C 41.761719 89.90625 47.980469 89.621094 51.980469 93.273438 C 47.96875 89.632812 47.6875 83.417969 51.347656 79.40625 Z M 59.878906 38.773438 C 46.148438 53.8125 46.148438 53.8125 33.574219 42.332031 C 46.148438 53.8125 46.148438 53.8125 32.417969 68.851562 C 46.148438 53.8125 46.148438 53.8125 58.714844 65.285156 C 46.148438 53.8125 46.148438 53.8125 59.878906 38.773438 Z M 59.878906 38.773438 "/></g></g></g></g><mask id="04a92b7f2f"><g filter="url(#97c9b5c5b5)"><rect x="0" width="848.25" y="0" height="739.499982" style="fill:#000000;fill-opacity:0.3;stroke:none;"/></g></mask></g><g mask="url(#bb7a6e9414)" transform="matrix(1,0,0,1,0,422)"><g clip-path="url(#e065fd2aa5)"><g clip-rule="nonzero" clip-path="url(#43d057c704)"><g clip-rule="nonzero" clip-path="url(#f65505210e)"><g clip-rule="nonzero" clip-path="url(#355583389c)"><path style=" stroke:none;fill-rule:nonzero;fill:#382980;fill-opacity:1;" d="M 17.667969 66.941406 C 16.753906 67.417969 15.289062 66.90625 14.808594 65.957031 C 14.371094 65.074219 14.734375 63.578125 15.722656 63.207031 C 16.703125 62.714844 18.101562 63.132812 18.628906 64.074219 C 19.128906 64.960938 18.640625 66.433594 17.667969 66.941406 Z M 31.84375 24.179688 C 31.316406 23.238281 29.917969 22.820312 28.9375 23.3125 C 27.964844 23.675781 27.589844 25.195312 28.023438 26.0625 C 28.511719 27.027344 29.960938 27.542969 30.882812 27.042969 C 31.855469 26.539062 32.34375 25.066406 31.84375 24.179688 Z M 50.273438 78.058594 C 50.75 79.007812 52.214844 79.519531 53.132812 79.042969 C 54.105469 78.535156 54.59375 77.0625 54.085938 76.160156 C 53.558594 75.21875 52.160156 74.800781 51.179688 75.292969 C 50.199219 75.679688 49.832031 77.175781 50.273438 78.058594 Z M 85.46875 55.535156 C 85.953125 56.5 87.40625 57.015625 88.328125 56.515625 C 89.300781 56.011719 89.785156 54.539062 89.28125 53.636719 C 88.753906 52.695312 87.355469 52.277344 86.375 52.769531 C 85.394531 53.15625 85.027344 54.652344 85.46875 55.535156 Z M 57.617188 18.742188 C 62.421875 16.242188 68.355469 18.109375 70.859375 22.914062 C 68.355469 18.109375 70.226562 12.175781 75.03125 9.671875 C 70.226562 12.175781 64.292969 10.304688 61.789062 5.5 C 64.304688 10.296875 62.4375 16.234375 57.617188 18.742188 Z M 35.648438 53.972656 C 53.710938 44.5625 53.710938 44.5625 61.578125 59.667969 C 53.710938 44.5625 53.710938 44.5625 71.773438 35.15625 C 53.710938 44.5625 53.710938 44.5625 45.851562 29.476562 C 53.710938 44.5625 53.710938 44.5625 35.648438 53.972656 Z M 35.648438 53.972656 "/></g></g></g></g><mask id="bb7a6e9414"><g filter="url(#97c9b5c5b5)"><rect x="0" width="848.25" y="0" height="739.499982" style="fill:#000000;fill-opacity:0.3;stroke:none;"/></g></mask></g><g mask="url(#099faac212)" transform="matrix(1,0,0,1,298,317)"><g clip-path="url(#f123b22364)"><g clip-rule="nonzero" clip-path="url(#205c8295db)"><g clip-rule="nonzero" clip-path="url(#e4247324ca)"><g clip-rule="nonzero" clip-path="url(#643ac539cf)"><path style=" stroke:none;fill-rule:nonzero;fill:#382980;fill-opacity:1;" d="M 27.1875 14.058594 C 26.855469 13.082031 27.582031 11.710938 28.59375 11.386719 C 29.53125 11.082031 30.957031 11.671875 31.171875 12.707031 C 31.511719 13.75 30.882812 15.070312 29.871094 15.445312 C 28.917969 15.804688 27.539062 15.097656 27.1875 14.058594 Z M 67.285156 34.589844 C 68.296875 34.210938 68.921875 32.890625 68.585938 31.847656 C 68.375 30.832031 66.929688 30.230469 66.007812 30.527344 C 64.980469 30.859375 64.246094 32.214844 64.601562 33.203125 C 64.953125 34.242188 66.332031 34.945312 67.285156 34.589844 Z M 11.226562 44.589844 C 10.214844 44.917969 9.488281 46.285156 9.820312 47.265625 C 10.171875 48.300781 11.550781 49.007812 12.519531 48.644531 C 13.53125 48.269531 14.15625 46.949219 13.820312 45.90625 C 13.589844 44.878906 12.164062 44.289062 11.226562 44.589844 Z M 28.121094 82.808594 C 27.09375 83.140625 26.363281 84.496094 26.714844 85.480469 C 27.066406 86.519531 28.449219 87.226562 29.414062 86.863281 C 30.429688 86.488281 31.054688 85.167969 30.714844 84.125 C 30.484375 83.09375 29.058594 82.503906 28.121094 82.808594 Z M 68.730469 60.890625 C 70.46875 66.019531 67.71875 71.601562 62.585938 73.339844 C 67.71875 71.601562 73.296875 74.351562 75.039062 79.484375 C 73.296875 74.351562 76.050781 68.773438 81.179688 67.03125 C 76.054688 68.789062 70.476562 66.035156 68.730469 60.890625 Z M 37.261719 33.808594 C 43.804688 53.09375 43.804688 53.09375 27.679688 58.566406 C 43.804688 53.09375 43.804688 53.09375 50.351562 72.378906 C 43.804688 53.09375 43.804688 53.09375 59.917969 47.625 C 43.804688 53.09375 43.804688 53.09375 37.261719 33.808594 Z M 37.261719 33.808594 "/></g></g></g></g><mask id="099faac212"><g filter="url(#97c9b5c5b5)"><rect x="0" width="848.25" y="0" height="739.499982" style="fill:#000000;fill-opacity:0.3;stroke:none;"/></g></mask></g><g mask="url(#0719d71401)" transform="matrix(1,0,0,1,138,623)"><g clip-path="url(#edd8a9415c)"><g clip-rule="nonzero" clip-path="url(#66718e1526)"><g clip-rule="nonzero" clip-path="url(#09ecac122a)"><g clip-rule="nonzero" clip-path="url(#9bc9e44364)"><path style=" stroke:none;fill-rule:nonzero;fill:#382980;fill-opacity:1;" d="M 76.730469 22.484375 C 77.507812 21.804688 79.050781 21.949219 79.742188 22.757812 C 80.378906 23.507812 80.382812 25.050781 79.511719 25.648438 C 78.679688 26.359375 77.21875 26.289062 76.480469 25.5 C 75.785156 24.753906 75.90625 23.210938 76.730469 22.484375 Z M 73.179688 67.394531 C 73.914062 68.183594 75.375 68.253906 76.207031 67.542969 C 77.066406 66.957031 77.066406 65.390625 76.4375 64.652344 C 75.734375 63.832031 74.203125 63.679688 73.425781 64.382812 C 72.605469 65.105469 72.484375 66.652344 73.179688 67.394531 Z M 42.414062 19.476562 C 41.722656 18.667969 40.179688 18.523438 39.402344 19.203125 C 38.582031 19.929688 38.457031 21.472656 39.164062 22.230469 C 39.902344 23.019531 41.359375 23.089844 42.195312 22.378906 C 43.054688 21.769531 43.050781 20.226562 42.414062 19.476562 Z M 13.617188 49.753906 C 12.914062 48.933594 11.382812 48.78125 10.605469 49.484375 C 9.785156 50.207031 9.660156 51.753906 10.367188 52.507812 C 11.105469 53.296875 12.5625 53.367188 13.398438 52.65625 C 14.257812 52.046875 14.253906 50.503906 13.617188 49.753906 Z M 49.449219 78.828125 C 45.382812 82.40625 39.171875 82.007812 35.59375 77.941406 C 39.171875 82.007812 38.773438 88.21875 34.707031 91.796875 C 38.773438 88.21875 44.984375 88.617188 48.5625 92.683594 C 44.972656 88.628906 45.371094 82.417969 49.449219 78.828125 Z M 62.367188 39.371094 C 47.074219 52.824219 47.074219 52.824219 35.828125 40.035156 C 47.074219 52.824219 47.074219 52.824219 31.785156 66.273438 C 47.074219 52.824219 47.074219 52.824219 58.3125 65.597656 C 47.074219 52.824219 47.074219 52.824219 62.367188 39.371094 Z M 62.367188 39.371094 "/></g></g></g></g><mask id="0719d71401"><g filter="url(#97c9b5c5b5)"><rect x="0" width="848.25" y="0" height="739.499982" style="fill:#000000;fill-opacity:0.3;stroke:none;"/></g></mask></g><g mask="url(#d3aa4135c6)" transform="matrix(1,0,0,1,583,40)"><g clip-path="url(#8f7e4faf63)"><g clip-rule="nonzero" clip-path="url(#e186284748)"><g clip-rule="nonzero" clip-path="url(#eb85ca197f)"><g clip-rule="nonzero" clip-path="url(#44dfcb009e)"><path style=" stroke:none;fill-rule:nonzero;fill:#382980;fill-opacity:1;" d="M 57.914062 82.554688 C 58.238281 83.535156 57.503906 84.902344 56.488281 85.222656 C 55.546875 85.519531 54.128906 84.917969 53.917969 83.882812 C 53.585938 82.839844 54.222656 81.523438 55.234375 81.152344 C 56.191406 80.800781 57.566406 81.515625 57.914062 82.554688 Z M 17.949219 61.765625 C 16.933594 62.136719 16.296875 63.453125 16.628906 64.496094 C 16.832031 65.519531 18.273438 66.128906 19.199219 65.835938 C 20.230469 65.511719 20.96875 64.160156 20.625 63.171875 C 20.277344 62.128906 18.902344 61.414062 17.949219 61.765625 Z M 74.070312 52.132812 C 75.085938 51.8125 75.820312 50.445312 75.496094 49.464844 C 75.148438 48.425781 73.773438 47.710938 72.804688 48.066406 C 71.789062 48.4375 71.15625 49.753906 71.484375 50.796875 C 71.710938 51.828125 73.128906 52.425781 74.070312 52.132812 Z M 57.421875 13.804688 C 58.453125 13.480469 59.195312 12.128906 58.847656 11.140625 C 58.503906 10.097656 57.128906 9.382812 56.15625 9.738281 C 55.140625 10.109375 54.507812 11.425781 54.839844 12.472656 C 55.0625 13.5 56.484375 14.101562 57.421875 13.804688 Z M 16.675781 35.457031 C 14.96875 30.316406 17.757812 24.753906 22.898438 23.046875 C 17.757812 24.753906 12.195312 21.964844 10.488281 16.824219 C 12.195312 21.964844 9.40625 27.527344 4.265625 29.234375 C 9.398438 27.511719 14.960938 30.300781 16.675781 35.457031 Z M 47.96875 62.742188 C 41.546875 43.417969 41.546875 43.417969 57.710938 38.046875 C 41.546875 43.417969 41.546875 43.417969 35.128906 24.089844 C 41.546875 43.417969 41.546875 43.417969 25.402344 48.777344 C 41.546875 43.417969 41.546875 43.417969 47.96875 62.742188 Z M 47.96875 62.742188 "/></g></g></g></g><mask id="d3aa4135c6"><g filter="url(#97c9b5c5b5)"><rect x="0" width="848.25" y="0" height="739.499982" style="fill:#000000;fill-opacity:0.3;stroke:none;"/></g></mask></g><g mask="url(#8139e0a2b1)" transform="matrix(1,0,0,1,741,533)"><g clip-path="url(#03df1cf35c)"><g clip-rule="nonzero" clip-path="url(#f637272124)"><g clip-rule="nonzero" clip-path="url(#b2aa259a7d)"><g clip-rule="nonzero" clip-path="url(#194fda4733)"><path style=" stroke:none;fill-rule:nonzero;fill:#382980;fill-opacity:1;" d="M 77.089844 22.480469 C 77.867188 21.800781 79.410156 21.945312 80.101562 22.753906 C 80.738281 23.503906 80.742188 25.046875 79.871094 25.644531 C 79.039062 26.355469 77.578125 26.285156 76.839844 25.492188 C 76.144531 24.75 76.265625 23.207031 77.089844 22.480469 Z M 73.539062 67.390625 C 74.273438 68.179688 75.734375 68.25 76.566406 67.539062 C 77.425781 66.953125 77.425781 65.386719 76.796875 64.648438 C 76.09375 63.828125 74.5625 63.671875 73.785156 64.378906 C 72.964844 65.101562 72.84375 66.648438 73.539062 67.390625 Z M 42.773438 19.472656 C 42.082031 18.664062 40.539062 18.519531 39.761719 19.199219 C 38.941406 19.925781 38.816406 21.46875 39.523438 22.222656 C 40.261719 23.015625 41.71875 23.085938 42.554688 22.375 C 43.414062 21.765625 43.410156 20.222656 42.773438 19.472656 Z M 13.976562 49.75 C 13.273438 48.929688 11.742188 48.773438 10.964844 49.480469 C 10.144531 50.203125 10.019531 51.75 10.726562 52.503906 C 11.464844 53.292969 12.921875 53.363281 13.757812 52.652344 C 14.617188 52.042969 14.613281 50.5 13.976562 49.75 Z M 49.808594 78.824219 C 45.742188 82.402344 39.53125 82.003906 35.953125 77.9375 C 39.53125 82.003906 39.132812 88.214844 35.066406 91.792969 C 39.132812 88.214844 45.34375 88.613281 48.921875 92.679688 C 45.332031 88.625 45.730469 82.414062 49.808594 78.824219 Z M 62.726562 39.367188 C 47.433594 52.816406 47.433594 52.816406 36.1875 40.03125 C 47.433594 52.816406 47.433594 52.816406 32.144531 66.269531 C 47.433594 52.816406 47.433594 52.816406 58.671875 65.59375 C 47.433594 52.816406 47.433594 52.816406 62.726562 39.367188 Z M 62.726562 39.367188 "/></g></g></g></g><mask id="8139e0a2b1"><g filter="url(#97c9b5c5b5)"><rect x="0" width="848.25" y="0" height="739.499982" style="fill:#000000;fill-opacity:0.3;stroke:none;"/></g></mask></g><g clip-rule="nonzero" clip-path="url(#cc42d21aea)"><g mask="url(#eb940486a9)" transform="matrix(1,0,0,1,718,0.000000000000052999)"><g clip-path="url(#101d4d4077)"><g clip-rule="nonzero" clip-path="url(#84b17f4341)"><g clip-rule="nonzero" clip-path="url(#eb0970aea9)"><g clip-rule="nonzero" clip-path="url(#783f50200b)"><path style=" stroke:none;fill-rule:nonzero;fill:#382980;fill-opacity:1;" d="M 20.320312 26.515625 C 19.566406 25.808594 19.558594 24.257812 20.296875 23.492188 C 20.984375 22.785156 22.515625 22.628906 23.195312 23.4375 C 23.984375 24.199219 24.058594 25.660156 23.34375 26.46875 C 22.671875 27.234375 21.121094 27.261719 20.320312 26.515625 Z M 65.363281 25.671875 C 66.078125 24.859375 66.003906 23.402344 65.214844 22.640625 C 64.546875 21.84375 62.992188 21.996094 62.316406 22.695312 C 61.566406 23.472656 61.5625 25.011719 62.339844 25.714844 C 63.140625 26.464844 64.691406 26.433594 65.363281 25.671875 Z M 20.675781 60.960938 C 19.9375 61.730469 19.941406 63.28125 20.699219 63.984375 C 21.496094 64.734375 23.046875 64.703125 23.730469 63.925781 C 24.445312 63.117188 24.371094 61.65625 23.582031 60.898438 C 22.894531 60.101562 21.359375 60.253906 20.675781 60.960938 Z M 53.617188 86.667969 C 52.867188 87.445312 52.863281 88.984375 53.640625 89.691406 C 54.441406 90.4375 55.992188 90.410156 56.671875 89.632812 C 57.386719 88.824219 57.316406 87.363281 56.527344 86.605469 C 55.835938 85.804688 54.300781 85.960938 53.617188 86.667969 Z M 79.058594 48.171875 C 83.015625 51.871094 83.222656 58.089844 79.523438 62.046875 C 83.222656 58.089844 89.445312 57.878906 93.402344 61.578125 C 89.445312 57.878906 89.234375 51.660156 92.933594 47.703125 C 89.246094 51.671875 83.027344 51.878906 79.058594 48.171875 Z M 38.527344 39.164062 C 53.40625 53.070312 53.40625 53.070312 41.777344 65.511719 C 53.40625 53.070312 53.40625 53.070312 68.285156 66.976562 C 53.40625 53.070312 53.40625 53.070312 65.023438 40.640625 C 53.40625 53.070312 53.40625 53.070312 38.527344 39.164062 Z M 38.527344 39.164062 "/></g></g></g></g><mask id="eb940486a9"><g filter="url(#97c9b5c5b5)"><rect x="0" width="848.25" y="0" height="739.499982" style="fill:#000000;fill-opacity:0.3;stroke:none;"/></g></mask></g></g></g></svg>