<svg xmlns="http://www.w3.org/2000/svg" xmlns:xlink="http://www.w3.org/1999/xlink" width="149" zoomAndPan="magnify" viewBox="0 0 111.75 111.749996" height="149" preserveAspectRatio="xMidYMid meet" version="1.2"><defs><clipPath id="4ba9f86f84"><path d="M 26 26 L 85 26 L 85 85 L 26 85 Z M 26 26 "/></clipPath><clipPath id="dcad0180ed"><path d="M 62.203125 0 L 111.125 62.445312 L 48.679688 111.363281 L -0.238281 48.921875 Z M 62.203125 0 "/></clipPath><clipPath id="c2b8f444c6"><path d="M 62.203125 0 L 111.125 62.445312 L 48.679688 111.363281 L -0.238281 48.921875 Z M 62.203125 0 "/></clipPath><clipPath id="1b445466d1"><path d="M 1 40 L 110 40 L 110 71 L 1 71 Z M 1 40 "/></clipPath><clipPath id="0ac4f7e3d5"><path d="M 62.203125 0 L 111.125 62.445312 L 48.679688 111.363281 L -0.238281 48.921875 Z M 62.203125 0 "/></clipPath><clipPath id="fbb9855ded"><path d="M 62.203125 0 L 111.125 62.445312 L 48.679688 111.363281 L -0.238281 48.921875 Z M 62.203125 0 "/></clipPath><clipPath id="600683e506"><path d="M 62.203125 0 L 110.894531 62.152344 L 48.746094 110.839844 L 0.0546875 48.691406 Z M 62.203125 0 "/></clipPath><clipPath id="c583e562cf"><path d="M 51.707031 47.945312 L 59.238281 47.945312 L 59.238281 55.472656 L 51.707031 55.472656 Z M 51.707031 47.945312 "/></clipPath><clipPath id="03a5b438d7"><path d="M 55.472656 47.945312 C 53.394531 47.945312 51.707031 49.628906 51.707031 51.707031 C 51.707031 53.789062 53.394531 55.472656 55.472656 55.472656 C 57.550781 55.472656 59.238281 53.789062 59.238281 51.707031 C 59.238281 49.628906 57.550781 47.945312 55.472656 47.945312 Z M 55.472656 47.945312 "/></clipPath></defs><g id="8991e736d5"><g clip-rule="nonzero" clip-path="url(#4ba9f86f84)"><g clip-rule="nonzero" clip-path="url(#dcad0180ed)"><g clip-rule="nonzero" clip-path="url(#c2b8f444c6)"><path style=" stroke:none;fill-rule:nonzero;fill:#ea5f04;fill-opacity:1;" d="M 84.585938 51.265625 C 84.375 49.773438 84.046875 48.300781 83.617188 46.886719 C 80.339844 36.082031 70.957031 27.695312 59.023438 26.246094 C 47.09375 24.796875 35.972656 30.691406 30.203125 40.402344 C 29.449219 41.671875 28.777344 43.023438 28.214844 44.417969 C 27.277344 46.757812 26.625 49.253906 26.296875 51.882812 C 25.980469 54.507812 26.015625 57.089844 26.375 59.578125 C 26.578125 61.074219 26.90625 62.546875 27.34375 63.96875 C 30.621094 74.761719 40.003906 83.160156 51.9375 84.609375 C 63.867188 86.058594 74.988281 80.152344 80.753906 70.453125 C 81.519531 69.179688 82.1875 67.828125 82.746094 66.425781 C 83.691406 64.09375 84.34375 61.59375 84.660156 58.972656 C 84.976562 56.339844 84.9375 53.757812 84.585938 51.265625 "/></g></g></g><g clip-rule="nonzero" clip-path="url(#1b445466d1)"><g clip-rule="nonzero" clip-path="url(#0ac4f7e3d5)"><g clip-rule="nonzero" clip-path="url(#fbb9855ded)"><g clip-rule="nonzero" clip-path="url(#600683e506)"><path style=" stroke:none;fill-rule:nonzero;fill:#6a2940;fill-opacity:1;" d="M 83.617188 46.886719 C 84.046875 48.300781 84.375 49.773438 84.585938 51.265625 C 94.042969 54.875 98.609375 58.785156 98.394531 60.632812 C 98.164062 62.480469 92.792969 65.183594 82.746094 66.425781 C 75.570312 67.308594 65.992188 67.464844 54.191406 66.03125 C 42.390625 64.597656 33.128906 62.152344 26.375 59.578125 C 16.917969 55.96875 12.351562 52.058594 12.566406 50.210938 C 12.796875 48.367188 18.167969 45.664062 28.214844 44.417969 C 28.777344 43.023438 29.449219 41.671875 30.203125 40.402344 C 13.765625 40.785156 2.363281 43.863281 1.753906 48.898438 C 1.140625 53.929688 11.476562 59.660156 27.34375 63.96875 C 35.0625 66.0625 44.109375 67.816406 53.832031 68.996094 C 63.554688 70.179688 72.757812 70.640625 80.753906 70.453125 C 97.191406 70.070312 108.597656 66.980469 109.207031 61.945312 C 109.820312 56.914062 99.484375 51.195312 83.617188 46.886719 "/></g></g></g></g><g clip-rule="nonzero" clip-path="url(#c583e562cf)"><g clip-rule="nonzero" clip-path="url(#03a5b438d7)"><path style=" stroke:none;fill-rule:nonzero;fill:#ea5f04;fill-opacity:1;" d="M 51.707031 47.945312 L 59.238281 47.945312 L 59.238281 55.472656 L 51.707031 55.472656 Z M 51.707031 47.945312 "/></g></g></g></svg>